<?xml version="1.0" encoding="utf-8"?>
<!-- Generator: Adobe Illustrator 16.0.0, SVG Export Plug-In . SVG Version: 6.00 Build 0)  -->
<!DOCTYPE svg PUBLIC "-//W3C//DTD SVG 1.1//EN" "http://www.w3.org/Graphics/SVG/1.1/DTD/svg11.dtd">
<svg version="1.1" id="Layer_1" xmlns="http://www.w3.org/2000/svg" xmlns:xlink="http://www.w3.org/1999/xlink" x="0px" y="0px"
	 width="432.822px" height="474.582px" viewBox="0 0 432.822 474.582" enable-background="new 0 0 432.822 474.582"
	 xml:space="preserve">
<g>
	<path fill="none" stroke="#27FFDA" stroke-miterlimit="10" d="M360.815,340.08c-1.182-0.35-2.383-0.828-3.604-1.435
		c-1.219-0.608-2.328-1.234-3.324-1.873c-0.998-0.642-1.811-1.234-2.438-1.782c-0.63-0.548-0.943-0.938-0.939-1.168
		c-0.014-0.96,0.59-1.884,1.809-2.775c0.625,0.449,1.279,0.912,1.959,1.394c0.681,0.482,1.387,0.938,2.115,1.367
		c0.729,0.431,1.469,0.821,2.223,1.176c0.752,0.354,1.496,0.623,2.232,0.807c0.332,0.099,0.748,0.197,1.248,0.296
		c0.495,0.098,0.981,0.186,1.455,0.258c0.563,0.1,1.129,0.188,1.703,0.256c0.129-1.113,0.367-2.196,0.711-3.248
		c0.301-0.899,0.703-1.866,1.206-2.905c0.502-1.036,1.186-1.953,2.051-2.753c0.278-0.279,0.491-0.613,0.638-0.996
		c0.148-0.386,0.291-0.755,0.43-1.109c0.781-2.205,1.512-4.229,2.188-6.072c0.273-0.81,0.559-1.605,0.857-2.392
		c0.297-0.784,0.574-1.526,0.83-2.225s0.477-1.308,0.662-1.829c0.189-0.521,0.334-0.898,0.434-1.133
		c0.3-0.669,0.831-1.302,1.604-1.898c0.336-0.262,0.676-0.4,1.012-0.416c0.334-0.018,0.625,0.054,0.875,0.211
		c0.25,0.155,0.439,0.375,0.57,0.661c0.129,0.284,0.15,0.58,0.061,0.882c-0.107,0.364-0.285,0.937-0.533,1.72
		c-0.25,0.784-0.525,1.616-0.836,2.495c-0.311,0.881-0.598,1.711-0.86,2.489c-0.264,0.778-0.463,1.345-0.603,1.7
		c-0.074,0.143-0.207,0.506-0.395,1.092c-0.192,0.587-0.416,1.205-0.674,1.854c-0.293,0.769-0.593,1.619-0.902,2.55
		c0.666-0.132,1.316-0.271,1.951-0.412c0.494-0.117,0.996-0.226,1.504-0.322c0.508-0.098,0.843-0.152,1.013-0.169
		c1.464-0.16,2.819-0.058,4.06,0.31c1.332,0.395,2.455,0.999,3.369,1.812c0.91,0.813,1.592,1.963,2.043,3.447
		c1.039,3.172,0.289,5.981-2.244,8.427c-1.455,1.349-3.049,2.237-4.789,2.661c-1.739,0.425-3.486,0.706-5.242,0.847
		c-2.461,0.192-4.959,0.147-7.494-0.142C366.218,341.446,363.571,340.895,360.815,340.08z M381.107,328.934
		c-0.515-0.151-1.042-0.207-1.579-0.17c-0.409,0.045-0.945,0.126-1.603,0.242c-0.661,0.119-1.31,0.247-1.944,0.389
		c-0.736,0.146-1.5,0.332-2.291,0.559c-0.288,0.08-0.564,0.22-0.838,0.418c-0.275,0.201-0.502,0.438-0.681,0.714
		c-0.198,0.337-0.499,0.849-0.901,1.537c-0.398,0.689-0.789,1.39-1.163,2.102c-0.442,0.826-0.923,1.722-1.438,2.688
		c0.823,0.111,1.602,0.21,2.336,0.295c0.631,0.088,1.246,0.154,1.844,0.199c0.594,0.046,1.027,0.058,1.295,0.039
		c0.271-0.021,0.672-0.041,1.205-0.064c0.535-0.023,1.117-0.066,1.743-0.129c0.628-0.06,1.282-0.131,1.964-0.208
		s1.292-0.186,1.826-0.325c1.239-0.293,2.18-0.854,2.821-1.685c0.642-0.833,0.862-1.805,0.665-2.918
		c-0.17-0.873-0.544-1.643-1.121-2.308C382.669,329.644,381.956,329.185,381.107,328.934z"/>
	<path fill="none" stroke="#27FFDA" stroke-miterlimit="10" d="M261.981,385.18c-0.295,0.422-0.598,0.838-0.91,1.245
		c-0.312,0.406-0.599,0.825-0.866,1.257c-0.266,0.43-0.498,0.883-0.703,1.353c-0.202,0.471-0.328,0.975-0.381,1.512
		c-0.038,0.413-0.066,0.829-0.084,1.249s0,0.828,0.053,1.227c0.126,0.865,0.399,1.52,0.82,1.963
		c0.421,0.442,1.005,0.732,1.751,0.868c1.652,0.297,2.941-0.288,3.864-1.758c0.423-0.639,0.673-1.308,0.752-2.007
		c0.08-0.698,0.109-1.402,0.083-2.109c0.018-0.419,0.004-0.838-0.043-1.256c-0.047-0.417-0.062-0.835-0.044-1.255
		c0.011-0.251,0.066-0.511,0.168-0.779c0.1-0.267,0.243-0.468,0.434-0.604c0.224-0.188,0.494-0.348,0.811-0.477
		c0.313-0.131,0.599-0.168,0.86-0.113c0.182,0.033,0.343,0.208,0.481,0.525c0.14,0.317,0.246,0.604,0.319,0.858
		c0.082,0.301,0.111,0.612,0.092,0.936c-0.023,0.323-0.023,0.636-0.008,0.937c0.024,0.562,0.124,0.941,0.301,1.142
		c0.174,0.2,0.542,0.319,1.102,0.357c0.726,0.066,1.432,0.046,2.12-0.059c0.691-0.104,1.352-0.359,1.981-0.769
		c0.202-0.109,0.41-0.223,0.626-0.34c0.215-0.117,0.43-0.218,0.647-0.302c0.455-0.184,0.842-0.177,1.154,0.022
		s0.462,0.54,0.447,1.024c-0.025,0.29-0.082,0.575-0.173,0.856c-0.095,0.279-0.161,0.563-0.204,0.848
		c-0.041,0.285-0.077,0.583-0.104,0.894c-0.028,0.31-0.063,0.639-0.103,0.988c1.177,0.114,2.228,0.022,3.156-0.277
		c0.927-0.3,1.799-0.785,2.613-1.457c0.107-0.075,0.203-0.163,0.287-0.266c0.084-0.104,0.171-0.204,0.264-0.305
		c0.277-0.216,0.558-0.344,0.847-0.387c0.288-0.041,0.583,0.045,0.879,0.26c0.304,0.196,0.443,0.439,0.421,0.729
		c-0.022,0.292-0.083,0.57-0.183,0.838c-0.138,0.321-0.35,0.608-0.638,0.862c-1.046,0.881-2.16,1.576-3.34,2.088
		c-1.182,0.51-2.469,0.782-3.857,0.818c-0.959,0.013-1.643-0.157-2.048-0.511c-0.404-0.354-0.674-0.994-0.802-1.924
		c-0.031-0.18-0.059-0.357-0.08-0.534c-0.022-0.177-0.035-0.329-0.04-0.457c-0.952,0.059-1.886,0.11-2.802,0.158
		c-0.92,0.047-1.864,0.107-2.84,0.18c-0.11,0.223-0.238,0.476-0.386,0.762c-0.147,0.285-0.282,0.592-0.397,0.917
		c-0.31,0.759-0.746,1.39-1.308,1.892c-0.563,0.503-1.179,0.942-1.841,1.319c-1.348,0.749-2.654,1.036-3.92,0.865
		c-1.264-0.174-2.395-0.843-3.389-2.007c-0.805-0.938-1.312-1.971-1.521-3.093c-0.21-1.124-0.171-2.281,0.117-3.47
		c0.157-0.676,0.385-1.324,0.688-1.947c0.3-0.622,0.61-1.226,0.932-1.811c0.498-0.746,0.944-1.313,1.35-1.704
		c0.4-0.391,0.761-0.65,1.075-0.78c0.313-0.131,0.578-0.163,0.792-0.101c0.217,0.063,0.387,0.168,0.515,0.311
		c0.127,0.145,0.205,0.296,0.231,0.452C262.032,384.993,262.023,385.107,261.981,385.18z M276.043,383.411
		c0.491-0.873,1.087-1.577,1.788-2.114c0.699-0.536,1.598-0.791,2.694-0.764c0.4,0.012,0.772,0.1,1.116,0.265
		c0.342,0.167,0.63,0.384,0.857,0.653c0.229,0.27,0.396,0.578,0.507,0.93c0.108,0.35,0.133,0.729,0.077,1.138
		c-0.016,0.188-0.041,0.37-0.084,0.549c-0.04,0.179-0.108,0.35-0.199,0.515c-0.194,0.368-0.463,0.563-0.811,0.588
		c-0.348,0.025-0.649-0.139-0.906-0.49c-0.041-0.077-0.081-0.156-0.119-0.243c-0.038-0.086-0.092-0.159-0.159-0.222
		c-0.761-1.159-1.593-1.214-2.498-0.166c-0.124,0.134-0.222,0.269-0.295,0.407c-0.072,0.137-0.169,0.263-0.286,0.377
		c-0.188,0.199-0.408,0.278-0.66,0.235c-0.254-0.043-0.478-0.146-0.673-0.312c-0.194-0.162-0.336-0.368-0.422-0.617
		C275.887,383.891,275.909,383.648,276.043,383.411z M283.567,377.354c-0.139,0.469-0.394,0.828-0.765,1.08
		c-0.371,0.251-0.741,0.312-1.104,0.183c-0.343-0.143-0.616-0.415-0.827-0.818c-0.21-0.4-0.272-0.781-0.188-1.138
		c0.064-0.215,0.184-0.419,0.356-0.612c0.173-0.192,0.369-0.353,0.588-0.479c0.218-0.126,0.438-0.214,0.666-0.264
		c0.227-0.05,0.437-0.035,0.624,0.041c0.348,0.124,0.582,0.369,0.709,0.734C283.751,376.448,283.731,376.872,283.567,377.354z"/>
	<path fill="none" stroke="#27FFDA" stroke-miterlimit="10" d="M119.389,266.62c-0.175-0.069-0.339-0.135-0.489-0.197
		s-0.288-0.122-0.416-0.176c-0.663-0.215-1.207-0.526-1.629-0.936c-0.422-0.41-0.725-0.872-0.908-1.391
		c-0.186-0.517-0.236-1.065-0.154-1.646c0.081-0.58,0.316-1.16,0.701-1.739c0.424-0.657,0.929-1.13,1.513-1.42
		s1.253-0.446,2.007-0.474c0.303,0.001,0.631,0.063,0.986,0.186s0.653,0.282,0.898,0.479c1.184,0.989,1.741,2.291,1.67,3.908
		c-0.081,1.966-0.602,3.648-1.556,5.046c-0.957,1.398-2.276,2.568-3.959,3.512c-0.339,0.184-0.664,0.381-0.976,0.592
		c-0.313,0.209-0.643,0.396-0.992,0.56c-0.252,0.121-0.512,0.227-0.787,0.315c-0.276,0.086-0.534,0.121-0.778,0.103
		c-0.206-0.025-0.427-0.118-0.665-0.276c-0.238-0.159-0.399-0.332-0.486-0.518c-0.063-0.144-0.127-0.291-0.188-0.442
		c-0.063-0.152-0.097-0.31-0.103-0.471c-0.006-0.162,0.023-0.317,0.086-0.468s0.184-0.289,0.36-0.413
		c0.271-0.188,0.544-0.364,0.825-0.53c0.281-0.167,0.568-0.303,0.869-0.41c0.699-0.272,1.365-0.592,1.989-0.959
		c0.624-0.366,1.19-0.839,1.7-1.417c0.088-0.116,0.168-0.24,0.242-0.369C119.223,266.94,119.305,266.79,119.389,266.62z
		 M121.239,264.153c0.017-0.421,0.015-0.773-0.01-1.057c-0.022-0.282-0.074-0.511-0.156-0.686c-0.082-0.176-0.197-0.313-0.346-0.41
		c-0.148-0.097-0.346-0.182-0.591-0.254c-0.356-0.123-0.69-0.165-1.005-0.124c-0.314,0.04-0.566,0.264-0.759,0.669
		c-0.159,0.362-0.14,0.715,0.062,1.059c0.202,0.344,0.526,0.565,0.977,0.663c0.285,0.065,0.579,0.104,0.889,0.114
		C120.607,264.14,120.917,264.147,121.239,264.153z"/>
	<path fill="none" stroke="#27FFDA" stroke-miterlimit="10" d="M72.851,36.348c-0.174-0.069-0.338-0.135-0.488-0.197
		s-0.288-0.122-0.414-0.176c-0.666-0.215-1.209-0.526-1.631-0.936c-0.421-0.41-0.725-0.872-0.908-1.391
		c-0.185-0.517-0.236-1.065-0.154-1.646c0.081-0.58,0.316-1.16,0.701-1.739c0.424-0.657,0.928-1.13,1.513-1.42
		c0.584-0.29,1.253-0.446,2.008-0.474c0.302,0.001,0.63,0.063,0.986,0.186c0.354,0.123,0.653,0.282,0.898,0.479
		c1.183,0.989,1.739,2.291,1.671,3.908c-0.084,1.966-0.604,3.648-1.558,5.046c-0.958,1.398-2.276,2.568-3.959,3.512
		c-0.339,0.184-0.665,0.381-0.976,0.592c-0.313,0.209-0.643,0.396-0.992,0.56c-0.252,0.121-0.513,0.227-0.787,0.315
		c-0.277,0.086-0.534,0.121-0.779,0.103c-0.204-0.025-0.426-0.118-0.664-0.276c-0.238-0.159-0.4-0.332-0.486-0.518
		c-0.064-0.144-0.127-0.291-0.188-0.442c-0.063-0.152-0.096-0.31-0.103-0.471c-0.006-0.162,0.023-0.317,0.086-0.468
		s0.184-0.289,0.36-0.413c0.271-0.188,0.544-0.364,0.825-0.53c0.281-0.167,0.568-0.303,0.869-0.41
		c0.699-0.272,1.365-0.592,1.989-0.959c0.625-0.366,1.19-0.839,1.699-1.417c0.089-0.116,0.169-0.24,0.243-0.369
		C72.686,36.668,72.767,36.518,72.851,36.348z M74.7,33.881c0.019-0.421,0.016-0.773-0.007-1.057
		c-0.023-0.282-0.077-0.511-0.158-0.686c-0.081-0.176-0.196-0.313-0.345-0.41c-0.148-0.097-0.346-0.182-0.592-0.254
		c-0.355-0.123-0.689-0.165-1.004-0.124c-0.313,0.04-0.566,0.264-0.759,0.669c-0.159,0.362-0.138,0.715,0.062,1.059
		c0.201,0.344,0.526,0.565,0.978,0.663c0.284,0.065,0.578,0.104,0.888,0.114C74.07,33.867,74.38,33.875,74.7,33.881z"/>
	<path fill="none" stroke="#27FFDA" stroke-miterlimit="10" d="M251.723,423.813c-0.208-0.083-0.402-0.16-0.582-0.235
		c-0.179-0.075-0.345-0.146-0.495-0.21c-0.795-0.257-1.445-0.629-1.947-1.117c-0.502-0.489-0.867-1.042-1.086-1.66
		c-0.221-0.617-0.281-1.272-0.184-1.966c0.099-0.692,0.378-1.385,0.838-2.076c0.507-0.785,1.109-1.35,1.807-1.697
		c0.697-0.346,1.497-0.533,2.397-0.564c0.36,0.001,0.752,0.074,1.179,0.221c0.422,0.147,0.779,0.338,1.073,0.572
		c1.411,1.182,2.077,2.737,1.995,4.668c-0.102,2.348-0.721,4.358-1.862,6.026c-1.142,1.67-2.717,3.067-4.728,4.194
		c-0.405,0.219-0.795,0.454-1.164,0.706c-0.374,0.25-0.768,0.474-1.184,0.668c-0.299,0.146-0.613,0.271-0.942,0.377
		c-0.326,0.104-0.638,0.146-0.928,0.123c-0.245-0.031-0.511-0.141-0.794-0.33c-0.285-0.19-0.478-0.396-0.582-0.618
		c-0.076-0.172-0.152-0.348-0.228-0.528c-0.071-0.182-0.11-0.369-0.12-0.562c-0.006-0.194,0.027-0.38,0.102-0.56
		c0.076-0.18,0.221-0.345,0.435-0.493c0.32-0.224,0.646-0.436,0.982-0.633c0.334-0.199,0.682-0.362,1.038-0.49
		c0.838-0.326,1.63-0.707,2.376-1.146c0.747-0.438,1.422-1.002,2.03-1.692c0.104-0.139,0.201-0.286,0.29-0.44
		C251.526,424.195,251.621,424.017,251.723,423.813z M253.935,420.866c0.019-0.503,0.018-0.923-0.011-1.261
		c-0.026-0.337-0.091-0.61-0.188-0.819c-0.098-0.209-0.235-0.372-0.412-0.489c-0.179-0.116-0.413-0.218-0.708-0.304
		c-0.423-0.146-0.822-0.196-1.199-0.147c-0.374,0.048-0.677,0.314-0.904,0.799c-0.189,0.432-0.168,0.854,0.072,1.264
		c0.24,0.411,0.629,0.676,1.168,0.792c0.337,0.078,0.69,0.125,1.059,0.137C253.18,420.851,253.555,420.86,253.935,420.866z"/>
	<path fill="none" stroke="#27FFDA" stroke-miterlimit="10" d="M138.693,279.74c-0.585-0.533-1.011-1.138-1.279-1.811
		c-0.269-0.675-0.397-1.393-0.384-2.152c0.006-0.954,0.256-1.905,0.747-2.854c0.493-0.948,1.155-1.787,1.987-2.518
		c0.062-0.067,0.182-0.164,0.357-0.294c0.177-0.128,0.354-0.249,0.538-0.365c0.215-0.148,0.429-0.299,0.643-0.447
		c-0.03-0.115-0.073-0.224-0.128-0.324c-0.035-0.096-0.078-0.188-0.125-0.276c-0.048-0.089-0.086-0.158-0.113-0.209
		c-0.15-0.278-0.252-0.53-0.303-0.759c-0.049-0.227,0.102-0.5,0.452-0.822c0.084,0.004,0.202,0.034,0.354,0.09
		c0.153,0.057,0.314,0.12,0.485,0.19c0.171,0.072,0.343,0.155,0.516,0.248c0.175,0.095,0.323,0.181,0.45,0.261
		c2.188,1.433,3.537,3.404,4.049,5.912c0.501,2.398-0.17,4.526-2.015,6.381c-0.54,0.54-1.146,0.861-1.812,0.961
		c-0.668,0.1-1.306,0.081-1.912-0.055c-0.608-0.138-1.142-0.327-1.6-0.569S138.84,279.891,138.693,279.74z M140.193,275.311
		c-0.055,0.26-0.065,0.528-0.028,0.804c0.035,0.275,0.111,0.537,0.228,0.784c0.119,0.248,0.277,0.469,0.474,0.666
		c0.195,0.196,0.432,0.335,0.705,0.415c0.272,0.081,0.556,0.08,0.846-0.005c0.29-0.084,0.535-0.245,0.732-0.483
		c0.549-0.71,0.871-1.404,0.967-2.088c0.095-0.684,0.084-1.286-0.037-1.812c-0.138-0.613-0.377-1.204-0.718-1.772
		c-0.495,0.235-0.948,0.516-1.362,0.84c-0.365,0.295-0.722,0.657-1.071,1.084C140.579,274.172,140.333,274.694,140.193,275.311z"/>
	<path fill="none" stroke="#27FFDA" stroke-miterlimit="10" d="M363.298,178.526c-0.586-0.533-1.011-1.138-1.279-1.811
		c-0.27-0.675-0.397-1.393-0.385-2.152c0.007-0.954,0.257-1.905,0.748-2.854c0.493-0.948,1.155-1.787,1.987-2.518
		c0.062-0.067,0.181-0.164,0.357-0.294c0.177-0.128,0.354-0.249,0.538-0.365c0.215-0.148,0.429-0.299,0.643-0.447
		c-0.03-0.115-0.072-0.224-0.127-0.324c-0.036-0.096-0.078-0.188-0.125-0.276c-0.049-0.089-0.088-0.158-0.114-0.209
		c-0.15-0.278-0.252-0.53-0.302-0.759c-0.05-0.227,0.101-0.5,0.451-0.822c0.084,0.004,0.202,0.034,0.354,0.09
		c0.154,0.057,0.315,0.12,0.486,0.19c0.17,0.072,0.343,0.155,0.516,0.248c0.175,0.095,0.323,0.181,0.449,0.261
		c2.188,1.433,3.539,3.404,4.049,5.912c0.502,2.398-0.169,4.526-2.014,6.381c-0.54,0.54-1.146,0.861-1.813,0.961
		c-0.668,0.1-1.305,0.081-1.911-0.055c-0.608-0.138-1.142-0.327-1.6-0.569S363.444,178.677,363.298,178.526z M364.798,174.097
		c-0.055,0.26-0.064,0.528-0.027,0.804c0.034,0.275,0.109,0.537,0.227,0.784c0.119,0.248,0.277,0.469,0.474,0.666
		c0.196,0.196,0.432,0.335,0.705,0.415c0.272,0.081,0.556,0.08,0.847-0.005c0.289-0.084,0.534-0.245,0.731-0.483
		c0.549-0.71,0.871-1.404,0.968-2.088c0.094-0.684,0.083-1.286-0.039-1.812c-0.137-0.613-0.376-1.204-0.717-1.772
		c-0.495,0.235-0.949,0.516-1.361,0.84c-0.365,0.295-0.723,0.657-1.072,1.084C365.183,172.958,364.938,173.48,364.798,174.097z"/>
	<path fill="none" stroke="#27FFDA" stroke-miterlimit="10" d="M128.264,240.127c-2.223-0.737-4.101-1.857-5.63-3.353
		c-1.535-1.499-2.742-3.284-3.619-5.351c-1.126-2.582-1.594-5.448-1.403-8.599s0.97-6.209,2.341-9.182
		c0.087-0.254,0.293-0.66,0.613-1.221c0.323-0.558,0.659-1.1,1.014-1.633c0.398-0.657,0.798-1.319,1.197-1.977
		c-0.217-0.276-0.463-0.516-0.733-0.724c-0.21-0.215-0.433-0.412-0.667-0.596c-0.237-0.183-0.426-0.322-0.559-0.429
		c-0.742-0.569-1.318-1.128-1.725-1.684c-0.406-0.552-0.329-1.472,0.23-2.761c0.229-0.092,0.585-0.15,1.065-0.186
		c0.482-0.03,0.995-0.052,1.54-0.066c0.547-0.01,1.107,0.007,1.69,0.05c0.581,0.047,1.088,0.1,1.524,0.166
		c7.623,1.24,13.633,4.942,18.025,11.097c4.23,5.875,4.97,12.424,2.218,19.643c-0.813,2.107-2.062,3.701-3.741,4.77
		c-1.68,1.069-3.423,1.785-5.224,2.146c-1.806,0.356-3.474,0.485-5.002,0.382S128.836,240.355,128.264,240.127z M126.995,226.367
		c0.164,0.77,0.458,1.505,0.885,2.206c0.425,0.702,0.946,1.316,1.559,1.842c0.616,0.528,1.309,0.935,2.078,1.229
		c0.764,0.295,1.566,0.387,2.398,0.277c0.834-0.11,1.597-0.453,2.277-1.028c0.683-0.576,1.15-1.305,1.396-2.186
		c0.633-2.573,0.671-4.835,0.108-6.796c-0.563-1.96-1.318-3.573-2.275-4.843c-1.107-1.493-2.461-2.802-4.066-3.925
		c-1.053,1.229-1.939,2.528-2.67,3.9c-0.628,1.235-1.154,2.64-1.588,4.211C126.667,222.832,126.632,224.537,126.995,226.367z"/>
	<path fill="none" stroke="#27FFDA" stroke-miterlimit="10" d="M312.085,378.511c-2.221-0.737-4.099-1.857-5.63-3.353
		c-1.534-1.498-2.741-3.283-3.618-5.35c-1.127-2.582-1.594-5.448-1.404-8.599c0.192-3.15,0.973-6.209,2.343-9.182
		c0.086-0.254,0.292-0.66,0.613-1.222c0.322-0.557,0.658-1.099,1.011-1.632c0.4-0.657,0.799-1.319,1.199-1.978
		c-0.217-0.275-0.462-0.516-0.732-0.723c-0.209-0.215-0.435-0.412-0.668-0.596c-0.238-0.183-0.427-0.323-0.56-0.429
		c-0.741-0.569-1.318-1.128-1.724-1.684c-0.406-0.552-0.329-1.473,0.229-2.761c0.231-0.092,0.585-0.15,1.067-0.186
		c0.481-0.03,0.993-0.053,1.539-0.066c0.547-0.01,1.108,0.007,1.69,0.049c0.582,0.047,1.089,0.101,1.524,0.166
		c7.624,1.241,13.633,4.943,18.026,11.098c4.23,5.875,4.97,12.424,2.217,19.642c-0.813,2.108-2.062,3.702-3.74,4.771
		c-1.68,1.069-3.423,1.784-5.224,2.146c-1.807,0.356-3.474,0.485-5.003,0.382C313.714,378.902,312.659,378.74,312.085,378.511z
		 M310.817,364.752c0.164,0.77,0.459,1.505,0.883,2.206c0.428,0.701,0.948,1.316,1.561,1.841c0.618,0.528,1.31,0.936,2.077,1.23
		c0.763,0.295,1.567,0.387,2.401,0.277c0.834-0.11,1.594-0.453,2.277-1.029c0.682-0.575,1.148-1.304,1.396-2.185
		c0.629-2.574,0.669-4.836,0.106-6.796s-1.319-3.573-2.276-4.844c-1.106-1.493-2.461-2.801-4.065-3.924
		c-1.053,1.229-1.941,2.528-2.672,3.9c-0.626,1.235-1.155,2.639-1.586,4.211C310.489,361.217,310.453,362.922,310.817,364.752z"/>
	<path fill="none" stroke="#27FFDA" stroke-miterlimit="10" d="M430.966,347.205c0.223,0.352,0.463,0.693,0.723,1.024
		c0.258,0.332,0.414,0.679,0.472,1.041c0.227,1.229,0.216,2.424-0.036,3.583c-0.25,1.158-0.758,2.236-1.521,3.233
		c-0.77,1.017-1.686,1.684-2.746,2.002c-1.063,0.316-2.205,0.407-3.429,0.27c-1.124-0.129-2.194-0.419-3.212-0.873
		c-1.018-0.453-1.971-1.037-2.861-1.748c-0.4-0.302-0.732-0.695-0.996-1.182c-0.264-0.484-0.465-1.013-0.602-1.584
		c-0.137-0.57-0.195-1.153-0.172-1.747c0.023-0.595,0.133-1.158,0.332-1.69c0.286-0.833,0.686-1.581,1.199-2.244
		c0.512-0.665,1.117-1.249,1.816-1.756c0.29-0.221,0.605-0.376,0.949-0.469s0.763-0.045,1.258,0.143
		c-0.176,0.315-0.348,0.621-0.516,0.917c-0.17,0.297-0.329,0.596-0.479,0.898c-0.262,0.534-0.529,1.066-0.809,1.596
		c-0.279,0.528-0.512,1.071-0.696,1.628c-0.226,0.626-0.252,1.215-0.079,1.766c0.175,0.552,0.521,1.046,1.044,1.485
		c1.37,1.16,2.972,1.776,4.805,1.85c0.966,0.04,1.721-0.134,2.265-0.523c0.543-0.39,0.937-1.068,1.182-2.035
		c0.109-0.437,0.176-0.886,0.2-1.348c0.024-0.461,0.034-0.927,0.031-1.397c0.008-0.303,0.033-0.596,0.075-0.879
		c0.044-0.282,0.127-0.548,0.252-0.798c0.124-0.248,0.307-0.469,0.548-0.663C430.204,347.511,430.538,347.344,430.966,347.205z
		 M426.021,342.626c-0.487-0.145-0.835-0.38-1.044-0.706c-0.209-0.327-0.25-0.706-0.123-1.137c0.066-0.226,0.176-0.438,0.326-0.639
		c0.152-0.2,0.313-0.365,0.484-0.499c0.172-0.133,0.355-0.22,0.551-0.264c0.197-0.045,0.381-0.042,0.549,0.008
		c0.225,0.067,0.439,0.202,0.646,0.405c0.204,0.203,0.374,0.422,0.507,0.655c0.136,0.233,0.231,0.48,0.287,0.741
		c0.056,0.262,0.043,0.491-0.035,0.692c-0.113,0.313-0.393,0.547-0.836,0.701C426.891,342.74,426.453,342.753,426.021,342.626z"/>
	<path fill="none" stroke="#27FFDA" stroke-miterlimit="10" d="M163.402,305.878c1.383,0.699,2.633,0.874,3.753,0.523
		c1.115-0.353,2.149-1.05,3.099-2.091c1.648-1.709,2.89-3.569,3.726-5.581c0.834-2.013,1.154-4.252,0.958-6.721
		c-0.197-1.953-0.532-3.832-1.009-5.637c-0.477-1.803-1.18-3.601-2.108-5.392c-1.312-2.476-2.687-4.877-4.122-7.208
		c-1.432-2.33-2.976-4.608-4.631-6.834c-0.94-1.308-1.959-2.556-3.053-3.744c-1.095-1.187-2.227-2.313-3.389-3.377
		c-0.662-0.578-1.109-1.121-1.344-1.627c-0.236-0.508-0.107-1.153,0.385-1.939c0.416-0.677,0.992-1.116,1.729-1.322
		c0.736-0.203,1.508-0.082,2.316,0.359c0.54,0.27,1.037,0.606,1.488,1.007c0.455,0.403,0.902,0.815,1.346,1.242
		c1.606,1.49,3.314,3.443,5.123,5.868c1.811,2.426,3.531,5.013,5.169,7.761c1.639,2.75,3.093,5.497,4.372,8.245
		c1.277,2.748,2.201,5.166,2.766,7.256c0.146,0.38,0.277,1.026,0.391,1.936c0.111,0.912,0.199,1.941,0.266,3.09
		c0.064,1.146,0.051,2.325-0.039,3.533c-0.094,1.21-0.269,2.3-0.529,3.277c-0.918,2.978-2.24,5.613-3.96,7.908
		c-1.72,2.293-4.091,4.06-7.11,5.305c-0.888,0.382-1.813,0.551-2.788,0.507c-0.972-0.044-1.932-0.24-2.88-0.589
		c-0.95-0.35-1.859-0.824-2.725-1.425c-0.869-0.602-1.602-1.261-2.198-1.986c-0.374-0.452-0.788-0.988-1.247-1.608
		c-0.457-0.619-0.861-1.228-1.211-1.829c-0.351-0.602-0.619-1.143-0.806-1.627c-0.188-0.486-0.204-0.836-0.051-1.055
		c0.44-0.406,0.872-0.603,1.296-0.588c0.423,0.015,0.824,0.13,1.204,0.34c0.38,0.213,0.755,0.486,1.121,0.82
		c0.37,0.335,0.717,0.619,1.045,0.852c0.17,0.132,0.416,0.307,0.738,0.52c0.319,0.214,0.657,0.443,1.009,0.686
		c0.35,0.242,0.695,0.466,1.035,0.675C162.873,305.614,163.161,305.771,163.402,305.878z"/>
	<path fill="none" stroke="#27FFDA" stroke-miterlimit="10" d="M268.267,347.907c0.504,0.185,0.961,0.351,1.37,0.5
		c0.407,0.149,0.794,0.312,1.157,0.489c0.984,0.544,1.973,0.837,2.966,0.882c0.992,0.046,1.961-0.163,2.903-0.625
		c2.121-1.03,4.044-2.262,5.769-3.692c1.724-1.432,3.156-3.211,4.298-5.335c0.94-1.753,1.36-3.494,1.264-5.222
		c-0.098-1.728-0.51-3.444-1.229-5.149c-0.481-1.074-1.037-2.093-1.672-3.059c-0.634-0.967-1.285-1.94-1.951-2.922
		c-0.392-0.58-0.625-1.141-0.701-1.68c-0.073-0.537,0.054-1.125,0.386-1.762c0.252-0.471,0.536-0.845,0.854-1.118
		c0.318-0.275,0.653-0.444,1.001-0.511c0.352-0.063,0.694-0.002,1.034,0.184c0.34,0.187,0.649,0.492,0.934,0.918
		c0.7,1.161,1.38,2.333,2.031,3.512c0.653,1.18,1.23,2.384,1.737,3.614c0.505,1.231,0.916,2.492,1.235,3.787
		c0.32,1.292,0.5,2.635,0.535,4.024c0.049,1.745-0.212,3.39-0.782,4.934c-0.572,1.545-1.373,3.017-2.406,4.417
		c-1.65,2.245-3.504,4.181-5.56,5.809c-2.056,1.627-4.423,2.872-7.097,3.736c-1.165,0.372-2.321,0.534-3.465,0.486
		c-1.145-0.047-2.271-0.525-3.383-1.438c-0.755-0.594-1.266-1.305-1.537-2.135C267.687,349.725,267.789,348.841,268.267,347.907z
		 M276.218,332.466c0.166,0.164,0.313,0.327,0.438,0.489c0.122,0.165,0.277,0.312,0.459,0.441c0.456,0.366,0.774,0.752,0.956,1.158
		c0.179,0.405,0.259,0.812,0.232,1.221c-0.025,0.407-0.125,0.819-0.298,1.236c-0.174,0.417-0.391,0.809-0.65,1.173
		c-0.396,0.604-0.91,1.075-1.537,1.414c-0.626,0.34-1.296,0.604-2,0.791c-0.96,0.246-1.703-0.035-2.229-0.846
		c-0.292-0.449-0.356-0.86-0.195-1.233c0.162-0.371,0.421-0.714,0.781-1.031c0.188-0.173,0.387-0.331,0.602-0.474
		c0.211-0.142,0.456-0.329,0.736-0.563c-0.261-0.27-0.497-0.504-0.718-0.704c-0.22-0.199-0.438-0.412-0.653-0.643
		c-0.524-0.563-0.853-1.199-0.985-1.91c-0.137-0.711-0.105-1.402,0.092-2.076c0.194-0.672,0.537-1.272,1.033-1.798
		c0.491-0.528,1.108-0.876,1.85-1.048c0.509-0.12,0.969-0.078,1.383,0.123c0.414,0.203,0.781,0.454,1.104,0.756
		c0.606,0.563,0.688,1.278,0.244,2.146c-0.121,0.206-0.229,0.422-0.317,0.645C276.455,331.957,276.347,332.201,276.218,332.466z"/>
	<path fill="none" stroke="#27FFDA" stroke-miterlimit="10" d="M304.219,255.799c0.121,0.59,0.079,1.112-0.131,1.57
		c-0.21,0.459-0.445,0.914-0.706,1.368c-0.523,0.907-1.026,1.815-1.506,2.725c-0.482,0.908-0.955,1.825-1.419,2.749
		c-0.12,0.263-0.206,0.551-0.257,0.864c-0.051,0.315-0.077,0.62-0.079,0.916c-0.022,0.652,0.281,1.135,0.911,1.448
		c0.575,0.276,1.259,0.479,2.05,0.606s1.61,0.173,2.46,0.138c0.85-0.036,1.686-0.149,2.506-0.342
		c0.821-0.192,1.542-0.474,2.159-0.843c-0.599-0.197-1.015-0.512-1.25-0.943c-0.232-0.429-0.38-0.898-0.444-1.405
		c-0.099-1.026-0.004-1.991,0.283-2.895c0.287-0.902,0.786-1.727,1.496-2.473c1.144-1.212,2.315-1.26,3.513-0.14
		c0.732,0.684,1.27,1.399,1.612,2.148c0.339,0.749,0.521,1.503,0.54,2.263c0.02,0.759-0.11,1.507-0.392,2.241
		s-0.674,1.421-1.182,2.057c-0.668,0.821-1.424,1.495-2.27,2.021c-0.848,0.525-1.764,0.917-2.754,1.176
		c-1.571,0.428-3.132,0.646-4.684,0.654c-1.554,0.008-3.115-0.242-4.684-0.748c-0.951-0.303-1.668-0.77-2.151-1.401
		c-0.482-0.631-0.743-1.418-0.78-2.365c-0.027-0.56-0.012-1.133,0.046-1.721c0.058-0.589,0.186-1.15,0.387-1.686
		c0.468-1.369,1.061-2.659,1.782-3.87c0.717-1.211,1.62-2.324,2.705-3.341c0.294-0.273,0.604-0.512,0.93-0.712
		C303.236,255.658,303.67,255.637,304.219,255.799z M315.429,250.099c0.359,0.148,0.645,0.339,0.852,0.57s0.32,0.53,0.339,0.896
		c0.038,0.373-0.055,0.671-0.279,0.891c-0.224,0.221-0.507,0.365-0.845,0.435c-0.358,0.064-0.771,0.134-1.241,0.207
		c-0.466,0.074-0.941,0.151-1.421,0.232c-0.482,0.081-0.953,0.153-1.419,0.218c-0.464,0.064-0.877,0.097-1.237,0.095
		c-0.491,0.005-0.857-0.119-1.102-0.373c-0.244-0.252-0.386-0.564-0.423-0.937c-0.059-0.379,0.03-0.75,0.265-1.116
		c0.235-0.365,0.573-0.568,1.01-0.609c0.372-0.038,0.796-0.089,1.271-0.15c0.474-0.062,0.962-0.113,1.463-0.156
		c0.501-0.044,0.991-0.083,1.47-0.123C314.609,250.138,315.043,250.111,315.429,250.099z M312.289,265.13
		c0.174-0.586,0.299-1.043,0.374-1.371c0.076-0.327,0.096-0.608,0.06-0.843c-0.038-0.233-0.133-0.453-0.284-0.657
		c-0.151-0.203-0.379-0.479-0.681-0.822c-0.19,0.348-0.325,0.632-0.411,0.851s-0.11,0.444-0.073,0.679
		c0.036,0.234,0.136,0.513,0.294,0.836C311.727,264.125,311.968,264.568,312.289,265.13z"/>
	<path fill="none" stroke="#27FFDA" stroke-miterlimit="10" d="M74.355,232.428c0.491,0.514,0.774,1.063,0.851,1.651
		c0.078,0.591,0.127,1.192,0.15,1.811c0.043,1.234,0.109,2.456,0.197,3.665c0.087,1.209,0.188,2.422,0.302,3.635
		c0.044,0.339,0.139,0.68,0.285,1.024c0.146,0.347,0.31,0.668,0.493,0.966c0.385,0.666,0.989,0.959,1.814,0.878
		c0.75-0.083,1.559-0.309,2.429-0.676c0.872-0.366,1.719-0.834,2.546-1.4c0.826-0.567,1.59-1.203,2.291-1.908
		c0.703-0.706,1.245-1.438,1.633-2.193c-0.724,0.178-1.337,0.123-1.84-0.161c-0.502-0.283-0.942-0.659-1.324-1.127
		c-0.741-0.964-1.25-1.988-1.525-3.071c-0.277-1.082-0.295-2.218-0.053-3.406c0.386-1.928,1.527-2.707,3.426-2.337
		c1.159,0.225,2.145,0.605,2.953,1.14c0.81,0.536,1.463,1.177,1.957,1.924s0.832,1.576,1.01,2.485
		c0.177,0.91,0.213,1.843,0.105,2.795c-0.154,1.238-0.49,2.386-1.006,3.439c-0.518,1.054-1.19,2.02-2.018,2.897
		c-1.303,1.41-2.729,2.604-4.273,3.583c-1.547,0.979-3.267,1.706-5.15,2.182c-1.141,0.292-2.149,0.273-3.027-0.056
		c-0.876-0.329-1.629-0.954-2.26-1.876c-0.375-0.544-0.719-1.126-1.03-1.75c-0.31-0.624-0.532-1.266-0.666-1.928
		c-0.388-1.661-0.602-3.322-0.64-4.982c-0.039-1.659,0.168-3.337,0.618-5.032c0.123-0.456,0.282-0.889,0.482-1.293
		C73.284,232.902,73.706,232.608,74.355,232.428z M81.997,219.721c0.453-0.077,0.855-0.064,1.207,0.037
		c0.354,0.102,0.652,0.329,0.9,0.684c0.271,0.349,0.365,0.703,0.277,1.064c-0.086,0.36-0.277,0.681-0.573,0.963
		c-0.318,0.288-0.687,0.616-1.108,0.982c-0.423,0.365-0.85,0.74-1.277,1.121c-0.431,0.382-0.857,0.75-1.282,1.104
		c-0.425,0.355-0.816,0.646-1.179,0.87c-0.487,0.312-0.932,0.416-1.335,0.315c-0.4-0.1-0.736-0.324-1.007-0.672
		c-0.296-0.343-0.439-0.77-0.432-1.282c0.005-0.513,0.215-0.926,0.627-1.24c0.348-0.271,0.738-0.586,1.177-0.945
		c0.434-0.357,0.89-0.715,1.364-1.071c0.475-0.357,0.939-0.703,1.393-1.042C81.204,220.271,81.62,219.975,81.997,219.721z
		 M88.259,236.709c-0.193-0.693-0.354-1.229-0.483-1.604s-0.286-0.668-0.467-0.88c-0.186-0.209-0.416-0.37-0.696-0.479
		c-0.279-0.108-0.678-0.241-1.195-0.396c0.029,0.465,0.07,0.835,0.121,1.108c0.052,0.271,0.168,0.513,0.353,0.724
		c0.183,0.212,0.454,0.428,0.816,0.65C87.067,236.057,87.585,236.349,88.259,236.709z"/>
	<path fill="none" stroke="#27FFDA" stroke-miterlimit="10" d="M188.896,453.838c1.02,1.817,2.301,3.081,3.841,3.79
		c1.541,0.709,3.331,0.978,5.367,0.8c2.637-0.231,5.093-0.771,7.369-1.616c2.271-0.844,4.4-2.121,6.385-3.832
		c0.365-0.319,0.71-0.666,1.035-1.036c0.323-0.371,0.679-0.752,1.069-1.144c-0.262-0.31-0.473-0.578-0.639-0.802
		c-0.168-0.224-0.359-0.429-0.578-0.609c-0.479-0.49-0.912-0.969-1.297-1.435c-0.39-0.464-0.692-0.962-0.904-1.492
		c-0.213-0.53-0.323-1.107-0.332-1.733c-0.012-0.624,0.137-1.319,0.439-2.088c0.687-1.664,1.573-3.016,2.66-4.057
		c1.088-1.042,2.499-1.733,4.232-2.077c0.457-0.1,0.931-0.055,1.422,0.128c0.489,0.185,0.943,0.464,1.358,0.84
		s0.762,0.838,1.045,1.39c0.286,0.552,0.492,1.138,0.621,1.76c0.442,2.581,0.383,4.985-0.179,7.215
		c-0.561,2.227-1.775,4.329-3.645,6.307c-1.708,1.829-3.588,3.383-5.641,4.664c-2.054,1.281-4.282,2.247-6.693,2.896l-6.476,1.762
		c-1.497,0.452-2.984,0.578-4.46,0.374c-1.478-0.202-2.938-0.558-4.385-1.062c-1.135-0.375-2.121-0.949-2.963-1.724
		c-0.843-0.774-1.533-1.631-2.072-2.566c-0.542-0.939-0.925-1.938-1.157-2.999c-0.23-1.062-0.315-2.087-0.255-3.081
		c0.277-3.576,1.124-6.896,2.535-9.962c1.414-3.065,3.21-5.988,5.395-8.768c0.146-0.229,0.332-0.428,0.555-0.594
		c0.224-0.169,0.452-0.315,0.686-0.439c0.97-0.647,1.881-0.574,2.735,0.226c0.489,0.456,0.682,0.912,0.588,1.37
		c-0.099,0.456-0.292,0.914-0.583,1.372c-0.775,1.174-1.554,2.324-2.334,3.456c-0.781,1.132-1.494,2.32-2.137,3.57
		c-0.455,0.879-0.882,1.833-1.282,2.86c-0.403,1.03-0.735,2.052-0.993,3.063c-0.262,1.014-0.43,1.976-0.503,2.886
		C188.649,452.363,188.707,453.159,188.896,453.838z M221.676,427.863c-0.74-0.256-1.336-0.718-1.783-1.373
		c-0.446-0.657-0.599-1.297-0.453-1.916c0.106-0.357,0.331-0.729,0.677-1.112c0.35-0.383,0.75-0.722,1.207-1.015
		s0.908-0.51,1.359-0.648c0.449-0.139,0.816-0.168,1.103-0.083c0.849,0.29,1.444,0.875,1.789,1.754
		c0.341,0.88,0.341,1.775-0.007,2.684c-0.121,0.275-0.334,0.535-0.637,0.775c-0.305,0.24-0.65,0.45-1.033,0.627
		c-0.383,0.18-0.77,0.298-1.157,0.36C222.354,427.976,221.999,427.958,221.676,427.863z M216.726,442.044
		c-0.62,0.244-1.089,0.62-1.414,1.129c-0.324,0.507-0.475,0.978-0.447,1.413c0.002,0.119,0.138,0.354,0.402,0.706
		c0.268,0.351,0.44,0.518,0.525,0.503c0.406-0.191,0.828-0.404,1.27-0.646c0.44-0.239,0.73-0.531,0.874-0.88
		c0.083-0.284,0.004-0.678-0.235-1.179C217.459,442.591,217.134,442.243,216.726,442.044z"/>
	<path fill="none" stroke="#27FFDA" stroke-miterlimit="10" d="M201.52,259.413c0.205,0.178,0.354,0.337,0.453,0.479
		c0.098,0.142,0.144,0.281,0.144,0.418s-0.046,0.282-0.139,0.438c-0.091,0.155-0.229,0.331-0.407,0.525
		c-0.608,0.656-0.985,1.36-1.133,2.115c-0.148,0.754-0.138,1.545,0.028,2.374c0.063,0.283,0.155,0.567,0.281,0.853
		c0.125,0.284,0.287,0.538,0.484,0.761c0.102,0.124,0.234,0.244,0.4,0.36s0.355,0.206,0.568,0.271
		c0.217,0.064,0.455,0.088,0.717,0.069c0.266-0.019,0.549-0.107,0.85-0.268c0.304-0.16,0.625-0.402,0.965-0.727
		c0.342-0.323,0.695-0.761,1.066-1.313c0.131-0.007,0.234,0.06,0.313,0.198c0.078,0.138,0.106,0.312,0.08,0.521
		c-0.051,0.355-0.175,0.69-0.372,1.005c-0.198,0.313-0.431,0.596-0.703,0.844c-0.271,0.25-0.562,0.461-0.867,0.636
		c-0.31,0.175-0.6,0.297-0.871,0.366c-0.456,0.115-0.896,0.14-1.328,0.072c-0.431-0.066-0.834-0.232-1.207-0.498
		c-0.311-0.22-0.576-0.466-0.795-0.735c-0.217-0.271-0.4-0.559-0.549-0.864c-0.148-0.305-0.266-0.627-0.356-0.965
		c-0.09-0.338-0.159-0.686-0.204-1.043c-0.081-0.56-0.083-1.106-0.008-1.641s0.213-1.068,0.412-1.602
		c-0.418-0.018-0.76-0.12-1.022-0.309c-0.262-0.188-0.465-0.417-0.6-0.686c-0.142-0.269-0.222-0.554-0.245-0.855
		c-0.025-0.302-0.003-0.579,0.065-0.834c0.164-0.666,0.445-1.243,0.841-1.73c0.395-0.487,0.938-0.841,1.631-1.061
		c0.252-0.081,0.489-0.076,0.717,0.017c0.226,0.092,0.39,0.253,0.491,0.481c0.082,0.183,0.084,0.345,0.011,0.486
		s-0.213,0.208-0.418,0.198c-0.152-0.015-0.33,0.018-0.529,0.095c-0.201,0.077-0.396,0.187-0.59,0.327
		c-0.193,0.142-0.366,0.309-0.52,0.502c-0.153,0.192-0.26,0.394-0.324,0.603c-0.06,0.209-0.063,0.419-0.011,0.63
		c0.055,0.211,0.192,0.406,0.413,0.588c0.183,0.095,0.375,0.141,0.576,0.138c0.203-0.003,0.363-0.077,0.484-0.222
		c0.081-0.1,0.161-0.201,0.241-0.305c0.077-0.104,0.166-0.203,0.261-0.298s0.199-0.178,0.312-0.25
		C201.24,259.506,201.372,259.45,201.52,259.413z M199.34,254.2c0.108,0.491-0.044,0.79-0.458,0.895
		c-0.243,0.053-0.473-0.01-0.694-0.188c-0.22-0.177-0.364-0.419-0.435-0.728c-0.088-0.382,0.066-0.623,0.463-0.724
		c0.264-0.066,0.502-0.029,0.715,0.115C199.144,253.715,199.28,253.925,199.34,254.2z"/>
	<path fill="none" stroke="#27FFDA" stroke-miterlimit="10" d="M179.599,6.489c0.206,0.178,0.354,0.337,0.454,0.479
		c0.097,0.142,0.146,0.281,0.146,0.418c-0.002,0.137-0.049,0.282-0.141,0.438s-0.229,0.331-0.408,0.525
		c-0.607,0.656-0.984,1.36-1.133,2.115c-0.147,0.754-0.137,1.545,0.029,2.374c0.063,0.283,0.154,0.567,0.281,0.853
		c0.125,0.284,0.287,0.538,0.484,0.761c0.102,0.124,0.234,0.244,0.4,0.36s0.355,0.206,0.57,0.271s0.453,0.088,0.716,0.069
		c0.265-0.019,0.548-0.107,0.85-0.268s0.624-0.402,0.965-0.727c0.34-0.323,0.694-0.761,1.065-1.313
		c0.132-0.007,0.234,0.06,0.313,0.198c0.078,0.138,0.106,0.312,0.08,0.521c-0.051,0.355-0.175,0.69-0.372,1.005
		c-0.199,0.313-0.431,0.596-0.703,0.844c-0.271,0.25-0.563,0.461-0.867,0.636c-0.31,0.175-0.6,0.297-0.871,0.366
		c-0.456,0.115-0.896,0.14-1.328,0.072c-0.432-0.066-0.834-0.232-1.207-0.498c-0.312-0.22-0.576-0.466-0.795-0.735
		c-0.217-0.271-0.4-0.559-0.549-0.864c-0.147-0.305-0.266-0.627-0.356-0.965s-0.159-0.686-0.204-1.043
		c-0.081-0.56-0.083-1.106-0.008-1.641s0.213-1.068,0.412-1.602c-0.418-0.018-0.76-0.12-1.023-0.309
		c-0.261-0.188-0.464-0.417-0.6-0.686c-0.14-0.269-0.221-0.554-0.244-0.855s-0.003-0.579,0.065-0.834
		c0.164-0.666,0.444-1.243,0.841-1.73c0.395-0.487,0.938-0.841,1.632-1.061c0.251-0.081,0.488-0.076,0.716,0.017
		c0.226,0.092,0.389,0.253,0.49,0.481c0.082,0.183,0.084,0.345,0.012,0.486s-0.213,0.208-0.417,0.198
		c-0.153-0.015-0.33,0.018-0.53,0.095c-0.201,0.077-0.396,0.187-0.59,0.327c-0.193,0.142-0.366,0.309-0.52,0.502
		c-0.154,0.192-0.26,0.394-0.323,0.603c-0.061,0.209-0.065,0.419-0.012,0.63c0.055,0.211,0.192,0.406,0.413,0.588
		c0.183,0.095,0.375,0.141,0.576,0.138c0.202-0.003,0.363-0.077,0.484-0.222c0.081-0.1,0.161-0.201,0.24-0.305
		c0.078-0.104,0.166-0.203,0.262-0.298c0.095-0.095,0.199-0.178,0.312-0.25C179.32,6.582,179.452,6.526,179.599,6.489z
		 M177.42,1.276c0.108,0.491-0.044,0.79-0.458,0.895c-0.243,0.053-0.473-0.01-0.695-0.188c-0.219-0.177-0.364-0.419-0.434-0.728
		c-0.088-0.382,0.066-0.623,0.463-0.724c0.264-0.066,0.502-0.029,0.715,0.115C177.224,0.791,177.36,1.001,177.42,1.276z"/>
	<path fill="none" stroke="#27FFDA" stroke-miterlimit="10" d="M257.714,362.776c0.203,0.178,0.354,0.337,0.451,0.479
		c0.099,0.143,0.146,0.282,0.146,0.418c-0.001,0.137-0.047,0.283-0.14,0.438s-0.229,0.331-0.407,0.525
		c-0.609,0.655-0.986,1.36-1.133,2.114c-0.148,0.754-0.139,1.546,0.027,2.375c0.063,0.283,0.156,0.566,0.282,0.852
		c0.124,0.285,0.286,0.539,0.483,0.762c0.102,0.124,0.235,0.244,0.4,0.36c0.167,0.115,0.355,0.206,0.571,0.271
		c0.214,0.064,0.452,0.088,0.718,0.069c0.262-0.019,0.545-0.108,0.848-0.269s0.623-0.402,0.964-0.726
		c0.339-0.324,0.694-0.762,1.064-1.313c0.131-0.007,0.235,0.06,0.314,0.197s0.105,0.312,0.079,0.521
		c-0.051,0.356-0.174,0.69-0.371,1.005s-0.432,0.596-0.702,0.845c-0.273,0.249-0.562,0.461-0.869,0.636s-0.598,0.297-0.87,0.365
		c-0.455,0.116-0.896,0.14-1.327,0.073c-0.431-0.067-0.834-0.232-1.208-0.498c-0.312-0.221-0.576-0.466-0.794-0.736
		c-0.219-0.27-0.4-0.558-0.55-0.863c-0.146-0.306-0.266-0.627-0.356-0.965c-0.089-0.338-0.158-0.686-0.204-1.044
		c-0.079-0.56-0.084-1.106-0.007-1.64c0.075-0.535,0.212-1.068,0.411-1.603c-0.42-0.017-0.759-0.12-1.021-0.309
		c-0.264-0.188-0.465-0.416-0.602-0.685c-0.14-0.269-0.221-0.554-0.244-0.855s-0.002-0.58,0.064-0.835
		c0.166-0.666,0.447-1.242,0.843-1.73c0.396-0.486,0.938-0.84,1.629-1.06c0.253-0.081,0.493-0.076,0.717,0.016
		c0.228,0.093,0.392,0.254,0.493,0.482c0.08,0.182,0.084,0.344,0.011,0.485c-0.075,0.143-0.214,0.208-0.418,0.198
		c-0.153-0.014-0.328,0.018-0.53,0.096c-0.2,0.077-0.396,0.186-0.589,0.327s-0.367,0.309-0.521,0.501
		c-0.152,0.193-0.26,0.394-0.322,0.603s-0.064,0.419-0.012,0.63c0.054,0.211,0.191,0.407,0.414,0.588
		c0.182,0.095,0.372,0.141,0.573,0.139c0.204-0.003,0.365-0.077,0.486-0.223c0.08-0.1,0.159-0.201,0.239-0.305
		c0.079-0.104,0.168-0.203,0.262-0.297c0.094-0.095,0.199-0.178,0.312-0.251C257.435,362.869,257.565,362.814,257.714,362.776z
		 M255.534,357.563c0.107,0.492-0.045,0.79-0.458,0.896c-0.243,0.052-0.474-0.01-0.694-0.188c-0.221-0.177-0.365-0.419-0.436-0.728
		c-0.088-0.382,0.066-0.623,0.463-0.724c0.265-0.067,0.502-0.029,0.716,0.115C255.337,357.079,255.473,357.288,255.534,357.563z"/>
	<path fill="none" stroke="#27FFDA" stroke-miterlimit="10" d="M344.614,289.184c-0.741-1.418-1.449-2.77-2.117-4.05
		c-0.669-1.28-1.248-2.557-1.732-3.826c-0.521-1.405-0.585-2.746-0.191-4.023c0.393-1.277,1.162-2.309,2.303-3.098
		c0.511-0.354,1.062-0.653,1.661-0.899c0.597-0.243,1.216-0.391,1.854-0.441c2.191-0.105,4.212,0.223,6.057,0.983
		c1.847,0.761,3.558,1.919,5.134,3.478c0.266,0.266,0.503,0.566,0.711,0.896c0.208,0.33,0.399,0.678,0.568,1.042
		c0.306,0.595,0.35,1.127,0.138,1.593c-0.21,0.468-0.574,0.878-1.082,1.232c-0.491,0.325-0.995,0.474-1.512,0.441
		c-0.515-0.031-0.961-0.346-1.338-0.945c-0.688-1.118-1.562-1.966-2.619-2.539c-1.06-0.574-2.217-0.994-3.471-1.261
		c-0.231-0.059-0.472-0.109-0.711-0.154c-0.241-0.044-0.486-0.044-0.743,0c-0.668,0.033-1.176,0.226-1.53,0.574
		c-0.352,0.347-0.445,0.836-0.275,1.469c0.375,1.396,0.939,2.73,1.688,4c0.442,0.752,0.939,1.439,1.494,2.063
		c0.554,0.624,1.061,1.299,1.521,2.019c0.755,1.199,0.949,2.312,0.586,3.339c-0.364,1.027-1.234,1.771-2.606,2.237
		c-1.236,0.429-2.46,0.815-3.67,1.166c-1.211,0.348-2.436,0.736-3.673,1.164c-3.852,1.393-6.44,3.423-7.766,6.084
		c-1.328,2.66-1.36,5.936-0.102,9.823c0.978,2.924,2.343,5.523,4.098,7.792s4.104,4.025,7.044,5.266
		c0.733,0.31,1.122,0.778,1.156,1.408c0.036,0.631-0.287,1.169-0.961,1.616c-0.678,0.446-1.361,0.661-2.056,0.643
		c-0.694-0.021-1.414-0.208-2.16-0.562c-1.798-0.849-3.375-1.939-4.734-3.275c-1.361-1.34-2.623-2.78-3.787-4.328
		c-1.528-2.103-2.722-4.306-3.582-6.608c-0.859-2.306-1.282-4.787-1.27-7.446c0.018-2.541,0.518-4.841,1.498-6.903
		c0.979-2.06,2.568-3.771,4.763-5.133c1.182-0.727,2.405-1.363,3.671-1.906c1.268-0.546,2.539-1.099,3.812-1.655
		c0.624-0.289,1.27-0.516,1.936-0.684C343.284,289.607,343.948,289.409,344.614,289.184z"/>
	<path fill="none" stroke="#27FFDA" stroke-miterlimit="10" d="M334.924,234.52c0.718,0.151,1.356,0.424,1.909,0.817
		c0.558,0.395,1.103,0.792,1.64,1.195c0.539,0.403,1.095,0.765,1.671,1.089c0.577,0.323,1.234,0.473,1.976,0.447
		c0.49-0.833,0.969-1.653,1.436-2.462c0.469-0.807,0.936-1.632,1.396-2.472c0.086-0.188,0.184-0.542,0.29-1.06
		c0.108-0.518,0.163-0.883,0.165-1.098c0.061-0.409,0.134-0.967,0.221-1.675c0.086-0.706,0.193-1.508,0.32-2.4
		c0.128-0.895,0.274-1.827,0.44-2.802c0.163-0.973,0.357-1.933,0.573-2.876c0.22-0.942,0.448-1.821,0.688-2.635
		c0.24-0.816,0.521-1.51,0.847-2.087c0.88-0.503,1.604-0.777,2.167-0.824s0.966,0.117,1.204,0.493
		c0.239,0.377,0.344,0.934,0.309,1.672c-0.036,0.737-0.176,1.62-0.416,2.646c-0.195,1.074-0.421,2.143-0.677,3.213
		c-0.254,1.07-0.515,2.206-0.777,3.41c0.399-0.218,0.757-0.401,1.077-0.551c0.318-0.148,0.638-0.299,0.958-0.449
		c0.646-0.328,1.306-0.522,1.98-0.582s1.312,0.006,1.913,0.198c0.597,0.193,1.158,0.496,1.677,0.908
		c0.518,0.412,0.956,0.948,1.313,1.603c0.691,1.273,1.064,2.544,1.115,3.811c0.054,1.268-0.328,2.559-1.145,3.874
		c-1.36,2.225-3.057,3.859-5.091,4.907c-2.035,1.048-4.265,1.748-6.688,2.098c-0.609,0.096-1.214,0.153-1.815,0.174
		c-0.601,0.021-1.157,0.275-1.668,0.767c-0.126,0.114-0.345,0.157-0.657,0.125c-0.311-0.029-0.573-0.106-0.779-0.23
		c-0.827-0.397-1.639-0.812-2.427-1.243c-0.785-0.432-1.588-0.874-2.4-1.327c-0.681-0.386-1.285-0.784-1.819-1.203
		c-0.532-0.417-0.937-0.887-1.209-1.41s-0.402-1.12-0.388-1.787C334.267,236.127,334.49,235.369,334.924,234.52z M346.78,238.255
		c1.432-0.095,2.71-0.39,3.834-0.883c1.122-0.49,2.15-1.133,3.086-1.926c0.332-0.297,0.645-0.626,0.937-0.983
		c0.285-0.356,0.475-0.735,0.562-1.139c0.08-0.372,0.073-0.786-0.021-1.243c-0.095-0.455-0.272-0.812-0.53-1.073
		c-0.155-0.196-0.48-0.286-0.976-0.265c-0.494,0.021-0.873,0.116-1.135,0.283C349.998,232.688,348.079,235.098,346.78,238.255z
		 M361.798,217.825c-0.157,0.32-0.376,0.6-0.659,0.837c-0.284,0.237-0.602,0.425-0.947,0.567c-0.347,0.142-0.705,0.219-1.075,0.231
		c-0.371,0.013-0.717-0.059-1.037-0.216c-0.547-0.222-0.896-0.601-1.06-1.138c-0.164-0.535-0.12-1.119,0.128-1.749
		c0.135-0.355,0.33-0.681,0.584-0.971c0.255-0.291,0.532-0.53,0.83-0.718c0.299-0.185,0.613-0.313,0.939-0.386
		c0.325-0.071,0.613-0.055,0.854,0.047c0.631,0.248,1.091,0.733,1.378,1.461C362.023,216.519,362.043,217.197,361.798,217.825z"/>
	<path fill="none" stroke="#27FFDA" stroke-miterlimit="10" d="M81.941,437.791c0.724-0.124,1.416-0.107,2.079,0.054
		c0.659,0.161,1.315,0.328,1.963,0.505c0.648,0.176,1.301,0.306,1.955,0.394c0.653,0.088,1.321-0.017,2.001-0.314
		c0.147-0.955,0.289-1.894,0.425-2.818c0.138-0.922,0.264-1.861,0.382-2.812c0.011-0.207-0.03-0.572-0.119-1.093
		c-0.093-0.521-0.177-0.88-0.255-1.08c-0.096-0.402-0.232-0.948-0.414-1.638c-0.181-0.688-0.379-1.473-0.589-2.349
		c-0.212-0.879-0.423-1.799-0.628-2.766c-0.207-0.965-0.384-1.929-0.53-2.885c-0.146-0.957-0.257-1.858-0.334-2.703
		c-0.077-0.847-0.071-1.596,0.015-2.252c0.633-0.792,1.203-1.315,1.709-1.566c0.506-0.252,0.942-0.248,1.303,0.013
		c0.361,0.262,0.664,0.741,0.903,1.439c0.237,0.698,0.436,1.57,0.591,2.613c0.217,1.069,0.402,2.146,0.561,3.235
		s0.337,2.239,0.536,3.456c0.292-0.35,0.558-0.653,0.801-0.911c0.241-0.255,0.48-0.513,0.722-0.771
		c0.479-0.544,1.021-0.969,1.626-1.273c0.604-0.305,1.219-0.479,1.85-0.522c0.628-0.041,1.261,0.033,1.895,0.225
		s1.24,0.526,1.812,1.003c1.113,0.928,1.93,1.971,2.446,3.129c0.517,1.157,0.64,2.499,0.367,4.022
		c-0.44,2.57-1.413,4.716-2.917,6.441s-3.317,3.2-5.439,4.422c-0.528,0.314-1.069,0.591-1.621,0.833
		c-0.551,0.241-0.974,0.684-1.268,1.329c-0.074,0.152-0.262,0.272-0.564,0.358c-0.299,0.087-0.57,0.112-0.81,0.074
		c-0.915-0.064-1.819-0.149-2.713-0.259c-0.892-0.11-1.801-0.225-2.719-0.346c-0.778-0.107-1.487-0.254-2.138-0.445
		c-0.649-0.19-1.198-0.478-1.646-0.863c-0.446-0.387-0.787-0.893-1.021-1.518S81.853,438.741,81.941,437.791z M94.339,436.88
		c1.297-0.617,2.373-1.364,3.237-2.237c0.86-0.871,1.579-1.849,2.155-2.931c0.2-0.399,0.367-0.819,0.505-1.259
		c0.136-0.438,0.171-0.86,0.103-1.267c-0.063-0.376-0.223-0.758-0.479-1.147c-0.255-0.388-0.552-0.654-0.889-0.801
		c-0.218-0.126-0.551-0.089-1.003,0.113c-0.453,0.203-0.77,0.432-0.951,0.684C95.271,430.518,94.38,433.466,94.339,436.88z"/>
	<path fill="none" stroke="#27FFDA" stroke-miterlimit="10" d="M244.342,286.353c-0.053-0.805-0.021-1.653,0.102-2.547
		c0.122-0.895,0.297-1.766,0.536-2.613c0.238-0.848,0.518-1.621,0.84-2.324c0.319-0.704,0.664-1.282,1.034-1.74
		c0.486-0.578,1.055-0.965,1.701-1.161c0.646-0.192,1.217-0.203,1.719-0.026c0.5,0.175,0.829,0.528,0.997,1.063
		c0.165,0.53,0.029,1.245-0.406,2.146c-0.5,1.249-0.85,2.489-1.051,3.72c-0.19,1.047-0.237,2.188-0.15,3.422
		c0.088,1.233,0.446,2.377,1.076,3.427c0.594,1.027,1.295,1.842,2.098,2.44c0.804,0.599,1.615,1.019,2.435,1.267
		c0.818,0.243,1.617,0.345,2.392,0.297c0.776-0.046,1.434-0.196,1.974-0.455c4.723-2.266,7.29-5.734,7.703-10.411
		c0.068-0.924,0.18-1.665,0.345-2.221c0.159-0.557,0.418-0.97,0.773-1.243c0.352-0.272,0.857-0.43,1.513-0.478
		c0.654-0.043,1.538-0.025,2.646,0.054c0.309,0.618,0.516,1.307,0.619,2.069c0.103,0.759,0.115,1.527,0.043,2.305
		c-0.152,1.309-0.115,2.405,0.11,3.286c0.224,0.883,0.5,1.613,0.832,2.196c0.38,0.662,0.832,1.195,1.362,1.605
		c0.645-0.436,1.268-0.837,1.872-1.203c0.526-0.316,1.028-0.631,1.507-0.952c0.479-0.317,0.852-0.542,1.123-0.673
		c6.104-3.611,12.311-3.62,18.615-0.018l0.162,0.095c1.18,0.7,2.095,1.536,2.752,2.503c0.652,0.968,1.007,1.855,1.061,2.657
		c0.119,1.184-0.049,2.339-0.501,3.469c-0.455,1.129-1.356,2.26-2.701,3.39c-0.874,0.736-2.033,1.266-3.479,1.589
		c-1.447,0.326-2.946,0.533-4.498,0.624c-1.549,0.091-3.229-0.049-5.035-0.421c-1.805-0.374-3.508-0.793-5.112-1.265
		c-1.875-0.58-3.733-1.229-5.581-1.939c-1.06,1.542-2.033,2.896-2.918,4.062c-0.743,1.005-1.438,1.955-2.089,2.846
		c-0.651,0.894-1.026,1.381-1.123,1.468c-0.881,1.072-1.873,1.323-2.987,0.761c-1.037-0.615-1.365-1.605-0.986-2.973
		c0.232-0.877,0.61-1.715,1.133-2.514c0.468-0.785,0.918-1.506,1.356-2.162c0.396-0.588,0.786-1.187,1.177-1.8
		c0.389-0.614,0.744-1.114,1.07-1.499c0.596-0.758,0.85-1.475,0.771-2.15c-0.043-0.17-0.146-0.361-0.308-0.579
		c-0.162-0.216-0.346-0.435-0.551-0.655c-0.244-0.239-0.488-0.479-0.73-0.722c-0.317,0.293-0.626,0.568-0.924,0.827
		c-0.242,0.242-0.482,0.486-0.725,0.729c-0.238,0.242-0.449,0.431-0.626,0.568c-1.735,1.622-3.438,2.782-5.106,3.481
		c-1.672,0.696-3.257,1.071-4.757,1.121c-1.504,0.047-2.885-0.146-4.146-0.58c-1.262-0.438-2.336-0.965-3.221-1.588
		c-0.799-0.523-1.514-1.106-2.146-1.744c-0.633-0.645-1.208-1.382-1.726-2.22c-0.513-0.839-0.932-1.799-1.255-2.881
		C244.628,288.995,244.427,287.752,244.342,286.353z M294.293,292.206c-1.964-1.166-4.131-1.599-6.509-1.297
		c-2.374,0.305-4.59,1.29-6.646,2.965l-0.597,0.518l0.707,0.271c1.39,0.587,2.749,1.08,4.078,1.482
		c1.33,0.403,2.636,0.662,3.922,0.774c1.283,0.111,2.561,0.073,3.832-0.115c1.27-0.186,2.567-0.584,3.896-1.195l0.521-0.271
		l-0.334-0.414C296.355,293.769,295.396,292.862,294.293,292.206z"/>
	<path fill="none" stroke="#27FFDA" stroke-miterlimit="10" d="M23.101,312.668c-0.617-0.398-1.219-0.883-1.807-1.457
		c-0.589-0.574-1.129-1.176-1.619-1.811s-0.905-1.259-1.244-1.876c-0.343-0.616-0.58-1.182-0.71-1.701
		c-0.159-0.671-0.135-1.296,0.073-1.875c0.208-0.576,0.513-1.001,0.914-1.271c0.397-0.27,0.836-0.319,1.318-0.151
		c0.479,0.167,0.927,0.655,1.35,1.463c0.641,1.043,1.357,1.973,2.148,2.787c0.662,0.707,1.471,1.361,2.422,1.967
		c0.949,0.607,1.98,0.965,3.09,1.073c1.074,0.124,2.049,0.055,2.924-0.208c0.873-0.263,1.621-0.628,2.247-1.093
		c0.624-0.466,1.13-0.995,1.516-1.588c0.389-0.593,0.635-1.154,0.739-1.69c0.906-4.683-0.235-8.444-3.432-11.286
		c-0.639-0.55-1.12-1.035-1.438-1.456c-0.321-0.419-0.481-0.832-0.489-1.241c-0.007-0.405,0.152-0.861,0.473-1.364
		c0.323-0.503,0.815-1.14,1.476-1.908c0.618,0.111,1.235,0.334,1.848,0.673c0.613,0.336,1.184,0.743,1.711,1.22
		c0.873,0.821,1.694,1.39,2.463,1.702c0.765,0.316,1.451,0.511,2.057,0.585c0.69,0.081,1.327,0.041,1.914-0.124
		c0.031-0.709,0.077-1.384,0.137-2.023c0.055-0.557,0.098-1.094,0.121-1.618c0.029-0.523,0.066-0.918,0.119-1.187
		c0.675-6.426,4.036-10.968,10.094-13.625l0.155-0.064c1.153-0.482,2.261-0.698,3.325-0.654c1.062,0.048,1.904,0.271,2.52,0.667
		c0.93,0.556,1.684,1.306,2.266,2.25c0.578,0.945,0.916,2.219,1.011,3.816c0.064,1.037-0.177,2.173-0.726,3.406
		c-0.549,1.235-1.211,2.443-1.986,3.627c-0.774,1.184-1.79,2.336-3.043,3.455c-1.254,1.116-2.484,2.135-3.699,3.051
		c-1.442,1.058-2.926,2.064-4.448,3.029c0.551,1.612,1.011,3.06,1.387,4.338c0.33,1.09,0.646,2.114,0.947,3.073
		c0.299,0.962,0.451,1.501,0.462,1.619c0.307,1.226-0.048,2.089-1.065,2.597c-1.014,0.424-1.914,0.125-2.709-0.894
		c-0.515-0.646-0.923-1.376-1.224-2.192c-0.32-0.767-0.604-1.488-0.844-2.166c-0.216-0.607-0.44-1.22-0.678-1.838
		c-0.238-0.617-0.411-1.148-0.516-1.597c-0.232-0.846-0.615-1.422-1.154-1.73c-0.146-0.061-0.344-0.09-0.59-0.089
		c-0.245-0.001-0.506,0.017-0.778,0.047c-0.308,0.049-0.615,0.097-0.927,0.143c0.044,0.392,0.078,0.766,0.104,1.124
		c0.046,0.31,0.095,0.617,0.142,0.926c0.047,0.306,0.07,0.563,0.075,0.767c0.243,2.149,0.168,4.024-0.228,5.624
		c-0.398,1.601-0.984,2.964-1.762,4.087c-0.781,1.125-1.673,2.031-2.677,2.718c-1.005,0.684-1.972,1.184-2.907,1.492
		c-0.818,0.3-1.631,0.507-2.442,0.623c-0.814,0.113-1.666,0.133-2.558,0.057c-0.894-0.08-1.822-0.295-2.79-0.646
		C25.189,313.894,24.17,313.365,23.101,312.668z M54.501,279.317c-1.918,0.803-3.411,2.152-4.481,4.055
		c-1.066,1.902-1.549,4.059-1.44,6.471l0.055,0.717l0.582-0.369c1.184-0.698,2.281-1.424,3.299-2.177
		c1.018-0.754,1.916-1.569,2.695-2.448c0.777-0.879,1.442-1.833,1.995-2.864c0.556-1.029,0.967-2.195,1.243-3.5l0.084-0.527
		l-0.484,0.019C56.764,278.657,55.579,278.866,54.501,279.317z"/>
	<path fill="none" stroke="#27FFDA" stroke-miterlimit="10" d="M76.796,348.326c-0.774-0.229-1.531-0.523-2.269-0.881
		c-1.081-0.46-1.964-1.044-2.644-1.754c-0.68-0.712-1.221-1.486-1.63-2.324c-0.409-0.84-0.726-1.699-0.958-2.578
		c-0.23-0.879-0.412-1.736-0.543-2.565c-0.902-6.918,0.76-13.335,4.989-19.246c1.762-2.476,4.024-3.634,6.788-3.472
		c0.339,0.755,0.396,1.392,0.17,1.91c-0.223,0.521-0.531,1.05-0.925,1.588c-0.067,0.075-0.36,0.586-0.873,1.534
		c-0.516,0.946-1.071,2.069-1.666,3.371c-0.596,1.298-1.126,2.663-1.596,4.091c-0.472,1.431-0.716,2.658-0.735,3.682
		c0.012,1.221,0.132,2.474,0.361,3.762c0.229,1.284,0.563,2.526,1.003,3.737c0.52,1.559,1.407,2.523,2.655,2.892
		c0.818,0.242,1.855,0.218,3.111-0.067c3.512-0.796,6.248-2.69,8.211-5.683c1.436-2.158,2.479-4.224,3.131-6.191
		c0.654-1.968,1-3.976,1.043-6.024c0.025-1.35,0.333-2.311,0.923-2.886c0.592-0.575,1.591-0.864,2.996-0.871
		c0.243-0.021,0.556,0.024,0.945,0.139c1.163,0.344,1.875,1.492,2.144,3.443c0.084,0.822,0.106,1.693,0.066,2.619
		c-0.031,2.799,0.94,4.491,2.922,5.077c0.907,0.269,1.872,0.248,2.9-0.055c0.914-0.244,1.816-0.527,2.706-0.852
		c0.894-0.321,1.786-0.654,2.686-0.996c0.155-0.049,0.578-0.216,1.272-0.503c0.692-0.285,1.41-0.578,2.152-0.873
		c0.898-0.342,1.872-0.711,2.926-1.103c1.277,0.753,1.968,1.576,2.077,2.477c0.108,0.899,0.093,1.819-0.041,2.762
		c-0.095,0.63-0.099,1.354-0.015,2.173c0.086,0.822,0.27,1.392,0.551,1.71c0.688,0.204,1.451,0.146,2.295-0.167
		c0.84-0.311,1.679-0.768,2.509-1.364c0.835-0.596,1.612-1.29,2.34-2.083c0.726-0.792,1.311-1.544,1.757-2.255
		c0.091-0.16,0.168-0.303,0.229-0.424c0.06-0.123,0.137-0.263,0.23-0.422c0.13-0.289,0.26-0.568,0.387-0.836
		c0.127-0.267,0.303-0.46,0.525-0.582c1.307-0.783,2.5-1.018,3.578-0.699c0.43,0.127,0.789,0.329,1.086,0.604
		c0.814,0.567,1.209,1.212,1.184,1.929c-0.025,0.721-0.184,1.411-0.473,2.072c-0.574,1.47-1.598,2.911-3.068,4.326
		c-1.475,1.417-3.085,2.634-4.842,3.662c-1.756,1.025-3.537,1.788-5.347,2.283c-1.808,0.495-3.358,0.551-4.65,0.169
		c-0.947-0.279-1.748-0.739-2.4-1.377c-0.655-0.639-1.206-1.307-1.657-1.999c-0.509-0.809-0.932-1.684-1.261-2.623l-1.04,0.186
		c-0.295,0.053-0.591,0.105-0.89,0.159c-0.295,0.053-0.544,0.097-0.741,0.131c-0.914,0.244-1.816,0.448-2.707,0.604
		c-0.89,0.16-1.777,0.226-2.656,0.2c-0.839-0.014-1.69-0.103-2.555-0.266c-0.867-0.161-1.743-0.328-2.628-0.494
		c-0.216-0.064-0.48-0.13-0.786-0.198c-0.308-0.068-0.598-0.119-0.867-0.151c-0.358-0.059-0.688-0.134-0.99-0.223
		c-0.242,0.351-0.485,0.698-0.729,1.049c-0.19,0.319-0.396,0.62-0.621,0.906c-0.224,0.284-0.385,0.506-0.477,0.667
		c-2.546,3.695-6.246,6.627-11.102,8.799C82.504,349.054,79.681,349.179,76.796,348.326z"/>
	<path fill="none" stroke="#27FFDA" stroke-miterlimit="10" d="M243.271,209.872c-0.186,0.903-0.366,1.782-0.547,2.634
		c-0.181,0.854-0.385,1.694-0.612,2.521c-0.23,0.828-0.498,1.632-0.804,2.412c-0.31,0.779-0.686,1.526-1.142,2.243
		c-0.77,1.278-1.645,2.451-2.62,3.517c-0.978,1.067-2.149,1.926-3.517,2.578c-1.068,0.496-1.895,0.359-2.479-0.41
		c-0.331-0.419-0.466-0.789-0.404-1.109c0.061-0.322,0.311-0.667,0.754-1.036c0.527-0.422,1.047-0.846,1.558-1.27
		c0.509-0.424,0.999-0.87,1.472-1.338c1.438-1.443,2.561-3.023,3.361-4.739c0.8-1.716,1.254-3.602,1.357-5.657
		c-0.006-0.144,0.016-0.286,0.07-0.424s0.109-0.286,0.164-0.444c0.248-0.715,0.508-1.191,0.776-1.434c0.267-0.241,0.6-0.313,1-0.216
		c0.62,0.159,1.06,0.43,1.321,0.812C243.244,208.894,243.341,209.347,243.271,209.872z M240.513,198.087
		c0.29-0.056,0.582-0.105,0.871-0.15c0.291-0.045,0.563-0.056,0.816-0.033c0.253,0.023,0.492,0.103,0.715,0.234
		c0.224,0.134,0.425,0.341,0.602,0.623c0.304,0.498,0.396,1.008,0.277,1.528c-0.121,0.521-0.379,0.946-0.777,1.278
		c-0.464,0.366-0.871,0.569-1.221,0.609c-0.352,0.039-0.71-0.079-1.072-0.358c-0.363-0.278-0.604-0.565-0.72-0.863
		c-0.115-0.297-0.155-0.602-0.114-0.915c0.039-0.313,0.119-0.634,0.24-0.96C240.252,198.753,240.379,198.423,240.513,198.087z"/>
	<path fill="none" stroke="#27FFDA" stroke-miterlimit="10" d="M252.911,327.827c-0.111,0.54-0.218,1.064-0.326,1.573
		c-0.108,0.51-0.23,1.012-0.364,1.505c-0.14,0.495-0.299,0.975-0.481,1.44s-0.408,0.911-0.68,1.339
		c-0.461,0.764-0.983,1.464-1.565,2.101c-0.584,0.637-1.284,1.149-2.1,1.539c-0.639,0.296-1.131,0.215-1.481-0.245
		c-0.197-0.25-0.276-0.471-0.241-0.662c0.037-0.192,0.187-0.398,0.449-0.619c0.317-0.252,0.628-0.504,0.934-0.758
		c0.301-0.253,0.595-0.52,0.876-0.799c0.86-0.862,1.529-1.805,2.008-2.829c0.477-1.024,0.748-2.151,0.813-3.378
		c-0.006-0.086,0.008-0.171,0.04-0.253c0.033-0.083,0.064-0.171,0.098-0.266c0.148-0.427,0.304-0.712,0.462-0.856
		c0.162-0.144,0.359-0.187,0.6-0.128c0.369,0.095,0.633,0.256,0.789,0.484C252.895,327.243,252.952,327.514,252.911,327.827z
		 M251.265,320.791c0.174-0.033,0.348-0.063,0.52-0.09c0.174-0.026,0.336-0.033,0.487-0.02c0.152,0.014,0.294,0.061,0.427,0.14
		c0.135,0.08,0.254,0.203,0.361,0.372c0.18,0.298,0.234,0.602,0.163,0.912c-0.071,0.312-0.226,0.565-0.463,0.764
		c-0.276,0.219-0.521,0.34-0.729,0.364c-0.21,0.022-0.423-0.048-0.64-0.214c-0.216-0.167-0.36-0.338-0.429-0.516
		c-0.07-0.178-0.093-0.359-0.069-0.547c0.022-0.187,0.071-0.378,0.144-0.573C251.109,321.188,251.185,320.992,251.265,320.791z"/>
	<path fill="none" stroke="#27FFDA" stroke-miterlimit="10" d="M271.267,199.667c-1.087-4.068-1.705-7.83-1.853-11.291
		c-0.149-3.46,0.069-6.854,0.651-10.19c0.53-3.153,1.162-6.3,1.892-9.432c0.73-3.136,1.386-6.289,1.968-9.456
		c0.227-1.179,0.354-2.378,0.371-3.602c0.023-1.222,0.004-2.43-0.047-3.628c-0.074-1.081-0.412-1.827-1.016-2.244
		c-0.602-0.413-1.312-0.35-2.13,0.191c-1.357,0.768-2.677,1.593-3.965,2.477c-1.29,0.888-2.44,1.907-3.449,3.06
		c-1.298,1.467-1.739,3.086-1.334,4.859c0.404,1.777,1.468,3.189,3.187,4.236c0.329,0.171,0.665,0.31,1.005,0.422
		c0.34,0.111,0.674,0.252,1.006,0.422c0.778,0.356,1.404,0.803,1.882,1.339c0.477,0.54,0.626,1.306,0.447,2.3
		c-0.173,0.832-0.657,1.554-1.451,2.169c-0.799,0.617-1.664,0.937-2.593,0.959c-0.234-0.038-0.44-0.039-0.626-0.009
		c-0.18,0.032-0.389,0.032-0.619-0.007c-1.609-0.362-3.098-1.071-4.454-2.125c-1.363-1.054-2.487-2.321-3.38-3.8
		c-0.89-1.482-1.525-3.058-1.895-4.733c-0.375-1.675-0.348-3.3,0.086-4.874c0.498-1.874,1.37-3.672,2.609-5.398
		c1.239-1.726,2.714-3.234,4.424-4.531c1.709-1.296,3.556-2.333,5.543-3.111c1.988-0.775,3.967-1.181,5.946-1.211
		c1.281,0.029,2.476,0.268,3.584,0.712c1.108,0.441,2.064,1.09,2.86,1.935c0.799,0.849,1.438,1.857,1.928,3.026
		c0.484,1.167,0.708,2.452,0.657,3.848c-0.021,2.327-0.229,4.656-0.605,6.986c-0.384,2.334-0.751,4.664-1.107,6.986
		c-0.427,2.622-0.912,5.222-1.464,7.803c-0.549,2.579-1.015,5.172-1.386,7.776c-0.45,3.072-0.48,6.065-0.093,8.977
		c0.383,2.916,1.129,5.823,2.229,8.727c0.647,1.67,1.518,3.128,2.612,4.379c1.095,1.249,2.474,2.24,4.146,2.972
		c3.263,1.382,6.332,0.888,9.22-1.477c0.163-0.166,0.308-0.321,0.425-0.468c0.121-0.15,0.263-0.305,0.43-0.472
		c1.396-1.164,2.675-1.771,3.849-1.816c1.17-0.047,2.084,0.514,2.739,1.686c0.994,1.723,1.44,3.193,1.336,4.416
		c-0.102,1.221-0.967,2.313-2.588,3.276c-2.494,1.52-4.928,2.621-7.305,3.305c-2.374,0.682-4.688,0.876-6.939,0.578
		c-2.247-0.3-4.432-1.155-6.544-2.574c-2.112-1.418-4.179-3.459-6.195-6.122c-0.971-1.292-1.77-2.62-2.404-3.989
		C272.223,201.557,271.692,200.471,271.267,199.667z"/>
	<path fill="none" stroke="#27FFDA" stroke-miterlimit="10" d="M193.733,400.689c-3.774-3.708-6.845-7.385-9.212-11.036
		c-2.366-3.65-4.295-7.464-5.792-11.445c-1.44-3.75-2.762-7.558-3.969-11.413c-1.213-3.859-2.514-7.69-3.905-11.487
		c-0.505-1.421-1.133-2.8-1.894-4.136c-0.755-1.337-1.545-2.633-2.365-3.896c-0.771-1.123-1.613-1.715-2.529-1.781
		c-0.916-0.064-1.644,0.458-2.184,1.566c-0.98,1.695-1.882,3.431-2.714,5.21c-0.827,1.781-1.425,3.619-1.781,5.51
		c-0.467,2.415,0.089,4.449,1.659,6.108c1.568,1.667,3.619,2.518,6.148,2.553c0.467-0.024,0.92-0.089,1.358-0.185
		s0.889-0.157,1.356-0.185c1.07-0.11,2.033-0.027,2.892,0.249c0.86,0.279,1.509,1.013,1.951,2.203
		c0.343,1.011,0.278,2.101-0.188,3.273c-0.47,1.178-1.201,2.074-2.194,2.691c-0.275,0.108-0.5,0.238-0.682,0.389
		c-0.175,0.15-0.402,0.284-0.675,0.39c-1.973,0.633-4.034,0.814-6.178,0.541c-2.146-0.271-4.172-0.927-6.081-1.957
		c-1.907-1.037-3.599-2.337-5.069-3.914c-1.475-1.573-2.479-3.35-3.017-5.33c-0.653-2.346-0.858-4.848-0.617-7.506
		c0.24-2.659,0.873-5.232,1.897-7.728c1.022-2.491,2.359-4.792,4.014-6.901c1.656-2.107,3.541-3.809,5.663-5.104
		c1.405-0.784,2.849-1.288,4.333-1.515c1.481-0.23,2.929-0.138,4.329,0.269c1.407,0.409,2.741,1.093,4.016,2.047
		c1.27,0.953,2.329,2.202,3.168,3.743c1.458,2.533,2.724,5.186,3.799,7.947c1.073,2.771,2.163,5.526,3.257,8.269
		c1.211,3.109,2.344,6.233,3.393,9.377c1.052,3.142,2.202,6.245,3.461,9.301c1.473,3.611,3.35,6.869,5.624,9.773
		c2.276,2.91,4.938,5.582,7.98,8.022c1.765,1.395,3.637,2.418,5.622,3.072c1.978,0.655,4.104,0.848,6.382,0.57
		c4.409-0.583,7.419-3.077,9.031-7.477c0.074-0.283,0.131-0.544,0.165-0.777c0.034-0.24,0.089-0.497,0.164-0.784
		c0.766-2.149,1.764-3.624,3.005-4.421c1.236-0.797,2.583-0.774,4.041,0.076c2.171,1.231,3.596,2.538,4.262,3.928
		c0.669,1.386,0.428,3.12-0.71,5.196c-1.73,3.235-3.661,5.98-5.799,8.235c-2.133,2.253-4.513,3.938-7.14,5.052
		c-2.623,1.109-5.533,1.576-8.725,1.389c-3.189-0.187-6.73-1.077-10.61-2.674c-1.875-0.778-3.587-1.707-5.146-2.783
		C195.969,402.126,194.704,401.289,193.733,400.689z"/>
	<path fill="none" stroke="#27FFDA" stroke-miterlimit="10" d="M214.053,317.748c2.283-0.714,4.203-1.698,5.752-2.958
		c1.551-1.256,2.847-2.768,3.883-4.531c0.712-1.219,1.053-2.438,1.021-3.658c-0.033-1.221-0.504-2.425-1.412-3.612
		c-0.23-0.313-0.465-0.634-0.699-0.962c-0.238-0.329-0.439-0.659-0.607-0.991c-0.09-0.181-0.189-0.377-0.303-0.586
		c-0.113-0.208-0.196-0.419-0.238-0.632c-0.049-0.21-0.045-0.41,0.002-0.599c0.049-0.187,0.187-0.366,0.412-0.539
		c0.398-0.29,0.838-0.524,1.325-0.704c0.482-0.179,0.974-0.254,1.468-0.229c0.387,0.024,0.777,0.169,1.168,0.435
		c0.393,0.265,0.719,0.549,0.981,0.852c0.774,1.089,1.421,2.215,1.94,3.378c0.519,1.164,0.84,2.37,0.967,3.614
		c0.126,1.245,0.002,2.522-0.372,3.828c-0.374,1.309-1.053,2.645-2.035,4.011c-1.507,2.044-3.206,3.795-5.095,5.257
		c-1.891,1.465-4.082,2.549-6.576,3.254c-1.913,0.567-3.78,0.731-5.602,0.493c-1.822-0.24-3.556-0.966-5.199-2.178
		c-1.283-0.936-2.292-2.091-3.028-3.467c-0.739-1.377-1.224-2.802-1.454-4.278c-0.229-1.473-0.212-2.901,0.057-4.279
		c0.268-1.381,0.778-2.547,1.535-3.499c0.473-0.627,0.993-1.145,1.566-1.559c0.57-0.412,1.242-0.663,2.013-0.753
		c0.308-0.021,0.642,0,1.009,0.065c0.365,0.065,0.635,0.209,0.803,0.437c0.162,0.194,0.213,0.476,0.148,0.841
		c-0.066,0.365-0.156,0.705-0.27,1.017c-0.229,0.518-0.489,1.011-0.785,1.48c-0.293,0.471-0.555,0.962-0.781,1.481
		c-0.459,1.141-0.633,2.277-0.524,3.404c0.11,1.131,0.444,2.168,1,3.11c0.56,0.945,1.31,1.718,2.251,2.323s2.012,0.937,3.209,0.998
		c0.493,0.027,0.976-0.012,1.449-0.117C213.499,317.789,213.843,317.741,214.053,317.748z M212.747,291.974
		c-0.203,0.612-0.467,1.179-0.799,1.691c-0.332,0.515-0.704,0.929-1.115,1.241s-0.843,0.521-1.298,0.621
		c-0.456,0.1-0.89,0.038-1.302-0.186c-0.605-0.515-0.91-1.196-0.92-2.043c-0.009-0.847,0.274-1.703,0.85-2.567
		c0.434-0.648,0.846-1.298,1.242-1.954c0.395-0.654,0.849-1.283,1.364-1.888c0.46-0.553,0.997-0.962,1.61-1.231
		c0.612-0.269,1.301-0.292,2.06-0.065c0.606,0.166,1.093,0.412,1.468,0.734c0.373,0.324,0.592,0.821,0.652,1.498
		c0.039,0.369,0.086,0.721,0.132,1.053c0.044,0.332,0.085,0.669,0.113,1.006c0.104,0.696,0.067,1.298-0.112,1.801
		c-0.18,0.505-0.453,0.873-0.817,1.102c-0.366,0.231-0.825,0.289-1.378,0.176C213.943,292.849,213.358,292.52,212.747,291.974z"/>
	<path fill="none" stroke="#27FFDA" stroke-miterlimit="10" d="M326.507,162.956c1.969-0.615,3.623-1.463,4.957-2.549
		c1.336-1.082,2.453-2.385,3.346-3.904c0.613-1.051,0.908-2.101,0.88-3.152s-0.435-2.09-1.216-3.113
		c-0.199-0.269-0.402-0.546-0.604-0.828c-0.205-0.284-0.38-0.568-0.525-0.854c-0.074-0.156-0.162-0.325-0.26-0.505
		s-0.168-0.361-0.205-0.545c-0.041-0.181-0.038-0.354,0.002-0.516c0.043-0.16,0.161-0.315,0.355-0.464
		c0.344-0.25,0.723-0.452,1.142-0.607c0.416-0.154,0.839-0.219,1.265-0.196c0.334,0.021,0.67,0.146,1.006,0.374
		c0.34,0.229,0.62,0.473,0.846,0.733c0.668,0.938,1.226,1.909,1.672,2.911c0.449,1.003,0.725,2.043,0.834,3.114
		c0.109,1.073,0.002,2.174-0.32,3.299c-0.322,1.128-0.907,2.279-1.754,3.456c-1.299,1.762-2.762,3.271-4.391,4.53
		c-1.629,1.263-3.516,2.196-5.666,2.804c-1.648,0.489-3.258,0.631-4.827,0.425c-1.57-0.207-3.063-0.832-4.479-1.876
		c-1.106-0.807-1.976-1.802-2.61-2.987c-0.638-1.187-1.054-2.415-1.253-3.688c-0.197-1.269-0.184-2.5,0.047-3.688
		c0.232-1.189,0.672-2.194,1.324-3.015c0.408-0.54,0.856-0.986,1.351-1.343c0.492-0.355,1.07-0.572,1.735-0.649
		c0.264-0.018,0.552,0,0.868,0.057c0.314,0.057,0.548,0.18,0.692,0.376c0.14,0.168,0.182,0.41,0.127,0.725
		c-0.057,0.314-0.135,0.607-0.232,0.876c-0.197,0.446-0.422,0.871-0.676,1.275c-0.254,0.406-0.479,0.829-0.674,1.277
		c-0.396,0.982-0.545,1.962-0.451,2.934c0.096,0.975,0.383,1.868,0.861,2.68c0.482,0.814,1.129,1.48,1.939,2.002
		c0.813,0.521,1.734,0.808,2.766,0.86c0.425,0.023,0.84-0.011,1.248-0.102C326.03,162.992,326.327,162.95,326.507,162.956z
		 M325.382,140.746c-0.174,0.527-0.402,1.016-0.688,1.458c-0.286,0.443-0.606,0.8-0.96,1.069c-0.354,0.27-0.727,0.448-1.119,0.535
		c-0.392,0.086-0.766,0.032-1.121-0.16c-0.521-0.443-0.785-1.031-0.793-1.761s0.236-1.467,0.732-2.212
		c0.373-0.559,0.729-1.118,1.069-1.684c0.341-0.564,0.731-1.106,1.177-1.627c0.396-0.477,0.859-0.829,1.387-1.062
		c0.528-0.231,1.121-0.251,1.775-0.056c0.523,0.143,0.941,0.354,1.264,0.633c0.322,0.279,0.512,0.707,0.563,1.291
		c0.033,0.317,0.074,0.62,0.115,0.906c0.037,0.286,0.072,0.577,0.097,0.867c0.09,0.6,0.058,1.118-0.097,1.552
		c-0.154,0.435-0.392,0.752-0.705,0.949c-0.314,0.199-0.711,0.249-1.187,0.151C326.413,141.5,325.909,141.217,325.382,140.746z"/>
	<path fill="none" stroke="#27FFDA" stroke-miterlimit="10" d="M56.41,126.479c0.137,0.614,0.144,1.131,0.019,1.551
		c-0.124,0.42-0.321,0.803-0.593,1.146c-0.289,0.403-0.576,0.797-0.859,1.181c-0.283,0.383-0.54,0.785-0.77,1.206
		c-0.421,0.702-0.598,1.294-0.524,1.771c0.071,0.478,0.498,0.896,1.285,1.256c1.308,0.599,2.629,0.979,3.963,1.141
		c1.333,0.16,2.707,0.003,4.121-0.471c1.036-0.351,1.819-0.906,2.34-1.666c0.521-0.758,0.898-1.634,1.127-2.628
		c0.038-0.2,0.061-0.401,0.067-0.602c0.006-0.2,0.057-0.393,0.154-0.575c0.126-0.282,0.281-0.538,0.467-0.771
		c0.186-0.231,0.482-0.329,0.898-0.292c0.394,0.031,0.732,0.163,1.015,0.396c0.279,0.232,0.448,0.547,0.501,0.944
		c0.034,0.244,0.057,0.506,0.07,0.785c0.012,0.28-0.016,0.537-0.086,0.771c-0.279,0.873-0.613,1.703-1.007,2.489
		c-0.392,0.788-0.861,1.498-1.409,2.132c-0.549,0.634-1.192,1.176-1.932,1.628c-0.738,0.45-1.598,0.786-2.575,1.006
		c-0.543,0.115-1.104,0.183-1.685,0.203c-0.579,0.019-1.147,0-1.702-0.058c-1.339-0.142-2.646-0.373-3.921-0.696
		c-1.272-0.325-2.479-0.899-3.615-1.724c-1.313-0.941-1.765-2.188-1.346-3.741c0.289-1.125,0.753-2.136,1.39-3.031
		c0.636-0.895,1.399-1.698,2.288-2.413c0.297-0.209,0.642-0.372,1.038-0.488C55.525,126.813,55.953,126.662,56.41,126.479z
		 M66.954,121.091c0.315,0.157,0.576,0.277,0.786,0.361c0.208,0.082,0.379,0.186,0.513,0.31c0.195,0.206,0.314,0.428,0.361,0.665
		c0.046,0.237-0.066,0.453-0.334,0.648c-0.241,0.164-0.484,0.32-0.73,0.471c-0.245,0.149-0.503,0.249-0.772,0.296
		c-0.747,0.162-1.497,0.307-2.247,0.436c-0.748,0.129-1.503,0.252-2.259,0.367c-0.551,0.071-1.048-0.008-1.491-0.234
		c-0.442-0.226-0.697-0.518-0.759-0.877c-0.061-0.229-0.052-0.478,0.026-0.741s0.201-0.515,0.366-0.751
		c0.165-0.237,0.368-0.433,0.603-0.587c0.237-0.153,0.488-0.243,0.75-0.272c0.907-0.051,1.799-0.073,2.68-0.066
		C65.326,121.12,66.163,121.112,66.954,121.091z"/>
	<path fill="none" stroke="#27FFDA" stroke-miterlimit="10" d="M15.114,347.506c0.325,1.46,0.344,2.688,0.049,3.687
		c-0.297,0.999-0.767,1.908-1.412,2.725c-0.689,0.958-1.369,1.895-2.043,2.806s-1.286,1.867-1.831,2.867
		c-1.002,1.671-1.417,3.076-1.245,4.213c0.168,1.136,1.186,2.129,3.053,2.986c3.111,1.424,6.254,2.328,9.423,2.711
		c3.169,0.382,6.436,0.008,9.798-1.119c2.467-0.833,4.324-2.154,5.563-3.961c1.239-1.802,2.135-3.884,2.681-6.248
		c0.092-0.477,0.145-0.954,0.157-1.43c0.017-0.476,0.137-0.934,0.368-1.368c0.298-0.67,0.669-1.279,1.11-1.831
		c0.44-0.552,1.15-0.783,2.132-0.694c0.938,0.074,1.744,0.388,2.414,0.938c0.668,0.555,1.068,1.303,1.192,2.248
		c0.079,0.578,0.135,1.201,0.169,1.865c0.03,0.667-0.04,1.277-0.203,1.835c-0.665,2.075-1.462,4.05-2.394,5.919
		c-0.933,1.873-2.052,3.56-3.354,5.066c-1.307,1.509-2.834,2.797-4.591,3.871c-1.756,1.07-3.797,1.868-6.121,2.391
		c-1.295,0.275-2.631,0.436-4.007,0.484c-1.378,0.045-2.728-0.002-4.048-0.139c-3.183-0.334-6.289-0.886-9.32-1.655
		c-3.027-0.771-5.895-2.137-8.594-4.097c-3.129-2.237-4.195-5.201-3.202-8.896c0.688-2.675,1.788-5.077,3.304-7.206
		c1.512-2.126,3.327-4.039,5.442-5.736c0.703-0.498,1.526-0.885,2.466-1.162C13.013,348.299,14.026,347.941,15.114,347.506z
		 M40.183,334.695c0.75,0.372,1.372,0.659,1.867,0.857c0.498,0.194,0.905,0.441,1.222,0.737c0.462,0.489,0.748,1.017,0.858,1.58
		c0.111,0.563-0.154,1.078-0.797,1.543c-0.568,0.39-1.147,0.76-1.73,1.119c-0.588,0.354-1.199,0.591-1.838,0.703
		c-1.781,0.386-3.561,0.729-5.344,1.035c-1.779,0.306-3.572,0.599-5.369,0.872c-1.312,0.171-2.493-0.018-3.547-0.556
		c-1.052-0.536-1.654-1.232-1.807-2.086c-0.139-0.545-0.119-1.135,0.066-1.762s0.478-1.223,0.872-1.785
		c0.392-0.565,0.871-1.03,1.432-1.396c0.563-0.364,1.158-0.579,1.78-0.648c2.157-0.12,4.281-0.174,6.374-0.158
		C36.312,334.764,38.3,334.745,40.183,334.695z"/>
	<path fill="none" stroke="#27FFDA" stroke-miterlimit="10" d="M328.145,337.188c0.081,0.363,0.085,0.668,0.013,0.917
		c-0.074,0.248-0.191,0.474-0.353,0.677c-0.171,0.237-0.339,0.471-0.506,0.696c-0.168,0.227-0.321,0.465-0.456,0.713
		c-0.247,0.415-0.353,0.765-0.311,1.047c0.043,0.282,0.297,0.529,0.761,0.742c0.772,0.354,1.554,0.578,2.341,0.673
		c0.787,0.096,1.6,0.003,2.434-0.277c0.613-0.207,1.075-0.535,1.383-0.984c0.309-0.448,0.53-0.965,0.666-1.553
		c0.022-0.118,0.036-0.237,0.041-0.355c0.002-0.118,0.032-0.231,0.09-0.34c0.073-0.166,0.167-0.317,0.276-0.454
		c0.108-0.138,0.285-0.195,0.531-0.173c0.229,0.019,0.432,0.097,0.598,0.233c0.167,0.138,0.265,0.323,0.296,0.559
		c0.021,0.144,0.033,0.298,0.042,0.463c0.008,0.166-0.01,0.317-0.051,0.456c-0.164,0.516-0.362,1.006-0.595,1.471
		c-0.23,0.466-0.509,0.885-0.832,1.259c-0.325,0.375-0.706,0.695-1.142,0.962s-0.943,0.464-1.521,0.594
		c-0.32,0.068-0.652,0.108-0.995,0.12s-0.678,0-1.007-0.034c-0.79-0.083-1.562-0.22-2.316-0.411
		c-0.75-0.191-1.465-0.531-2.135-1.018c-0.776-0.556-1.042-1.293-0.795-2.211c0.171-0.664,0.444-1.261,0.819-1.79
		c0.377-0.528,0.827-1.004,1.354-1.426c0.174-0.123,0.379-0.22,0.612-0.288C327.621,337.386,327.873,337.297,328.145,337.188z
		 M334.373,334.006c0.188,0.093,0.342,0.164,0.465,0.213s0.224,0.109,0.304,0.184c0.114,0.121,0.185,0.252,0.213,0.393
		c0.027,0.14-0.039,0.268-0.197,0.383c-0.143,0.097-0.286,0.189-0.431,0.278c-0.147,0.088-0.299,0.146-0.457,0.175
		c-0.442,0.096-0.883,0.182-1.327,0.257c-0.443,0.076-0.888,0.149-1.335,0.217c-0.325,0.043-0.618-0.004-0.881-0.138
		s-0.411-0.307-0.449-0.519c-0.035-0.136-0.03-0.282,0.017-0.438c0.046-0.156,0.119-0.304,0.218-0.443
		c0.097-0.141,0.216-0.256,0.354-0.347c0.14-0.091,0.286-0.145,0.442-0.161c0.536-0.03,1.063-0.044,1.583-0.04
		C333.411,334.022,333.907,334.019,334.373,334.006z"/>
	<path fill="none" stroke="#27FFDA" stroke-miterlimit="10" d="M123.34,395.461c0.102,0.519,0.038,0.897-0.191,1.138
		c-0.231,0.239-0.524,0.423-0.882,0.551c-0.215,0.086-0.449,0.154-0.697,0.209c-0.25,0.053-0.48,0.129-0.689,0.226
		c-0.21,0.099-0.393,0.234-0.551,0.411c-0.159,0.176-0.253,0.42-0.279,0.729c-0.155,1.313,0.124,2.522,0.84,3.625
		c0.563,0.889,1.269,1.596,2.111,2.122c0.843,0.524,1.732,0.909,2.669,1.155c0.938,0.245,1.867,0.36,2.796,0.348
		c0.927-0.013,1.762-0.12,2.502-0.326c1.495-0.387,2.713-1.041,3.653-1.962c0.943-0.923,1.665-2.094,2.17-3.517
		c0.038-0.053,0.068-0.122,0.096-0.211c0.026-0.087,0.058-0.157,0.095-0.21c0.18-0.394,0.427-0.681,0.747-0.862
		c0.319-0.182,0.62-0.209,0.901-0.084c0.378,0.155,0.609,0.397,0.69,0.73c0.083,0.331,0.088,0.657,0.016,0.976
		c-0.195,0.876-0.466,1.704-0.813,2.483c-0.348,0.777-0.834,1.51-1.463,2.194c-1.36,1.511-2.891,2.534-4.588,3.072
		c-1.697,0.539-3.512,0.767-5.44,0.685c-1.526-0.09-2.947-0.398-4.268-0.928c-1.318-0.528-2.495-1.38-3.527-2.556
		c-0.852-0.996-1.475-2.055-1.864-3.179s-0.437-2.364-0.142-3.721c0.18-0.754,0.484-1.402,0.909-1.945
		c0.425-0.544,1.032-0.889,1.821-1.039c0.063-0.002,0.224-0.023,0.481-0.064c0.255-0.041,0.547-0.077,0.874-0.107
		c0.328-0.031,0.672-0.046,1.033-0.046C122.711,395.36,123.041,395.395,123.34,395.461z M127.665,414.451
		c-0.461,1.413-1.339,1.897-2.629,1.452c-0.444-0.152-0.751-0.436-0.929-0.848c-0.173-0.414-0.187-0.873-0.036-1.38
		c0.08-0.274,0.209-0.528,0.385-0.763c0.176-0.235,0.38-0.426,0.613-0.568c0.234-0.143,0.48-0.235,0.734-0.275
		c0.255-0.041,0.512-0.024,0.767,0.051c0.194,0.058,0.374,0.169,0.537,0.335c0.163,0.163,0.301,0.359,0.418,0.584
		c0.112,0.226,0.18,0.463,0.202,0.713C127.749,414.003,127.729,414.235,127.665,414.451z"/>
	<path fill="none" stroke="#27FFDA" stroke-miterlimit="10" d="M267.897,453.479c0.102,0.519,0.038,0.897-0.191,1.138
		c-0.231,0.239-0.525,0.423-0.882,0.551c-0.215,0.086-0.448,0.154-0.697,0.209c-0.25,0.053-0.481,0.129-0.688,0.226
		c-0.211,0.099-0.395,0.234-0.552,0.411c-0.159,0.176-0.253,0.42-0.279,0.729c-0.155,1.313,0.124,2.522,0.841,3.625
		c0.563,0.889,1.268,1.596,2.11,2.122c0.843,0.524,1.732,0.909,2.669,1.155c0.938,0.245,1.867,0.36,2.796,0.348
		c0.927-0.013,1.761-0.12,2.502-0.326c1.495-0.387,2.714-1.041,3.653-1.962c0.943-0.923,1.665-2.094,2.17-3.517
		c0.038-0.053,0.068-0.122,0.096-0.211c0.026-0.087,0.058-0.157,0.096-0.21c0.179-0.394,0.426-0.681,0.746-0.862
		c0.319-0.182,0.621-0.209,0.901-0.084c0.378,0.155,0.608,0.397,0.69,0.73c0.083,0.331,0.088,0.657,0.016,0.976
		c-0.195,0.876-0.466,1.704-0.813,2.483c-0.348,0.777-0.834,1.51-1.463,2.194c-1.36,1.511-2.891,2.534-4.588,3.072
		c-1.697,0.539-3.512,0.767-5.441,0.685c-1.525-0.09-2.946-0.398-4.266-0.928c-1.32-0.528-2.496-1.38-3.528-2.556
		c-0.852-0.996-1.475-2.055-1.864-3.179s-0.437-2.364-0.141-3.721c0.179-0.754,0.483-1.402,0.908-1.945
		c0.426-0.544,1.031-0.889,1.821-1.039c0.063-0.002,0.224-0.023,0.481-0.064c0.255-0.041,0.547-0.077,0.874-0.107
		c0.328-0.031,0.671-0.046,1.033-0.046C267.269,453.379,267.599,453.413,267.897,453.479z M272.223,472.47
		c-0.462,1.413-1.339,1.897-2.629,1.452c-0.444-0.152-0.751-0.436-0.929-0.848c-0.173-0.414-0.188-0.873-0.037-1.38
		c0.081-0.274,0.21-0.528,0.385-0.763c0.177-0.235,0.381-0.426,0.614-0.568c0.234-0.143,0.48-0.235,0.734-0.275
		c0.255-0.041,0.513-0.024,0.767,0.051c0.195,0.058,0.374,0.169,0.537,0.335c0.163,0.163,0.301,0.359,0.418,0.584
		c0.113,0.226,0.18,0.463,0.201,0.713C272.307,472.021,272.286,472.254,272.223,472.47z"/>
	<path fill="none" stroke="#27FFDA" stroke-miterlimit="10" d="M183.408,197.311c0.178,0.912,0.064,1.578-0.338,2.001
		c-0.405,0.42-0.923,0.744-1.549,0.97c-0.379,0.151-0.79,0.271-1.229,0.366c-0.438,0.094-0.843,0.228-1.21,0.397
		c-0.367,0.173-0.691,0.411-0.969,0.723c-0.281,0.31-0.444,0.738-0.494,1.283c-0.271,2.31,0.223,4.436,1.479,6.375
		c0.991,1.563,2.232,2.807,3.715,3.731c1.482,0.923,3.045,1.601,4.691,2.031c1.646,0.432,3.287,0.635,4.917,0.613
		c1.633-0.022,3.098-0.213,4.401-0.575c2.629-0.68,4.772-1.831,6.426-3.45c1.656-1.622,2.926-3.682,3.816-6.183
		c0.064-0.093,0.121-0.216,0.166-0.372c0.046-0.154,0.1-0.277,0.166-0.369c0.316-0.692,0.754-1.196,1.314-1.518
		c0.562-0.318,1.091-0.367,1.586-0.147c0.666,0.273,1.071,0.7,1.215,1.285c0.146,0.583,0.154,1.155,0.026,1.716
		c-0.343,1.54-0.818,2.996-1.431,4.367c-0.609,1.368-1.467,2.655-2.571,3.86c-2.392,2.655-5.08,4.456-8.066,5.402
		c-2.987,0.947-6.178,1.347-9.571,1.202c-2.682-0.156-5.182-0.7-7.502-1.63c-2.32-0.929-4.389-2.428-6.205-4.495
		c-1.498-1.751-2.592-3.613-3.277-5.59s-0.768-4.157-0.25-6.544c0.316-1.326,0.852-2.466,1.6-3.42
		c0.748-0.957,1.814-1.564,3.201-1.829c0.113-0.002,0.396-0.04,0.848-0.111c0.45-0.072,0.962-0.137,1.537-0.189
		c0.578-0.055,1.184-0.081,1.818-0.081C182.303,197.134,182.884,197.193,183.408,197.311z M191.015,230.708
		c-0.812,2.484-2.354,3.337-4.623,2.554c-0.78-0.269-1.324-0.766-1.633-1.491c-0.307-0.727-0.33-1.534-0.065-2.427
		c0.143-0.482,0.368-0.928,0.678-1.341c0.309-0.413,0.666-0.748,1.079-0.999c0.41-0.251,0.842-0.415,1.29-0.485
		c0.451-0.072,0.9-0.043,1.348,0.09c0.343,0.101,0.657,0.298,0.946,0.589c0.289,0.287,0.531,0.633,0.732,1.027
		c0.201,0.396,0.319,0.814,0.356,1.254C191.161,229.92,191.126,230.328,191.015,230.708z"/>
	<path fill="none" stroke="#27FFDA" stroke-miterlimit="10" d="M136.282,83.985c0.131,0.677,0.047,1.171-0.252,1.484
		c-0.301,0.312-0.686,0.553-1.15,0.72c-0.281,0.112-0.584,0.201-0.91,0.272c-0.326,0.069-0.626,0.169-0.898,0.295
		c-0.273,0.128-0.514,0.305-0.719,0.536c-0.209,0.229-0.33,0.548-0.367,0.952c-0.201,1.714,0.164,3.292,1.098,4.731
		c0.734,1.161,1.656,2.083,2.757,2.77c1.101,0.686,2.259,1.188,3.481,1.508c1.223,0.32,2.439,0.471,3.65,0.455
		c1.211-0.017,2.299-0.158,3.266-0.427c1.951-0.505,3.543-1.359,4.77-2.561c1.229-1.204,2.172-2.732,2.834-4.589
		c0.047-0.069,0.088-0.16,0.122-0.276c0.034-0.114,0.075-0.206,0.123-0.273c0.235-0.515,0.56-0.889,0.976-1.127
		c0.416-0.236,0.81-0.272,1.178-0.109c0.494,0.203,0.795,0.52,0.902,0.954c0.107,0.433,0.113,0.857,0.019,1.273
		c-0.255,1.143-0.607,2.224-1.062,3.241c-0.453,1.016-1.09,1.971-1.908,2.865c-1.775,1.971-3.771,3.308-5.988,4.01
		c-2.217,0.703-4.584,0.999-7.104,0.892c-1.99-0.115-3.846-0.52-5.566-1.209c-1.723-0.689-3.258-1.802-4.606-3.337
		c-1.112-1.299-1.924-2.682-2.433-4.148c-0.51-1.467-0.57-3.085-0.186-4.856c0.234-0.984,0.632-1.83,1.188-2.539
		c0.555-0.71,1.348-1.161,2.375-1.357c0.085-0.001,0.295-0.029,0.629-0.082c0.334-0.054,0.715-0.102,1.142-0.141
		c0.431-0.041,0.878-0.061,1.35-0.061C135.461,83.854,135.892,83.898,136.282,83.985z M141.927,108.772
		c-0.603,1.844-1.746,2.477-3.432,1.896c-0.578-0.199-0.982-0.568-1.211-1.106c-0.229-0.54-0.244-1.139-0.049-1.802
		c0.105-0.357,0.273-0.688,0.504-0.995c0.229-0.307,0.492-0.555,0.8-0.741c0.304-0.187,0.624-0.309,0.958-0.36
		c0.334-0.054,0.668-0.032,1,0.066c0.254,0.075,0.486,0.222,0.701,0.438c0.215,0.213,0.395,0.47,0.545,0.763
		c0.148,0.294,0.236,0.604,0.264,0.931C142.036,108.188,142.009,108.49,141.927,108.772z"/>
	<path fill="none" stroke="#27FFDA" stroke-miterlimit="10" d="M367.421,350.75c0.145,0.738,0.052,1.278-0.275,1.621
		c-0.328,0.34-0.746,0.602-1.254,0.784c-0.307,0.123-0.639,0.22-0.994,0.297c-0.355,0.076-0.683,0.185-0.98,0.322
		c-0.298,0.14-0.562,0.333-0.785,0.585c-0.225,0.251-0.36,0.598-0.4,1.04c-0.22,1.87,0.182,3.592,1.197,5.164
		c0.805,1.266,1.811,2.272,3.011,3.022c1.199,0.746,2.466,1.296,3.8,1.645c1.334,0.35,2.66,0.515,3.983,0.496
		c1.321-0.018,2.509-0.172,3.562-0.465c2.131-0.551,3.867-1.483,5.208-2.795c1.341-1.313,2.369-2.982,3.091-5.008
		c0.051-0.076,0.098-0.175,0.136-0.302c0.035-0.124,0.08-0.225,0.132-0.299c0.258-0.561,0.611-0.969,1.066-1.229
		c0.454-0.257,0.883-0.297,1.283-0.119c0.54,0.222,0.867,0.567,0.986,1.041c0.116,0.472,0.123,0.936,0.019,1.39
		c-0.277,1.248-0.663,2.427-1.157,3.537c-0.493,1.108-1.188,2.151-2.082,3.127c-1.938,2.151-4.117,3.609-6.535,4.376
		c-2.419,0.768-5.004,1.092-7.751,0.975c-2.174-0.127-4.198-0.567-6.079-1.32c-1.878-0.753-3.554-1.967-5.025-3.642
		c-1.213-1.418-2.1-2.927-2.654-4.527c-0.555-1.602-0.622-3.368-0.202-5.301c0.256-1.074,0.689-1.997,1.296-2.771
		c0.606-0.775,1.469-1.267,2.593-1.481c0.091-0.002,0.319-0.032,0.687-0.091c0.363-0.059,0.779-0.109,1.245-0.152
		c0.467-0.045,0.958-0.066,1.473-0.065C366.523,350.606,366.995,350.654,367.421,350.75z M373.582,377.801
		c-0.657,2.013-1.907,2.703-3.745,2.069c-0.632-0.218-1.07-0.621-1.321-1.208c-0.251-0.589-0.269-1.243-0.054-1.966
		c0.115-0.391,0.299-0.752,0.55-1.086c0.247-0.335,0.538-0.606,0.872-0.81s0.682-0.336,1.047-0.393
		c0.363-0.059,0.729-0.035,1.091,0.072c0.277,0.082,0.533,0.241,0.767,0.477c0.233,0.233,0.43,0.514,0.594,0.833
		c0.161,0.32,0.257,0.659,0.288,1.016C373.7,377.163,373.672,377.493,373.582,377.801z"/>
	<path fill="none" stroke="#27FFDA" stroke-miterlimit="10" d="M314.878,307.717c-0.129,0.365-0.316,0.708-0.559,1.028
		c-0.243,0.321-0.509,0.609-0.796,0.864c-0.375,0.334-0.743,0.428-1.103,0.279c-0.36-0.149-0.572-0.478-0.633-0.984
		c-0.018-0.302,0.004-0.604,0.061-0.905s0.126-0.589,0.206-0.863c0.565-1.764,1.128-3.51,1.692-5.232
		c0.563-1.725,1.083-3.471,1.564-5.24c0.289-1.125,0.533-2.252,0.73-3.384c0.194-1.131,0.408-2.269,0.641-3.409
		c0.064-0.364,0.154-0.72,0.268-1.067c0.114-0.349,0.25-0.681,0.405-0.996c0.084-0.208,0.22-0.396,0.408-0.564
		c0.187-0.167,0.392-0.298,0.608-0.394c0.22-0.095,0.445-0.154,0.675-0.182c0.233-0.028,0.433-0.005,0.603,0.065
		c0.288,0.106,0.508,0.401,0.664,0.882c0.154,0.481,0.176,0.948,0.062,1.403c-0.175,0.586-0.352,1.166-0.53,1.739
		c-0.18,0.573-0.355,1.152-0.529,1.739c-0.087,0.293-0.229,0.791-0.427,1.498c-0.199,0.705-0.432,1.528-0.699,2.47
		c-0.268,0.939-0.556,1.948-0.862,3.025c-0.308,1.077-0.609,2.135-0.906,3.173c-0.296,1.038-0.581,1.999-0.854,2.886
		C315.295,306.434,315.065,307.156,314.878,307.717z"/>
	<path fill="none" stroke="#27FFDA" stroke-miterlimit="10" d="M209.338,142.711c0.799,0.746,1.442,1.365,1.929,1.854
		c0.49,0.486,0.989,0.911,1.506,1.269c1.104,0.785,2.205,1.524,3.302,2.215c1.096,0.691,2.131,1.453,3.105,2.286
		c1.12,0.973,1.961,2.012,2.514,3.11c0.558,1.102,0.837,2.213,0.837,3.333c0.002,1.126-0.286,2.228-0.859,3.306
		c-0.574,1.079-1.425,2.107-2.547,3.087c-6.108,5.158-13.172,8.286-21.187,9.379c-2.282,0.312-4.31,0.246-6.071-0.188
		c-1.764-0.431-3.288-1.166-4.581-2.206c-1.29-1.037-2.345-2.342-3.158-3.913c-0.821-1.568-1.424-3.336-1.816-5.301
		c-0.378-1.915-0.53-3.826-0.466-5.731c0.068-1.902,0.511-3.776,1.333-5.628c0.178-0.453,0.396-0.884,0.646-1.289
		c0.25-0.402,0.503-0.798,0.759-1.181c0.488-0.706,1.075-1.083,1.767-1.13c0.69-0.045,1.345,0.044,1.96,0.27
		c0.69,0.296,1.146,0.76,1.367,1.389c0.219,0.631,0.198,1.335-0.069,2.11c-0.691,1.66-0.992,3.34-0.91,5.044
		c0.081,1.705,0.252,3.414,0.509,5.13c0.322,2.038,1.021,3.44,2.095,4.212c1.075,0.774,2.671,1.108,4.781,1.004
		c6.102-0.276,11.541-2.322,16.313-6.137c0.533-0.432,0.996-0.921,1.388-1.477c0.395-0.551,0.867-1.145,1.43-1.78
		c-1.561-1.112-3.022-2.152-4.387-3.117c-1.361-0.966-2.704-1.947-4.032-2.948c-1.207-0.946-2.197-1.919-2.962-2.922
		c-0.766-1.002-1.26-2.316-1.487-3.946c-0.194-1.252-0.123-2.34,0.215-3.263s0.943-1.805,1.821-2.651
		c0.919-0.857,1.9-1.552,2.933-2.084c1.032-0.534,2.085-0.952,3.151-1.247c1.068-0.301,2.135-0.528,3.206-0.683
		c1.069-0.155,2.123-0.288,3.154-0.406c1.313-0.019,2.484,0.122,3.516,0.418c1.029,0.3,2.004,0.851,2.921,1.653
		c0.636,0.561,1.081,1.21,1.34,1.95c0.259,0.739,0.341,1.47,0.248,2.184c-0.09,0.715-0.34,1.401-0.745,2.054
		c-0.407,0.655-0.965,1.155-1.672,1.502c-0.274,0.192-0.671,0.284-1.189,0.269c-0.519-0.014-0.867-0.137-1.044-0.367
		c-0.916-0.948-1.867-1.57-2.848-1.865c-0.981-0.289-1.959-0.362-2.931-0.218c-0.977,0.146-1.9,0.469-2.777,0.97
		C210.767,141.529,209.999,142.089,209.338,142.711z M205.446,182.302c-0.48-0.81-0.622-1.638-0.427-2.485
		c0.189-0.848,0.707-1.469,1.546-1.858c1.445-0.75,2.883-1.461,4.311-2.129c1.424-0.67,2.884-1.313,4.378-1.934
		c1.245-0.485,2.294-0.666,3.141-0.548c0.848,0.119,1.378,0.483,1.592,1.091c0.304,0.872,0.3,1.665-0.012,2.387
		c-0.31,0.718-0.839,1.403-1.588,2.056c-0.79,0.668-1.85,1.343-3.175,2.023c-1.323,0.683-2.671,1.229-4.045,1.632
		c-1.372,0.407-2.6,0.627-3.686,0.669C206.397,183.238,205.716,182.94,205.446,182.302z"/>
	<path fill-rule="evenodd" clip-rule="evenodd" fill="none" stroke="#27FFDA" stroke-miterlimit="10" d="M110.21,136.196
		c-0.877-0.641-2.887-0.639-3.522,0.42c-0.403,0.673,0.177,1.296,0.265,2.07c-1.831,0.867-4.072,0.835-5.597,2.909
		c0.089,0.786,1.18,1.37,1.819,1.352c0.65,0.037,1.264-0.567,1.922-0.395c0.287,1.142-1.575,0.806-2.189,1.731
		c0.238,0.913,0.479,1.826,1.273,2.706c0.858,0.013,1.67-0.786,2.535-0.64c-0.128,0.799-1.656,0.382-1.986,1.648
		c0.232,0.613,0.619,1.216,1.15,1.81c2.157-0.363,4.294-1.085,6.416-2.054c3.927,5.906,5.1,11.979,8.516,17.917
		c-1.57,1.786-0.182,3.396,0.65,5.038c-3.316,2.101-5.666,6.493-3.593,9.674c0.635,0.972,2.112,2.354,3.177,3.078
		c0.918,0.623,2.117,1.014,3.279,1.333c1.139,0.312,2.373,0.674,3.236,0.64c0.911-0.036,1.712-0.632,2.544-0.5
		c0.871,0.137,1.665,0.859,2.61,0.607c1.358-0.362,2.262-1.595,2.312-3.198c4.485-3.662,4.321-11.314-1.559-14.372
		c-1.873-0.974-3.748-0.461-5.585-0.36c-1.432-1.268-1.52-3.592-3.577-3.957c-2.613-6.189-6.584-13.798-10.142-20.672
		c-0.51-0.982-1.131-2.269-1.807-3.438C111.76,138.509,111.128,136.866,110.21,136.196z M127.813,171.093
		c4.139-2.422,11.491,4.568,5.246,8.588c-2.033-1.879-4.587,0.376-3.961,2.393c-1.224,0.412-2.615,0.922-4.075,0.454
		c-3.034-0.974-5.719-4.725-4.469-7.242c0.633-1.274,2.077-1.933,3.185-2.556C125.439,174.786,128.324,173.132,127.813,171.093z"/>
	<path fill-rule="evenodd" clip-rule="evenodd" fill="none" stroke="#27FFDA" stroke-miterlimit="10" d="M139.603,442.768
		c-0.211,0.816,0.363,2.268,1.309,2.422c0.602,0.101,0.887-0.496,1.42-0.78c1.148,1.073,1.766,2.701,3.699,3.21
		c0.543-0.288,0.652-1.243,0.456-1.698c-0.16-0.481-0.771-0.751-0.833-1.276c0.741-0.532,1.029,0.906,1.873,1.088
		c0.592-0.434,1.184-0.868,1.592-1.693c-0.236-0.623-1.045-0.98-1.186-1.647c0.611-0.135,0.748,1.087,1.757,0.965
		c0.376-0.343,0.7-0.794,0.978-1.349c-0.879-1.453-2.01-2.789-3.313-4.044c3.144-4.521,7.192-7.101,10.505-11.263
		c1.736,0.624,2.502-0.837,3.451-1.908c2.463,1.796,6.305,2.237,8.008-0.167c0.521-0.735,1.098-2.195,1.316-3.171
		c0.188-0.841,0.127-1.817,0.027-2.748c-0.101-0.911-0.191-1.905-0.463-2.52c-0.287-0.646-0.945-1.056-1.088-1.693
		c-0.149-0.668,0.146-1.448-0.305-2.057c-0.648-0.878-1.798-1.179-2.969-0.757c-3.924-2.194-9.402,0.108-9.932,5.227
		c-0.168,1.631,0.737,2.838,1.335,4.136c-0.507,1.395-2.159,2.122-1.837,3.711c-3.723,3.653-8.082,8.69-12.028,13.222
		c-0.565,0.647-1.315,1.464-1.968,2.286C140.831,440.989,139.825,441.914,139.603,442.768z M159.772,420.1
		c-2.931-2.297,0.019-9.6,4.703-6.237c-0.777,2.002,1.581,3.204,2.857,2.175c0.646,0.767,1.412,1.625,1.491,2.813
		c0.163,2.469-1.778,5.479-3.953,5.293c-1.102-0.093-1.989-0.946-2.755-1.568C163.116,420.759,161.101,419.149,159.772,420.1z"/>
	<path fill-rule="evenodd" clip-rule="evenodd" fill="none" stroke="#27FFDA" stroke-miterlimit="10" d="M198.893,343.076
		c-0.726,0.207-1.583,1.312-1.272,2.11c0.195,0.509,0.785,0.457,1.246,0.739c-0.305,1.375-1.28,2.589-0.793,4.312
		c0.468,0.287,1.255-0.062,1.518-0.421c0.298-0.34,0.229-0.935,0.604-1.221c0.75,0.328-0.229,1.204,0.016,1.938
		c0.603,0.26,1.205,0.519,2.027,0.456c0.375-0.464,0.281-1.25,0.732-1.662c0.384,0.41-0.498,1.072,0.055,1.794
		c0.436,0.135,0.932,0.181,1.484,0.14c0.721-1.337,1.238-2.816,1.613-4.393c4.916,0.368,8.747,2.319,13.461,2.979
		c0.311,1.624,1.785,1.551,3.042,1.796c-0.265,2.715,1.142,5.878,3.769,6.102c0.805,0.068,2.193-0.153,3.045-0.428
		c0.735-0.238,1.461-0.728,2.133-1.23c0.656-0.49,1.383-1.013,1.732-1.502c0.369-0.514,0.385-1.207,0.813-1.606
		c0.447-0.42,1.183-0.548,1.447-1.171c0.383-0.901,0.092-1.925-0.766-2.635c-0.093-4.023-4.359-7.201-8.549-5.282
		c-1.334,0.611-1.854,1.859-2.582,2.908c-1.306,0.243-2.619-0.702-3.697,0.271c-4.51-1.209-10.376-2.283-15.666-3.265
		c-0.758-0.141-1.729-0.351-2.658-0.479C200.823,343.214,199.651,342.859,198.893,343.076z M225.548,348.324
		c0.438-3.305,7.41-4.35,6.947,0.79c-1.898,0.315-1.752,2.677-0.379,3.193c-0.297,0.849-0.61,1.828-1.49,2.43
		c-1.83,1.25-5.033,1.119-5.879-0.642c-0.43-0.892-0.174-1.965-0.043-2.838C226.558,351.204,226.882,348.916,225.548,348.324z"/>
	<path fill-rule="evenodd" clip-rule="evenodd" fill="none" stroke="#27FFDA" stroke-miterlimit="10" d="M268.231,73.865
		c0.365-0.658,0.19-2.046-0.595-2.391c-0.498-0.221-0.878,0.233-1.405,0.361c-0.756-1.188-0.928-2.736-2.49-3.608
		c-0.534,0.13-0.844,0.933-0.775,1.371c0.031,0.452,0.5,0.823,0.439,1.292c-0.762,0.299-0.691-1.014-1.384-1.359
		c-0.608,0.244-1.218,0.487-1.755,1.113c0.064,0.594,0.686,1.083,0.66,1.693c-0.561-0.02-0.407-1.11-1.311-1.229
		c-0.401,0.213-0.785,0.531-1.146,0.951c0.438,1.456,1.119,2.865,1.971,4.245c-3.732,3.22-7.818,4.555-11.617,7.426
		c-1.368-0.929-2.357,0.168-3.418,0.885c-1.736-2.105-4.968-3.344-6.983-1.642c-0.615,0.521-1.44,1.661-1.847,2.458
		c-0.351,0.688-0.516,1.548-0.635,2.379c-0.117,0.811-0.26,1.692-0.16,2.286c0.102,0.625,0.582,1.126,0.563,1.711
		c-0.019,0.612-0.448,1.224-0.192,1.852c0.367,0.906,1.297,1.423,2.405,1.318c2.914,2.775,8.177,2,9.776-2.32
		c0.51-1.377-0.008-2.626-0.236-3.883c0.751-1.098,2.348-1.358,2.42-2.809c4.042-2.34,8.945-5.734,13.377-8.786
		c0.635-0.436,1.468-0.976,2.216-1.542C266.771,75.135,267.849,74.557,268.231,73.865z M245.691,89.029
		c2.028,2.645-2.155,8.318-5.468,4.361c1.118-1.566-0.658-3.133-1.994-2.523c-0.39-0.809-0.861-1.724-0.665-2.771
		c0.407-2.179,2.762-4.354,4.606-3.709c0.935,0.326,1.514,1.264,2.039,1.975C242.938,87.711,244.329,89.557,245.691,89.029z"/>
	<path fill-rule="evenodd" clip-rule="evenodd" fill="none" stroke="#27FFDA" stroke-miterlimit="10" d="M93.12,282.348
		c-0.855-0.049-2.188,0.813-2.154,1.786c0.021,0.619,0.673,0.784,1.061,1.261c-0.842,1.357-2.342,2.296-2.466,4.324
		c0.395,0.483,1.368,0.403,1.784,0.117c0.449-0.254,0.595-0.917,1.107-1.084c0.68,0.634-0.699,1.207-0.711,2.085
		c0.548,0.504,1.099,1.006,2.004,1.248c0.574-0.358,0.77-1.234,1.407-1.509c0.257,0.585-0.937,0.963-0.613,1.944
		c0.416,0.307,0.932,0.541,1.538,0.707c1.276-1.165,2.383-2.558,3.373-4.108c5.135,2.235,8.512,5.761,13.316,8.234
		c-0.273,1.857,1.336,2.33,2.589,3.063c-1.299,2.813-0.976,6.73,1.761,7.952c0.836,0.373,2.407,0.658,3.423,0.682
		c0.876,0.021,1.839-0.234,2.746-0.52c0.887-0.28,1.862-0.568,2.42-0.962c0.588-0.414,0.865-1.151,1.473-1.42
		c0.636-0.282,1.472-0.144,1.989-0.714c0.748-0.822,0.816-2.027,0.166-3.11c1.406-4.35-1.979-9.354-7.188-8.863
		c-1.659,0.156-2.682,1.299-3.857,2.152c-1.492-0.229-2.546-1.731-4.065-1.094c-4.383-2.985-10.272-6.33-15.573-9.364
		c-0.759-0.434-1.721-1.021-2.672-1.508C95.139,283.218,94.017,282.398,93.12,282.348z M119.733,297.951
		c1.706-3.378,9.573-1.89,7.153,3.448c-2.151-0.375-2.882,2.214-1.602,3.282c-0.636,0.797-1.339,1.731-2.507,2.046
		c-2.43,0.653-5.816-0.684-6.064-2.89c-0.126-1.116,0.55-2.17,1.018-3.058C119.739,301.417,120.944,299.085,119.733,297.951z"/>
	<path fill-rule="evenodd" clip-rule="evenodd" fill="none" stroke="#27FFDA" stroke-miterlimit="10" d="M233.338,255.339
		c-0.695,0.498-1.194,2.004-0.56,2.742c0.404,0.47,1.016,0.19,1.616,0.317c0.193,1.586-0.389,3.258,0.786,4.916
		c0.612,0.129,1.32-0.543,1.465-1.026c0.191-0.479-0.109-1.088,0.184-1.538c0.925,0.068,0.213,1.379,0.752,2.07
		c0.744,0.049,1.486,0.096,2.345-0.281c0.224-0.64-0.174-1.445,0.151-2.059c0.566,0.295-0.127,1.337,0.74,1.899
		c0.516-0.021,1.064-0.162,1.642-0.413c0.266-1.706,0.255-3.485,0.058-5.315c5.4-1.473,10.241-0.841,15.538-1.924
		c0.947,1.621,2.498,0.981,3.936,0.767c0.749,3.007,3.454,5.858,6.353,5.096c0.887-0.232,2.289-0.995,3.096-1.612
		c0.695-0.533,1.284-1.334,1.814-2.125c0.517-0.775,1.096-1.609,1.283-2.266c0.199-0.691-0.046-1.439,0.258-2.029
		c0.32-0.619,1.06-1.034,1.105-1.804c0.066-1.108-0.633-2.092-1.82-2.527c-1.629-4.271-7.399-6.052-11.153-2.407
		c-1.196,1.162-1.278,2.693-1.659,4.095c-1.306,0.756-3.068,0.245-3.854,1.694c-5.287,0.418-11.974,1.499-18.006,2.456
		c-0.863,0.137-1.98,0.282-3.027,0.498C235.458,254.753,234.067,254.817,233.338,255.339z M263.855,250.831
		c-0.784-3.702,6.281-7.471,7.738-1.793c-1.913,1.056-0.858,3.53,0.806,3.562c0.006,1.02,0.042,2.188-0.672,3.166
		c-1.483,2.03-4.961,3.109-6.535,1.546c-0.798-0.792-0.933-2.036-1.125-3.021C266.034,253.528,265.512,250.956,263.855,250.831z"/>
	<path fill-rule="evenodd" clip-rule="evenodd" fill="none" stroke="#27FFDA" stroke-miterlimit="10" d="M66.315,377.554
		c-0.697,0.498-1.194,2.005-0.561,2.742c0.404,0.47,1.016,0.19,1.617,0.318c0.193,1.586-0.389,3.258,0.787,4.916
		c0.611,0.128,1.318-0.544,1.466-1.027c0.188-0.479-0.112-1.088,0.183-1.538c0.924,0.068,0.211,1.379,0.752,2.071
		c0.74,0.049,1.484,0.095,2.342-0.282c0.226-0.64-0.173-1.445,0.152-2.058c0.567,0.295-0.126,1.337,0.741,1.898
		c0.516-0.021,1.064-0.161,1.642-0.413c0.264-1.706,0.255-3.485,0.056-5.314c5.402-1.474,10.241-0.841,15.54-1.924
		c0.948,1.62,2.498,0.98,3.936,0.766c0.748,3.007,3.454,5.858,6.352,5.097c0.887-0.233,2.29-0.995,3.096-1.613
		c0.696-0.533,1.285-1.334,1.814-2.125c0.518-0.774,1.097-1.609,1.283-2.266c0.199-0.69-0.047-1.439,0.259-2.029
		c0.32-0.618,1.059-1.034,1.105-1.804c0.066-1.108-0.633-2.092-1.819-2.527c-1.629-4.271-7.4-6.052-11.156-2.406
		c-1.194,1.161-1.276,2.692-1.657,4.094c-1.306,0.757-3.068,0.245-3.853,1.694c-5.289,0.419-11.975,1.5-18.008,2.457
		c-0.862,0.136-1.98,0.281-3.025,0.497C68.435,376.969,67.047,377.032,66.315,377.554z M96.833,373.047
		c-0.785-3.703,6.281-7.471,7.738-1.793c-1.913,1.055-0.859,3.53,0.808,3.561c0.003,1.02,0.04,2.188-0.674,3.166
		c-1.483,2.031-4.961,3.109-6.538,1.546c-0.795-0.791-0.93-2.035-1.12-3.021C99.01,375.743,98.489,373.172,96.833,373.047z"/>
	<path fill-rule="evenodd" clip-rule="evenodd" fill="none" stroke="#27FFDA" stroke-miterlimit="10" d="M392.521,240.504
		c-0.787-0.908-2.95-1.406-3.896-0.427c-0.603,0.625-0.133,1.439-0.232,2.296c-2.186,0.477-4.592-0.117-6.752,1.737
		c-0.098,0.868,0.931,1.769,1.623,1.907c0.692,0.203,1.502-0.295,2.168,0.054c0.024,1.3-1.895,0.476-2.789,1.319
		c0.029,1.042,0.062,2.085,0.699,3.231c0.92,0.228,1.99-0.431,2.889-0.058c-0.338,0.828-1.881,0-2.551,1.279
		c0.096,0.719,0.363,1.465,0.789,2.235c2.412,0.146,4.891-0.099,7.416-0.613c2.758,7.339,2.506,14.167,4.706,21.411
		c-2.137,1.532-1.042,3.611-0.556,5.587c-4.094,1.435-7.717,5.579-6.276,9.52c0.438,1.204,1.685,3.062,2.651,4.104
		c0.834,0.899,2.027,1.619,3.197,2.252c1.148,0.62,2.387,1.316,3.326,1.495c0.988,0.188,2.002-0.253,2.863,0.096
		c0.904,0.364,1.58,1.341,2.657,1.304c1.553-0.051,2.833-1.153,3.286-2.867c5.742-2.823,7.473-11.104,1.902-15.86
		c-1.775-1.517-3.92-1.432-5.922-1.78c-1.226-1.721-0.742-4.245-2.865-5.15c-1.271-7.314-3.648-16.494-5.769-24.781
		c-0.304-1.184-0.651-2.724-1.087-4.152C393.612,243.379,393.342,241.454,392.521,240.504z M402.776,282.458
		c5.061-1.575,11.232,7.78,3.508,10.551c-1.721-2.528-5.033-0.736-4.86,1.593c-1.419,0.136-3.044,0.339-4.499-0.528
		c-3.025-1.805-4.982-6.511-3.008-8.911c1-1.213,2.717-1.563,4.066-1.958C399.302,285.844,402.819,284.78,402.776,282.458z"/>
</g>
</svg>
