<?xml version="1.0" encoding="utf-8"?>
<!-- Generator: Adobe Illustrator 16.0.0, SVG Export Plug-In . SVG Version: 6.00 Build 0)  -->
<!DOCTYPE svg PUBLIC "-//W3C//DTD SVG 1.1//EN" "http://www.w3.org/Graphics/SVG/1.1/DTD/svg11.dtd">
<svg version="1.1" id="Layer_1" xmlns="http://www.w3.org/2000/svg" xmlns:xlink="http://www.w3.org/1999/xlink" x="0px" y="0px"
	 width="313.655px" height="228.774px" viewBox="0 0 313.655 228.774" enable-background="new 0 0 313.655 228.774"
	 xml:space="preserve">
<path fill-rule="evenodd" clip-rule="evenodd" fill="#fcb70c" d="M1.018,165.785c0-19.641-0.908-39.337,0.274-58.906
	c1.033-17.093,5.303-33.805,13.1-49.34c8.807-17.547,22.252-30.61,39.404-39.787C77.027,5.321,102.234,0.871,128.298,0.011
	c4.713-0.155,6.972,1.327,7.899,6.005c2.52,12.71,5.458,25.338,8.049,38.035c0.896,4.389-4.297,9.946-9.496,10.956
	c-11.095,2.156-22.195,4.271-32.275,9.863c-14.411,7.995-21.945,20.316-23.513,36.525c-0.446,4.612,1.519,6.795,6.298,6.711
	c8.159-0.142,16.323-0.091,24.484-0.013c6.711,0.064,10.981,4.226,10.99,10.852c0.045,32.979,0.042,65.959-0.002,98.94
	c-0.009,6.628-4.264,10.845-10.975,10.854c-32.98,0.047-65.96,0.046-98.941,0.004c-6.594-0.009-10.779-4.316-10.794-10.987
	c-0.04-17.322-0.014-34.645-0.014-51.968C0.345,165.786,0.682,165.785,1.018,165.785z"/>
<path fill-rule="evenodd" clip-rule="evenodd" fill="#fcb70c" d="M170.871,161.103c0-18.484-1.31-37.083,0.302-55.425
	c2.526-28.749,11.09-55.523,34.024-75.328c13.569-11.717,29.347-19.192,46.688-23.683c15.38-3.982,30.903-6.446,46.812-6.653
	c4.254-0.055,6.04,1.125,6.852,5.623c2.271,12.584,5.198,25.052,7.939,37.55c1.089,4.962-3.245,10.739-8.809,11.805
	c-11.271,2.16-22.61,4.175-32.76,9.99c-14.361,8.227-22.5,20.315-23,37.168c-0.125,4.219,1.556,6.088,5.879,5.999
	c8.16-0.167,16.326-0.118,24.488-0.06c6.396,0.046,11.42,4.946,11.428,11.262c0.042,32.653,0.035,65.305,0,97.958
	c-0.007,6.383-4.933,11.42-11.254,11.428c-32.985,0.045-65.972,0.046-98.958-0.004c-6.631-0.01-10.556-4.234-10.567-11.156
	c-0.028-18.825-0.01-37.65-0.01-56.476C170.242,161.103,170.556,161.103,170.871,161.103z"/>
</svg>
