<svg width="1440" height="710" viewBox="0 0 1440 710" fill="none" xmlns="http://www.w3.org/2000/svg">
<g filter="url(#filter0_d_1_19543)">
<rect width="1440" height="702" fill="#232E65" shape-rendering="crispEdges"/>
<rect x="0.5" y="0.5" width="1439" height="701" stroke="#02162E" shape-rendering="crispEdges"/>
<path d="M411.538 375.167H476.849L523.5 423.5H458.189L411.538 375.167Z" fill="white"/>
<path d="M523.5 326.833H458.189L411.538 375.167H476.849L523.5 326.833Z" fill="white"/>
<path d="M373.5 278.5H476.849L523.5 326.833H420.151L373.5 278.5Z" fill="white"/>
<mask id="path-6-outside-1_1_19543" maskUnits="userSpaceOnUse" x="574.5" y="294" width="486" height="104" fill="black">
<rect fill="white" x="574.5" y="294" width="486" height="104"/>
<path d="M600.756 336.864C603.572 332.768 606.985 329.525 610.996 327.136C615.007 324.747 619.316 323.552 623.924 323.552V350.304H616.884C611.423 350.304 607.369 351.371 604.724 353.504C602.079 355.637 600.756 359.349 600.756 364.64V396H575.668V324.192H600.756V336.864ZM701.526 359.264C701.526 361.227 701.398 363.189 701.142 365.152H653.654C653.91 369.077 654.977 372.021 656.854 373.984C658.817 375.861 661.291 376.8 664.278 376.8C668.459 376.8 671.446 374.923 673.238 371.168H699.99C698.881 376.117 696.705 380.555 693.462 384.48C690.305 388.32 686.294 391.349 681.43 393.568C676.566 395.787 671.19 396.896 665.302 396.896C658.219 396.896 651.905 395.403 646.358 392.416C640.897 389.429 636.587 385.163 633.43 379.616C630.358 374.069 628.822 367.541 628.822 360.032C628.822 352.523 630.358 346.037 633.43 340.576C636.502 335.029 640.769 330.763 646.23 327.776C651.777 324.789 658.134 323.296 665.302 323.296C672.385 323.296 678.657 324.747 684.118 327.648C689.579 330.549 693.846 334.731 696.918 340.192C699.99 345.568 701.526 351.925 701.526 359.264ZM675.926 352.992C675.926 349.92 674.902 347.531 672.854 345.824C670.806 344.032 668.246 343.136 665.174 343.136C662.102 343.136 659.585 343.989 657.622 345.696C655.659 347.317 654.379 349.749 653.782 352.992H675.926ZM758.769 323.552C767.046 323.552 773.617 326.325 778.481 331.872C783.345 337.333 785.777 344.757 785.777 354.144V396H760.689V357.472C760.689 353.376 759.622 350.176 757.489 347.872C755.356 345.483 752.497 344.288 748.913 344.288C745.158 344.288 742.214 345.483 740.081 347.872C737.948 350.176 736.881 353.376 736.881 357.472V396H711.793V324.192H736.881V334.432C739.1 331.189 742.086 328.587 745.841 326.624C749.596 324.576 753.905 323.552 758.769 323.552ZM838.327 345.056H827.063V396H801.847V345.056H794.039V324.192H801.847V323.552C801.847 314.336 804.535 307.296 809.911 302.432C815.372 297.483 823.18 295.008 833.335 295.008C835.383 295.008 836.962 295.051 838.071 295.136V316.512C837.388 316.427 836.45 316.384 835.255 316.384C832.524 316.384 830.519 317.024 829.239 318.304C827.959 319.499 827.234 321.461 827.063 324.192H838.327V345.056ZM880.701 396.896C873.533 396.896 867.09 395.403 861.373 392.416C855.741 389.429 851.304 385.163 848.061 379.616C844.818 374.069 843.197 367.541 843.197 360.032C843.197 352.608 844.818 346.123 848.061 340.576C851.389 335.029 855.869 330.763 861.501 327.776C867.218 324.789 873.661 323.296 880.829 323.296C887.997 323.296 894.397 324.789 900.029 327.776C905.746 330.763 910.226 335.029 913.469 340.576C916.797 346.123 918.461 352.608 918.461 360.032C918.461 367.456 916.797 373.984 913.469 379.616C910.226 385.163 905.746 389.429 900.029 392.416C894.312 395.403 887.869 396.896 880.701 396.896ZM880.701 375.136C884.2 375.136 887.101 373.856 889.405 371.296C891.794 368.651 892.989 364.896 892.989 360.032C892.989 355.168 891.794 351.456 889.405 348.896C887.101 346.336 884.242 345.056 880.829 345.056C877.416 345.056 874.557 346.336 872.253 348.896C869.949 351.456 868.797 355.168 868.797 360.032C868.797 364.981 869.906 368.736 872.125 371.296C874.344 373.856 877.202 375.136 880.701 375.136ZM953.756 336.864C956.572 332.768 959.985 329.525 963.996 327.136C968.007 324.747 972.316 323.552 976.924 323.552V350.304H969.884C964.423 350.304 960.369 351.371 957.724 353.504C955.079 355.637 953.756 359.349 953.756 364.64V396H928.668V324.192H953.756V336.864ZM981.822 360.032C981.822 352.608 983.145 346.123 985.79 340.576C988.521 335.029 992.233 330.763 996.926 327.776C1001.62 324.789 1006.82 323.296 1012.54 323.296C1017.15 323.296 1021.25 324.277 1024.83 326.24C1028.5 328.117 1031.36 330.72 1033.41 334.048V301.28H1058.62V396H1033.41V386.016C1031.44 389.344 1028.67 391.989 1025.09 393.952C1021.5 395.915 1017.28 396.896 1012.41 396.896C1006.7 396.896 1001.49 395.403 996.798 392.416C992.19 389.429 988.521 385.163 985.79 379.616C983.145 373.984 981.822 367.456 981.822 360.032ZM1033.53 360.032C1033.53 355.424 1032.25 351.797 1029.69 349.152C1027.22 346.507 1024.15 345.184 1020.48 345.184C1016.72 345.184 1013.61 346.507 1011.13 349.152C1008.66 351.712 1007.42 355.339 1007.42 360.032C1007.42 364.64 1008.66 368.309 1011.13 371.04C1013.61 373.685 1016.72 375.008 1020.48 375.008C1024.15 375.008 1027.22 373.685 1029.69 371.04C1032.25 368.395 1033.53 364.725 1033.53 360.032Z"/>
</mask>
<path d="M600.756 336.864C603.572 332.768 606.985 329.525 610.996 327.136C615.007 324.747 619.316 323.552 623.924 323.552V350.304H616.884C611.423 350.304 607.369 351.371 604.724 353.504C602.079 355.637 600.756 359.349 600.756 364.64V396H575.668V324.192H600.756V336.864ZM701.526 359.264C701.526 361.227 701.398 363.189 701.142 365.152H653.654C653.91 369.077 654.977 372.021 656.854 373.984C658.817 375.861 661.291 376.8 664.278 376.8C668.459 376.8 671.446 374.923 673.238 371.168H699.99C698.881 376.117 696.705 380.555 693.462 384.48C690.305 388.32 686.294 391.349 681.43 393.568C676.566 395.787 671.19 396.896 665.302 396.896C658.219 396.896 651.905 395.403 646.358 392.416C640.897 389.429 636.587 385.163 633.43 379.616C630.358 374.069 628.822 367.541 628.822 360.032C628.822 352.523 630.358 346.037 633.43 340.576C636.502 335.029 640.769 330.763 646.23 327.776C651.777 324.789 658.134 323.296 665.302 323.296C672.385 323.296 678.657 324.747 684.118 327.648C689.579 330.549 693.846 334.731 696.918 340.192C699.99 345.568 701.526 351.925 701.526 359.264ZM675.926 352.992C675.926 349.92 674.902 347.531 672.854 345.824C670.806 344.032 668.246 343.136 665.174 343.136C662.102 343.136 659.585 343.989 657.622 345.696C655.659 347.317 654.379 349.749 653.782 352.992H675.926ZM758.769 323.552C767.046 323.552 773.617 326.325 778.481 331.872C783.345 337.333 785.777 344.757 785.777 354.144V396H760.689V357.472C760.689 353.376 759.622 350.176 757.489 347.872C755.356 345.483 752.497 344.288 748.913 344.288C745.158 344.288 742.214 345.483 740.081 347.872C737.948 350.176 736.881 353.376 736.881 357.472V396H711.793V324.192H736.881V334.432C739.1 331.189 742.086 328.587 745.841 326.624C749.596 324.576 753.905 323.552 758.769 323.552ZM838.327 345.056H827.063V396H801.847V345.056H794.039V324.192H801.847V323.552C801.847 314.336 804.535 307.296 809.911 302.432C815.372 297.483 823.18 295.008 833.335 295.008C835.383 295.008 836.962 295.051 838.071 295.136V316.512C837.388 316.427 836.45 316.384 835.255 316.384C832.524 316.384 830.519 317.024 829.239 318.304C827.959 319.499 827.234 321.461 827.063 324.192H838.327V345.056ZM880.701 396.896C873.533 396.896 867.09 395.403 861.373 392.416C855.741 389.429 851.304 385.163 848.061 379.616C844.818 374.069 843.197 367.541 843.197 360.032C843.197 352.608 844.818 346.123 848.061 340.576C851.389 335.029 855.869 330.763 861.501 327.776C867.218 324.789 873.661 323.296 880.829 323.296C887.997 323.296 894.397 324.789 900.029 327.776C905.746 330.763 910.226 335.029 913.469 340.576C916.797 346.123 918.461 352.608 918.461 360.032C918.461 367.456 916.797 373.984 913.469 379.616C910.226 385.163 905.746 389.429 900.029 392.416C894.312 395.403 887.869 396.896 880.701 396.896ZM880.701 375.136C884.2 375.136 887.101 373.856 889.405 371.296C891.794 368.651 892.989 364.896 892.989 360.032C892.989 355.168 891.794 351.456 889.405 348.896C887.101 346.336 884.242 345.056 880.829 345.056C877.416 345.056 874.557 346.336 872.253 348.896C869.949 351.456 868.797 355.168 868.797 360.032C868.797 364.981 869.906 368.736 872.125 371.296C874.344 373.856 877.202 375.136 880.701 375.136ZM953.756 336.864C956.572 332.768 959.985 329.525 963.996 327.136C968.007 324.747 972.316 323.552 976.924 323.552V350.304H969.884C964.423 350.304 960.369 351.371 957.724 353.504C955.079 355.637 953.756 359.349 953.756 364.64V396H928.668V324.192H953.756V336.864ZM981.822 360.032C981.822 352.608 983.145 346.123 985.79 340.576C988.521 335.029 992.233 330.763 996.926 327.776C1001.62 324.789 1006.82 323.296 1012.54 323.296C1017.15 323.296 1021.25 324.277 1024.83 326.24C1028.5 328.117 1031.36 330.72 1033.41 334.048V301.28H1058.62V396H1033.41V386.016C1031.44 389.344 1028.67 391.989 1025.09 393.952C1021.5 395.915 1017.28 396.896 1012.41 396.896C1006.7 396.896 1001.49 395.403 996.798 392.416C992.19 389.429 988.521 385.163 985.79 379.616C983.145 373.984 981.822 367.456 981.822 360.032ZM1033.53 360.032C1033.53 355.424 1032.25 351.797 1029.69 349.152C1027.22 346.507 1024.15 345.184 1020.48 345.184C1016.72 345.184 1013.61 346.507 1011.13 349.152C1008.66 351.712 1007.42 355.339 1007.42 360.032C1007.42 364.64 1008.66 368.309 1011.13 371.04C1013.61 373.685 1016.72 375.008 1020.48 375.008C1024.15 375.008 1027.22 373.685 1029.69 371.04C1032.25 368.395 1033.53 364.725 1033.53 360.032Z" fill="white"/>
<path d="M600.756 336.864H599.756V340.084L601.58 337.431L600.756 336.864ZM623.924 323.552H624.924V322.552H623.924V323.552ZM623.924 350.304V351.304H624.924V350.304H623.924ZM604.724 353.504L605.352 354.282V354.282L604.724 353.504ZM600.756 396V397H601.756V396H600.756ZM575.668 396H574.668V397H575.668V396ZM575.668 324.192V323.192H574.668V324.192H575.668ZM600.756 324.192H601.756V323.192H600.756V324.192ZM600.756 336.864L601.58 337.431C604.32 333.446 607.629 330.306 611.508 327.995L610.996 327.136L610.484 326.277C606.342 328.745 602.824 332.09 599.932 336.297L600.756 336.864ZM610.996 327.136L611.508 327.995C615.366 325.697 619.499 324.552 623.924 324.552V323.552V322.552C619.133 322.552 614.648 323.797 610.484 326.277L610.996 327.136ZM623.924 323.552H622.924V350.304H623.924H624.924V323.552H623.924ZM623.924 350.304V349.304H616.884V350.304V351.304H623.924V350.304ZM616.884 350.304V349.304C611.324 349.304 606.999 350.385 604.096 352.726L604.724 353.504L605.352 354.282C607.74 352.357 611.522 351.304 616.884 351.304V350.304ZM604.724 353.504L604.096 352.726C601.109 355.134 599.756 359.217 599.756 364.64H600.756H601.756C601.756 359.482 603.048 356.14 605.352 354.282L604.724 353.504ZM600.756 364.64H599.756V396H600.756H601.756V364.64H600.756ZM600.756 396V395H575.668V396V397H600.756V396ZM575.668 396H576.668V324.192H575.668H574.668V396H575.668ZM575.668 324.192V325.192H600.756V324.192V323.192H575.668V324.192ZM600.756 324.192H599.756V336.864H600.756H601.756V324.192H600.756ZM701.142 365.152V366.152H702.02L702.134 365.281L701.142 365.152ZM653.654 365.152V364.152H652.587L652.656 365.217L653.654 365.152ZM656.854 373.984L656.131 374.675L656.147 374.691L656.163 374.707L656.854 373.984ZM673.238 371.168V370.168H672.607L672.336 370.737L673.238 371.168ZM699.99 371.168L700.966 371.387L701.239 370.168H699.99V371.168ZM693.462 384.48L692.691 383.843L692.69 383.845L693.462 384.48ZM681.43 393.568L681.845 394.478V394.478L681.43 393.568ZM646.358 392.416L645.878 393.293L645.884 393.296L646.358 392.416ZM633.43 379.616L632.555 380.101L632.561 380.111L633.43 379.616ZM633.43 340.576L634.302 341.066L634.305 341.06L633.43 340.576ZM646.23 327.776L645.756 326.896L645.75 326.899L646.23 327.776ZM684.118 327.648L684.587 326.765V326.765L684.118 327.648ZM696.918 340.192L696.046 340.682L696.05 340.688L696.918 340.192ZM675.926 352.992V353.992H676.926V352.992H675.926ZM672.854 345.824L672.196 346.577L672.205 346.585L672.214 346.592L672.854 345.824ZM657.622 345.696L658.259 346.467L658.269 346.459L658.278 346.451L657.622 345.696ZM653.782 352.992L652.799 352.811L652.581 353.992H653.782V352.992ZM701.526 359.264H700.526C700.526 361.183 700.401 363.103 700.15 365.023L701.142 365.152L702.134 365.281C702.395 363.276 702.526 361.27 702.526 359.264H701.526ZM701.142 365.152V364.152H653.654V365.152V366.152H701.142V365.152ZM653.654 365.152L652.656 365.217C652.921 369.274 654.032 372.481 656.131 374.675L656.854 373.984L657.577 373.293C655.921 371.562 654.899 368.88 654.652 365.087L653.654 365.152ZM656.854 373.984L656.163 374.707C658.331 376.78 661.062 377.8 664.278 377.8V376.8V375.8C661.521 375.8 659.302 374.942 657.545 373.261L656.854 373.984ZM664.278 376.8V377.8C666.522 377.8 668.506 377.295 670.186 376.239C671.867 375.182 673.178 373.616 674.14 371.599L673.238 371.168L672.336 370.737C671.506 372.475 670.428 373.724 669.122 374.545C667.815 375.367 666.216 375.8 664.278 375.8V376.8ZM673.238 371.168V372.168H699.99V371.168V370.168H673.238V371.168ZM699.99 371.168L699.014 370.949C697.939 375.744 695.834 380.039 692.691 383.843L693.462 384.48L694.233 385.117C697.575 381.071 699.822 376.49 700.966 371.387L699.99 371.168ZM693.462 384.48L692.69 383.845C689.636 387.559 685.751 390.498 681.015 392.658L681.43 393.568L681.845 394.478C686.837 392.201 690.973 389.081 694.234 385.115L693.462 384.48ZM681.43 393.568L681.015 392.658C676.294 394.812 671.061 395.896 665.302 395.896V396.896V397.896C671.319 397.896 676.838 396.762 681.845 394.478L681.43 393.568ZM665.302 396.896V395.896C658.364 395.896 652.216 394.434 646.832 391.536L646.358 392.416L645.884 393.296C651.594 396.371 658.075 397.896 665.302 397.896V396.896ZM646.358 392.416L646.838 391.539C641.543 388.643 637.367 384.511 634.299 379.121L633.43 379.616L632.561 380.111C635.808 385.814 640.25 390.215 645.878 393.293L646.358 392.416ZM633.43 379.616L634.305 379.132C631.329 373.758 629.822 367.403 629.822 360.032H628.822H627.822C627.822 367.68 629.387 374.38 632.555 380.101L633.43 379.616ZM628.822 360.032H629.822C629.822 352.66 631.329 346.351 634.302 341.066L633.43 340.576L632.558 340.086C629.387 345.724 627.822 352.385 627.822 360.032H628.822ZM633.43 340.576L634.305 341.06C637.287 335.676 641.418 331.547 646.71 328.653L646.23 327.776L645.75 326.899C640.119 329.978 635.717 334.382 632.555 340.091L633.43 340.576ZM646.23 327.776L646.704 328.656C652.086 325.759 658.276 324.296 665.302 324.296V323.296V322.296C657.992 322.296 651.467 323.82 645.756 326.896L646.23 327.776ZM665.302 323.296V324.296C672.245 324.296 678.352 325.717 683.649 328.531L684.118 327.648L684.587 326.765C678.962 323.776 672.524 322.296 665.302 322.296V323.296ZM684.118 327.648L683.649 328.531C688.939 331.341 693.067 335.385 696.046 340.682L696.918 340.192L697.79 339.702C694.625 334.076 690.22 329.757 684.587 326.765L684.118 327.648ZM696.918 340.192L696.05 340.688C699.021 345.887 700.526 352.067 700.526 359.264H701.526H702.526C702.526 351.784 700.959 345.249 697.786 339.696L696.918 340.192ZM675.926 352.992H676.926C676.926 349.674 675.806 346.983 673.494 345.056L672.854 345.824L672.214 346.592C673.998 348.079 674.926 350.166 674.926 352.992H675.926ZM672.854 345.824L673.513 345.071C671.259 343.099 668.455 342.136 665.174 342.136V343.136V344.136C668.037 344.136 670.353 344.965 672.196 346.577L672.854 345.824ZM665.174 343.136V342.136C661.907 342.136 659.142 343.049 656.966 344.941L657.622 345.696L658.278 346.451C660.027 344.93 662.297 344.136 665.174 344.136V343.136ZM657.622 345.696L656.985 344.925C654.793 346.736 653.426 349.406 652.799 352.811L653.782 352.992L654.765 353.173C655.333 350.092 656.525 347.899 658.259 346.467L657.622 345.696ZM653.782 352.992V353.992H675.926V352.992V351.992H653.782V352.992ZM778.481 331.872L777.729 332.531L777.734 332.537L778.481 331.872ZM785.777 396V397H786.777V396H785.777ZM760.689 396H759.689V397H760.689V396ZM757.489 347.872L756.743 348.538L756.749 348.545L756.755 348.551L757.489 347.872ZM740.081 347.872L740.815 348.551L740.821 348.545L740.827 348.538L740.081 347.872ZM736.881 396V397H737.881V396H736.881ZM711.793 396H710.793V397H711.793V396ZM711.793 324.192V323.192H710.793V324.192H711.793ZM736.881 324.192H737.881V323.192H736.881V324.192ZM736.881 334.432H735.881V337.664L737.706 334.997L736.881 334.432ZM745.841 326.624L746.304 327.51L746.312 327.506L746.32 327.502L745.841 326.624ZM758.769 323.552V324.552C766.798 324.552 773.079 327.229 777.729 332.531L778.481 331.872L779.233 331.213C774.155 325.422 767.295 322.552 758.769 322.552V323.552ZM778.481 331.872L777.734 332.537C782.393 337.768 784.777 344.931 784.777 354.144H785.777H786.777C786.777 344.584 784.297 336.899 779.228 331.207L778.481 331.872ZM785.777 354.144H784.777V396H785.777H786.777V354.144H785.777ZM785.777 396V395H760.689V396V397H785.777V396ZM760.689 396H761.689V357.472H760.689H759.689V396H760.689ZM760.689 357.472H761.689C761.689 353.203 760.574 349.732 758.223 347.193L757.489 347.872L756.755 348.551C758.67 350.62 759.689 353.549 759.689 357.472H760.689ZM757.489 347.872L758.235 347.206C755.888 344.578 752.744 343.288 748.913 343.288V344.288V345.288C752.25 345.288 754.823 346.388 756.743 348.538L757.489 347.872ZM748.913 344.288V343.288C744.927 343.288 741.691 344.567 739.335 347.206L740.081 347.872L740.827 348.538C742.737 346.398 745.389 345.288 748.913 345.288V344.288ZM740.081 347.872L739.347 347.193C736.996 349.732 735.881 353.203 735.881 357.472H736.881H737.881C737.881 353.549 738.9 350.62 740.815 348.551L740.081 347.872ZM736.881 357.472H735.881V396H736.881H737.881V357.472H736.881ZM736.881 396V395H711.793V396V397H736.881V396ZM711.793 396H712.793V324.192H711.793H710.793V396H711.793ZM711.793 324.192V325.192H736.881V324.192V323.192H711.793V324.192ZM736.881 324.192H735.881V334.432H736.881H737.881V324.192H736.881ZM736.881 334.432L737.706 334.997C739.825 331.9 742.683 329.403 746.304 327.51L745.841 326.624L745.378 325.738C741.49 327.77 738.374 330.479 736.056 333.867L736.881 334.432ZM745.841 326.624L746.32 327.502C749.908 325.544 754.049 324.552 758.769 324.552V323.552V322.552C753.761 322.552 749.283 323.608 745.362 325.746L745.841 326.624ZM838.327 345.056V346.056H839.327V345.056H838.327ZM827.063 345.056V344.056H826.063V345.056H827.063ZM827.063 396V397H828.063V396H827.063ZM801.847 396H800.847V397H801.847V396ZM801.847 345.056H802.847V344.056H801.847V345.056ZM794.039 345.056H793.039V346.056H794.039V345.056ZM794.039 324.192V323.192H793.039V324.192H794.039ZM801.847 324.192V325.192H802.847V324.192H801.847ZM809.911 302.432L810.582 303.174L810.583 303.173L809.911 302.432ZM838.071 295.136H839.071V294.21L838.148 294.139L838.071 295.136ZM838.071 316.512L837.947 317.504L839.071 317.645V316.512H838.071ZM829.239 318.304L829.921 319.035L829.934 319.023L829.946 319.011L829.239 318.304ZM827.063 324.192L826.065 324.13L825.999 325.192H827.063V324.192ZM838.327 324.192H839.327V323.192H838.327V324.192ZM838.327 345.056V344.056H827.063V345.056V346.056H838.327V345.056ZM827.063 345.056H826.063V396H827.063H828.063V345.056H827.063ZM827.063 396V395H801.847V396V397H827.063V396ZM801.847 396H802.847V345.056H801.847H800.847V396H801.847ZM801.847 345.056V344.056H794.039V345.056V346.056H801.847V345.056ZM794.039 345.056H795.039V324.192H794.039H793.039V345.056H794.039ZM794.039 324.192V325.192H801.847V324.192V323.192H794.039V324.192ZM801.847 324.192H802.847V323.552H801.847H800.847V324.192H801.847ZM801.847 323.552H802.847C802.847 314.537 805.469 307.799 810.582 303.174L809.911 302.432L809.24 301.69C803.601 306.793 800.847 314.135 800.847 323.552H801.847ZM809.911 302.432L810.583 303.173C815.8 298.444 823.334 296.008 833.335 296.008V295.008V294.008C823.026 294.008 814.944 296.521 809.239 301.691L809.911 302.432ZM833.335 295.008V296.008C835.375 296.008 836.923 296.051 837.994 296.133L838.071 295.136L838.148 294.139C837 294.051 835.391 294.008 833.335 294.008V295.008ZM838.071 295.136H837.071V316.512H838.071H839.071V295.136H838.071ZM838.071 316.512L838.195 315.52C837.452 315.427 836.466 315.384 835.255 315.384V316.384V317.384C836.434 317.384 837.325 317.426 837.947 317.504L838.071 316.512ZM835.255 316.384V315.384C832.392 315.384 830.076 316.053 828.532 317.597L829.239 318.304L829.946 319.011C830.962 317.995 832.657 317.384 835.255 317.384V316.384ZM829.239 318.304L828.557 317.573C827.009 319.018 826.243 321.282 826.065 324.13L827.063 324.192L828.061 324.254C828.224 321.64 828.909 319.979 829.921 319.035L829.239 318.304ZM827.063 324.192V325.192H838.327V324.192V323.192H827.063V324.192ZM838.327 324.192H837.327V345.056H838.327H839.327V324.192H838.327ZM861.373 392.416L860.904 393.299L860.91 393.302L861.373 392.416ZM848.061 379.616L848.924 379.111V379.111L848.061 379.616ZM848.061 340.576L847.203 340.061L847.198 340.071L848.061 340.576ZM861.501 327.776L861.038 326.89L861.033 326.893L861.501 327.776ZM900.029 327.776L899.56 328.659L899.566 328.662L900.029 327.776ZM913.469 340.576L912.606 341.081L912.612 341.09L913.469 340.576ZM913.469 379.616L912.608 379.107L912.606 379.111L913.469 379.616ZM900.029 392.416L899.566 391.53L900.029 392.416ZM889.405 371.296L888.663 370.626L888.662 370.627L889.405 371.296ZM889.405 348.896L888.662 349.565L888.668 349.572L888.674 349.578L889.405 348.896ZM872.125 371.296L871.369 371.951V371.951L872.125 371.296ZM880.701 396.896V395.896C873.676 395.896 867.395 394.434 861.836 391.53L861.373 392.416L860.91 393.302C866.786 396.372 873.39 397.896 880.701 397.896V396.896ZM861.373 392.416L861.841 391.533C856.375 388.634 852.074 384.499 848.924 379.111L848.061 379.616L847.198 380.121C850.533 385.827 855.107 390.225 860.905 393.299L861.373 392.416ZM848.061 379.616L848.924 379.111C845.785 373.742 844.197 367.394 844.197 360.032H843.197H842.197C842.197 367.688 843.851 374.397 847.198 380.121L848.061 379.616ZM843.197 360.032H844.197C844.197 352.757 845.784 346.452 848.924 341.081L848.061 340.576L847.198 340.071C843.852 345.794 842.197 352.459 842.197 360.032H843.197ZM848.061 340.576L848.918 341.09C852.154 335.698 856.501 331.56 861.97 328.659L861.501 327.776L861.033 326.893C855.237 329.966 850.624 334.361 847.204 340.062L848.061 340.576ZM861.501 327.776L861.964 328.662C867.523 325.758 873.804 324.296 880.829 324.296V323.296V322.296C873.518 322.296 866.914 323.82 861.038 326.89L861.501 327.776ZM880.829 323.296V324.296C887.854 324.296 894.09 325.758 899.56 328.659L900.029 327.776L900.497 326.893C894.704 323.82 888.14 322.296 880.829 322.296V323.296ZM900.029 327.776L899.566 328.662C905.117 331.562 909.458 335.697 912.606 341.081L913.469 340.576L914.332 340.071C910.994 334.362 906.375 329.963 900.492 326.89L900.029 327.776ZM913.469 340.576L912.612 341.09C915.833 346.46 917.461 352.762 917.461 360.032H918.461H919.461C919.461 352.454 917.761 345.785 914.327 340.062L913.469 340.576ZM918.461 360.032H917.461C917.461 367.302 915.833 373.649 912.608 379.107L913.469 379.616L914.33 380.125C917.761 374.319 919.461 367.61 919.461 360.032H918.461ZM913.469 379.616L912.606 379.111C909.458 384.495 905.117 388.63 899.566 391.53L900.029 392.416L900.492 393.302C906.375 390.229 910.994 385.83 914.332 380.121L913.469 379.616ZM900.029 392.416L899.566 391.53C894.007 394.434 887.726 395.896 880.701 395.896V396.896V397.896C888.012 397.896 894.616 396.372 900.492 393.302L900.029 392.416ZM880.701 375.136V376.136C884.478 376.136 887.651 374.739 890.148 371.965L889.405 371.296L888.662 370.627C886.551 372.973 883.921 374.136 880.701 374.136V375.136ZM889.405 371.296L890.147 371.966C892.755 369.079 893.989 365.053 893.989 360.032H892.989H891.989C891.989 364.739 890.834 368.222 888.663 370.626L889.405 371.296ZM892.989 360.032H893.989C893.989 355.014 892.756 351.021 890.136 348.214L889.405 348.896L888.674 349.578C890.833 351.891 891.989 355.322 891.989 360.032H892.989ZM889.405 348.896L890.148 348.227C887.657 345.458 884.529 344.056 880.829 344.056V345.056V346.056C883.956 346.056 886.545 347.214 888.662 349.565L889.405 348.896ZM880.829 345.056V344.056C877.129 344.056 874.001 345.458 871.51 348.227L872.253 348.896L872.996 349.565C875.113 347.214 877.702 346.056 880.829 346.056V345.056ZM872.253 348.896L871.51 348.227C868.983 351.034 867.797 355.022 867.797 360.032H868.797H869.797C869.797 355.314 870.915 351.878 872.996 349.565L872.253 348.896ZM868.797 360.032H867.797C867.797 365.113 868.934 369.141 871.369 371.951L872.125 371.296L872.881 370.641C870.878 368.331 869.797 364.849 869.797 360.032H868.797ZM872.125 371.296L871.369 371.951C873.785 374.738 876.923 376.136 880.701 376.136V375.136V374.136C877.481 374.136 874.902 372.974 872.881 370.641L872.125 371.296ZM953.756 336.864H952.756V340.084L954.58 337.431L953.756 336.864ZM976.924 323.552H977.924V322.552H976.924V323.552ZM976.924 350.304V351.304H977.924V350.304H976.924ZM957.724 353.504L958.352 354.282V354.282L957.724 353.504ZM953.756 396V397H954.756V396H953.756ZM928.668 396H927.668V397H928.668V396ZM928.668 324.192V323.192H927.668V324.192H928.668ZM953.756 324.192H954.756V323.192H953.756V324.192ZM953.756 336.864L954.58 337.431C957.32 333.446 960.629 330.306 964.508 327.995L963.996 327.136L963.484 326.277C959.342 328.745 955.824 332.09 952.932 336.297L953.756 336.864ZM963.996 327.136L964.508 327.995C968.366 325.697 972.499 324.552 976.924 324.552V323.552V322.552C972.133 322.552 967.648 323.797 963.484 326.277L963.996 327.136ZM976.924 323.552H975.924V350.304H976.924H977.924V323.552H976.924ZM976.924 350.304V349.304H969.884V350.304V351.304H976.924V350.304ZM969.884 350.304V349.304C964.324 349.304 959.999 350.385 957.096 352.726L957.724 353.504L958.352 354.282C960.74 352.357 964.522 351.304 969.884 351.304V350.304ZM957.724 353.504L957.096 352.726C954.109 355.134 952.756 359.217 952.756 364.64H953.756H954.756C954.756 359.482 956.048 356.14 958.352 354.282L957.724 353.504ZM953.756 364.64H952.756V396H953.756H954.756V364.64H953.756ZM953.756 396V395H928.668V396V397H953.756V396ZM928.668 396H929.668V324.192H928.668H927.668V396H928.668ZM928.668 324.192V325.192H953.756V324.192V323.192H928.668V324.192ZM953.756 324.192H952.756V336.864H953.756H954.756V324.192H953.756ZM985.79 340.576L984.893 340.134L984.887 340.146L985.79 340.576ZM996.926 327.776L996.389 326.932V326.932L996.926 327.776ZM1024.83 326.24L1024.35 327.117L1024.36 327.124L1024.37 327.13L1024.83 326.24ZM1033.41 334.048L1032.55 334.572L1034.41 337.581V334.048H1033.41ZM1033.41 301.28V300.28H1032.41V301.28H1033.41ZM1058.62 301.28H1059.62V300.28H1058.62V301.28ZM1058.62 396V397H1059.62V396H1058.62ZM1033.41 396H1032.41V397H1033.41V396ZM1033.41 386.016H1034.41V382.352L1032.54 385.508L1033.41 386.016ZM1025.09 393.952L1024.61 393.075L1025.09 393.952ZM996.798 392.416L996.254 393.255L996.261 393.26L996.798 392.416ZM985.79 379.616L984.885 380.041L984.889 380.049L984.893 380.058L985.79 379.616ZM1029.69 349.152L1028.96 349.835L1028.97 349.841L1028.98 349.847L1029.69 349.152ZM1011.13 349.152L1011.85 349.847L1011.86 349.841L1011.86 349.835L1011.13 349.152ZM1011.13 371.04L1010.39 371.712L1010.4 371.717L1010.4 371.723L1011.13 371.04ZM1029.69 371.04L1028.98 370.345L1028.97 370.351L1028.96 370.357L1029.69 371.04ZM981.822 360.032H982.822C982.822 352.726 984.123 346.394 986.693 341.006L985.79 340.576L984.887 340.146C982.166 345.852 980.822 352.49 980.822 360.032H981.822ZM985.79 340.576L986.687 341.018C989.346 335.617 992.941 331.497 997.463 328.62L996.926 327.776L996.389 326.932C991.524 330.028 987.695 334.442 984.893 340.134L985.79 340.576ZM996.926 327.776L997.463 328.62C1001.99 325.738 1007.01 324.296 1012.54 324.296V323.296V322.296C1006.64 322.296 1001.25 323.841 996.389 326.932L996.926 327.776ZM1012.54 323.296V324.296C1017 324.296 1020.93 325.245 1024.35 327.117L1024.83 326.24L1025.31 325.363C1021.56 323.31 1017.3 322.296 1012.54 322.296V323.296ZM1024.83 326.24L1024.37 327.13C1027.89 328.929 1030.61 331.409 1032.55 334.572L1033.41 334.048L1034.26 333.524C1032.11 330.031 1029.11 327.306 1025.29 325.35L1024.83 326.24ZM1033.41 334.048H1034.41V301.28H1033.41H1032.41V334.048H1033.41ZM1033.41 301.28V302.28H1058.62V301.28V300.28H1033.41V301.28ZM1058.62 301.28H1057.62V396H1058.62H1059.62V301.28H1058.62ZM1058.62 396V395H1033.41V396V397H1058.62V396ZM1033.41 396H1034.41V386.016H1033.41H1032.41V396H1033.41ZM1033.41 386.016L1032.54 385.508C1030.68 388.672 1028.04 391.194 1024.61 393.075L1025.09 393.952L1025.57 394.829C1029.3 392.785 1032.21 390.016 1034.27 386.524L1033.41 386.016ZM1025.09 393.952L1024.61 393.075C1021.19 394.943 1017.14 395.896 1012.41 395.896V396.896V397.896C1017.41 397.896 1021.81 396.886 1025.57 394.829L1025.09 393.952ZM1012.41 396.896V395.896C1006.88 395.896 1001.86 394.454 997.335 391.572L996.798 392.416L996.261 393.26C1001.12 396.351 1006.51 397.896 1012.41 397.896V396.896ZM996.798 392.416L997.342 391.577C992.904 388.7 989.348 384.58 986.687 379.174L985.79 379.616L984.893 380.058C987.693 385.745 991.476 390.158 996.254 393.255L996.798 392.416ZM985.79 379.616L986.695 379.191C984.123 373.715 982.822 367.337 982.822 360.032H981.822H980.822C980.822 367.575 982.166 374.253 984.885 380.041L985.79 379.616ZM1033.53 360.032H1034.53C1034.53 355.233 1033.2 351.333 1030.41 348.457L1029.69 349.152L1028.98 349.847C1031.31 352.262 1032.53 355.615 1032.53 360.032H1033.53ZM1029.69 349.152L1030.42 348.469C1027.76 345.618 1024.42 344.184 1020.48 344.184V345.184V346.184C1023.87 346.184 1026.68 347.395 1028.96 349.835L1029.69 349.152ZM1020.48 345.184V344.184C1016.46 344.184 1013.08 345.613 1010.4 348.469L1011.13 349.152L1011.86 349.835C1014.14 347.4 1016.99 346.184 1020.48 346.184V345.184ZM1011.13 349.152L1010.42 348.457C1007.71 351.257 1006.42 355.164 1006.42 360.032H1007.42H1008.42C1008.42 355.513 1009.61 352.167 1011.85 349.847L1011.13 349.152ZM1007.42 360.032H1006.42C1006.42 364.824 1007.71 368.754 1010.39 371.712L1011.13 371.04L1011.88 370.368C1009.61 367.865 1008.42 364.456 1008.42 360.032H1007.42ZM1011.13 371.04L1010.4 371.723C1013.08 374.579 1016.46 376.008 1020.48 376.008V375.008V374.008C1016.99 374.008 1014.14 372.792 1011.86 370.357L1011.13 371.04ZM1020.48 375.008V376.008C1024.42 376.008 1027.76 374.574 1030.42 371.723L1029.69 371.04L1028.96 370.357C1026.68 372.797 1023.87 374.008 1020.48 374.008V375.008ZM1029.69 371.04L1030.41 371.735C1033.2 368.856 1034.53 364.91 1034.53 360.032H1033.53H1032.53C1032.53 364.54 1031.31 367.933 1028.98 370.345L1029.69 371.04Z" fill="#02162E" mask="url(#path-6-outside-1_1_19543)"/>
</g>
<defs>
<filter id="filter0_d_1_19543" x="-4" y="0" width="1448" height="710" filterUnits="userSpaceOnUse" color-interpolation-filters="sRGB">
<feFlood flood-opacity="0" result="BackgroundImageFix"/>
<feColorMatrix in="SourceAlpha" type="matrix" values="0 0 0 0 0 0 0 0 0 0 0 0 0 0 0 0 0 0 127 0" result="hardAlpha"/>
<feOffset dy="4"/>
<feGaussianBlur stdDeviation="2"/>
<feComposite in2="hardAlpha" operator="out"/>
<feColorMatrix type="matrix" values="0 0 0 0 0 0 0 0 0 0 0 0 0 0 0 0 0 0 0.25 0"/>
<feBlend mode="normal" in2="BackgroundImageFix" result="effect1_dropShadow_1_19543"/>
<feBlend mode="normal" in="SourceGraphic" in2="effect1_dropShadow_1_19543" result="shape"/>
</filter>
</defs>
</svg>
