<svg width="426" height="112" viewBox="0 0 426 112" fill="none" xmlns="http://www.w3.org/2000/svg">
<rect width="426" height="96" transform="translate(0 8)" fill="white"/>
<path d="M69.5263 68.3333H103.053L127 92.9999H93.4737L69.5263 68.3333Z" fill="#232E65"/>
<path d="M127 43.6667H93.4737L69.5263 68.3334H103.053L127 43.6667Z" fill="#232E65"/>
<path d="M50 19H103.053L127 43.6667H73.9474L50 19Z" fill="#232E65"/>
<mask id="path-5-outside-1_47_269" maskUnits="userSpaceOnUse" x="146.5" y="26" width="245" height="54" fill="black">
<rect fill="white" x="146.5" y="26" width="245" height="54"/>
<path d="M160.628 48.432C162.036 46.384 163.743 44.7627 165.748 43.568C167.753 42.3733 169.908 41.776 172.212 41.776V55.152H168.692C165.961 55.152 163.935 55.6853 162.612 56.752C161.289 57.8187 160.628 59.6747 160.628 62.32V78H148.084V42.096H160.628V48.432ZM211.013 59.632C211.013 60.6133 210.949 61.5947 210.821 62.576H187.077C187.205 64.5387 187.738 66.0107 188.677 66.992C189.658 67.9307 190.896 68.4 192.389 68.4C194.48 68.4 195.973 67.4613 196.869 65.584H210.245C209.69 68.0587 208.602 70.2773 206.981 72.24C205.402 74.16 203.397 75.6747 200.965 76.784C198.533 77.8933 195.845 78.448 192.901 78.448C189.36 78.448 186.202 77.7013 183.429 76.208C180.698 74.7147 178.544 72.5813 176.965 69.808C175.429 67.0347 174.661 63.7707 174.661 60.016C174.661 56.2613 175.429 53.0187 176.965 50.288C178.501 47.5147 180.634 45.3813 183.365 43.888C186.138 42.3947 189.317 41.648 192.901 41.648C196.442 41.648 199.578 42.3733 202.309 43.824C205.04 45.2747 207.173 47.3653 208.709 50.096C210.245 52.784 211.013 55.9627 211.013 59.632ZM198.213 56.496C198.213 54.96 197.701 53.7653 196.677 52.912C195.653 52.016 194.373 51.568 192.837 51.568C191.301 51.568 190.042 51.9947 189.061 52.848C188.08 53.6587 187.44 54.8747 187.141 56.496H198.213ZM239.635 41.776C243.773 41.776 247.059 43.1627 249.491 45.936C251.923 48.6667 253.139 52.3787 253.139 57.072V78H240.595V58.736C240.595 56.688 240.061 55.088 238.995 53.936C237.928 52.7413 236.499 52.144 234.707 52.144C232.829 52.144 231.357 52.7413 230.291 53.936C229.224 55.088 228.691 56.688 228.691 58.736V78H216.147V42.096H228.691V47.216C229.8 45.5947 231.293 44.2933 233.171 43.312C235.048 42.288 237.203 41.776 239.635 41.776ZM279.414 52.528H273.782V78H261.174V52.528H257.27V42.096H261.174V41.776C261.174 37.168 262.518 33.648 265.206 31.216C267.936 28.7413 271.84 27.504 276.918 27.504C277.942 27.504 278.731 27.5253 279.286 27.568V38.256C278.944 38.2133 278.475 38.192 277.878 38.192C276.512 38.192 275.51 38.512 274.87 39.152C274.23 39.7493 273.867 40.7307 273.782 42.096H279.414V52.528ZM300.601 78.448C297.017 78.448 293.795 77.7013 290.937 76.208C288.121 74.7147 285.902 72.5813 284.281 69.808C282.659 67.0347 281.849 63.7707 281.849 60.016C281.849 56.304 282.659 53.0613 284.281 50.288C285.945 47.5147 288.185 45.3813 291.001 43.888C293.859 42.3947 297.081 41.648 300.665 41.648C304.249 41.648 307.449 42.3947 310.265 43.888C313.123 45.3813 315.363 47.5147 316.985 50.288C318.649 53.0613 319.481 56.304 319.481 60.016C319.481 63.728 318.649 66.992 316.985 69.808C315.363 72.5813 313.123 74.7147 310.265 76.208C307.406 77.7013 304.185 78.448 300.601 78.448ZM300.601 67.568C302.35 67.568 303.801 66.928 304.953 65.648C306.147 64.3253 306.745 62.448 306.745 60.016C306.745 57.584 306.147 55.728 304.953 54.448C303.801 53.168 302.371 52.528 300.665 52.528C298.958 52.528 297.529 53.168 296.377 54.448C295.225 55.728 294.649 57.584 294.649 60.016C294.649 62.4907 295.203 64.368 296.312 65.648C297.422 66.928 298.851 67.568 300.601 67.568ZM337.128 48.432C338.536 46.384 340.243 44.7627 342.248 43.568C344.253 42.3733 346.408 41.776 348.712 41.776V55.152H345.192C342.461 55.152 340.435 55.6853 339.112 56.752C337.789 57.8187 337.128 59.6747 337.128 62.32V78H324.584V42.096H337.128V48.432ZM351.161 60.016C351.161 56.304 351.822 53.0613 353.145 50.288C354.51 47.5147 356.366 45.3813 358.713 43.888C361.06 42.3947 363.662 41.648 366.521 41.648C368.825 41.648 370.873 42.1387 372.665 43.12C374.5 44.0587 375.929 45.36 376.953 47.024V30.64H389.561V78H376.953V73.008C375.972 74.672 374.585 75.9947 372.793 76.976C371.001 77.9573 368.889 78.448 366.457 78.448C363.598 78.448 360.996 77.7013 358.649 76.208C356.345 74.7147 354.51 72.5813 353.145 69.808C351.822 66.992 351.161 63.728 351.161 60.016ZM377.017 60.016C377.017 57.712 376.377 55.8987 375.097 54.576C373.86 53.2533 372.324 52.592 370.489 52.592C368.612 52.592 367.054 53.2533 365.817 54.576C364.58 55.856 363.961 57.6693 363.961 60.016C363.961 62.32 364.58 64.1547 365.817 65.52C367.054 66.8427 368.612 67.504 370.489 67.504C372.324 67.504 373.86 66.8427 375.097 65.52C376.377 64.1973 377.017 62.3627 377.017 60.016Z"/>
</mask>
<path d="M160.628 48.432C162.036 46.384 163.743 44.7627 165.748 43.568C167.753 42.3733 169.908 41.776 172.212 41.776V55.152H168.692C165.961 55.152 163.935 55.6853 162.612 56.752C161.289 57.8187 160.628 59.6747 160.628 62.32V78H148.084V42.096H160.628V48.432ZM211.013 59.632C211.013 60.6133 210.949 61.5947 210.821 62.576H187.077C187.205 64.5387 187.738 66.0107 188.677 66.992C189.658 67.9307 190.896 68.4 192.389 68.4C194.48 68.4 195.973 67.4613 196.869 65.584H210.245C209.69 68.0587 208.602 70.2773 206.981 72.24C205.402 74.16 203.397 75.6747 200.965 76.784C198.533 77.8933 195.845 78.448 192.901 78.448C189.36 78.448 186.202 77.7013 183.429 76.208C180.698 74.7147 178.544 72.5813 176.965 69.808C175.429 67.0347 174.661 63.7707 174.661 60.016C174.661 56.2613 175.429 53.0187 176.965 50.288C178.501 47.5147 180.634 45.3813 183.365 43.888C186.138 42.3947 189.317 41.648 192.901 41.648C196.442 41.648 199.578 42.3733 202.309 43.824C205.04 45.2747 207.173 47.3653 208.709 50.096C210.245 52.784 211.013 55.9627 211.013 59.632ZM198.213 56.496C198.213 54.96 197.701 53.7653 196.677 52.912C195.653 52.016 194.373 51.568 192.837 51.568C191.301 51.568 190.042 51.9947 189.061 52.848C188.08 53.6587 187.44 54.8747 187.141 56.496H198.213ZM239.635 41.776C243.773 41.776 247.059 43.1627 249.491 45.936C251.923 48.6667 253.139 52.3787 253.139 57.072V78H240.595V58.736C240.595 56.688 240.061 55.088 238.995 53.936C237.928 52.7413 236.499 52.144 234.707 52.144C232.829 52.144 231.357 52.7413 230.291 53.936C229.224 55.088 228.691 56.688 228.691 58.736V78H216.147V42.096H228.691V47.216C229.8 45.5947 231.293 44.2933 233.171 43.312C235.048 42.288 237.203 41.776 239.635 41.776ZM279.414 52.528H273.782V78H261.174V52.528H257.27V42.096H261.174V41.776C261.174 37.168 262.518 33.648 265.206 31.216C267.936 28.7413 271.84 27.504 276.918 27.504C277.942 27.504 278.731 27.5253 279.286 27.568V38.256C278.944 38.2133 278.475 38.192 277.878 38.192C276.512 38.192 275.51 38.512 274.87 39.152C274.23 39.7493 273.867 40.7307 273.782 42.096H279.414V52.528ZM300.601 78.448C297.017 78.448 293.795 77.7013 290.937 76.208C288.121 74.7147 285.902 72.5813 284.281 69.808C282.659 67.0347 281.849 63.7707 281.849 60.016C281.849 56.304 282.659 53.0613 284.281 50.288C285.945 47.5147 288.185 45.3813 291.001 43.888C293.859 42.3947 297.081 41.648 300.665 41.648C304.249 41.648 307.449 42.3947 310.265 43.888C313.123 45.3813 315.363 47.5147 316.985 50.288C318.649 53.0613 319.481 56.304 319.481 60.016C319.481 63.728 318.649 66.992 316.985 69.808C315.363 72.5813 313.123 74.7147 310.265 76.208C307.406 77.7013 304.185 78.448 300.601 78.448ZM300.601 67.568C302.35 67.568 303.801 66.928 304.953 65.648C306.147 64.3253 306.745 62.448 306.745 60.016C306.745 57.584 306.147 55.728 304.953 54.448C303.801 53.168 302.371 52.528 300.665 52.528C298.958 52.528 297.529 53.168 296.377 54.448C295.225 55.728 294.649 57.584 294.649 60.016C294.649 62.4907 295.203 64.368 296.312 65.648C297.422 66.928 298.851 67.568 300.601 67.568ZM337.128 48.432C338.536 46.384 340.243 44.7627 342.248 43.568C344.253 42.3733 346.408 41.776 348.712 41.776V55.152H345.192C342.461 55.152 340.435 55.6853 339.112 56.752C337.789 57.8187 337.128 59.6747 337.128 62.32V78H324.584V42.096H337.128V48.432ZM351.161 60.016C351.161 56.304 351.822 53.0613 353.145 50.288C354.51 47.5147 356.366 45.3813 358.713 43.888C361.06 42.3947 363.662 41.648 366.521 41.648C368.825 41.648 370.873 42.1387 372.665 43.12C374.5 44.0587 375.929 45.36 376.953 47.024V30.64H389.561V78H376.953V73.008C375.972 74.672 374.585 75.9947 372.793 76.976C371.001 77.9573 368.889 78.448 366.457 78.448C363.598 78.448 360.996 77.7013 358.649 76.208C356.345 74.7147 354.51 72.5813 353.145 69.808C351.822 66.992 351.161 63.728 351.161 60.016ZM377.017 60.016C377.017 57.712 376.377 55.8987 375.097 54.576C373.86 53.2533 372.324 52.592 370.489 52.592C368.612 52.592 367.054 53.2533 365.817 54.576C364.58 55.856 363.961 57.6693 363.961 60.016C363.961 62.32 364.58 64.1547 365.817 65.52C367.054 66.8427 368.612 67.504 370.489 67.504C372.324 67.504 373.86 66.8427 375.097 65.52C376.377 64.1973 377.017 62.3627 377.017 60.016Z" fill="#232E65"/>
<path d="M160.628 48.432H159.628V51.6517L161.452 48.9985L160.628 48.432ZM172.212 41.776H173.212V40.776H172.212V41.776ZM172.212 55.152V56.152H173.212V55.152H172.212ZM162.612 56.752L163.24 57.5304V57.5304L162.612 56.752ZM160.628 78V79H161.628V78H160.628ZM148.084 78H147.084V79H148.084V78ZM148.084 42.096V41.096H147.084V42.096H148.084ZM160.628 42.096H161.628V41.096H160.628V42.096ZM160.628 48.432L161.452 48.9985C162.784 47.0616 164.386 45.5432 166.26 44.4271L165.748 43.568L165.236 42.7089C163.099 43.9821 161.288 45.7064 159.804 47.8655L160.628 48.432ZM165.748 43.568L166.26 44.4271C168.112 43.3234 170.091 42.776 172.212 42.776V41.776V40.776C169.725 40.776 167.394 41.4233 165.236 42.7089L165.748 43.568ZM172.212 41.776H171.212V55.152H172.212H173.212V41.776H172.212ZM172.212 55.152V54.152H168.692V55.152V56.152H172.212V55.152ZM168.692 55.152V54.152C165.862 54.152 163.564 54.6993 161.984 55.9736L162.612 56.752L163.24 57.5304C164.305 56.6714 166.06 56.152 168.692 56.152V55.152ZM162.612 56.752L161.984 55.9736C160.32 57.3158 159.628 59.542 159.628 62.32H160.628H161.628C161.628 59.8074 162.259 58.3216 163.24 57.5304L162.612 56.752ZM160.628 62.32H159.628V78H160.628H161.628V62.32H160.628ZM160.628 78V77H148.084V78V79H160.628V78ZM148.084 78H149.084V42.096H148.084H147.084V78H148.084ZM148.084 42.096V43.096H160.628V42.096V41.096H148.084V42.096ZM160.628 42.096H159.628V48.432H160.628H161.628V42.096H160.628ZM210.821 62.576V63.576H211.699L211.813 62.7053L210.821 62.576ZM187.077 62.576V61.576H186.01L186.079 62.6411L187.077 62.576ZM188.677 66.992L187.954 67.6832L187.97 67.6993L187.986 67.7146L188.677 66.992ZM196.869 65.584V64.584H196.238L195.967 65.1533L196.869 65.584ZM210.245 65.584L211.221 65.8027L211.494 64.584H210.245V65.584ZM206.981 72.24L206.21 71.6031L206.209 71.6049L206.981 72.24ZM200.965 76.784L201.38 77.6938V77.6938L200.965 76.784ZM183.429 76.208L182.949 77.0854L182.955 77.0885L183.429 76.208ZM176.965 69.808L176.09 70.2925L176.096 70.3027L176.965 69.808ZM176.965 50.288L177.837 50.7783L177.84 50.7725L176.965 50.288ZM183.365 43.888L182.891 43.0075L182.885 43.0106L183.365 43.888ZM202.309 43.824L202.778 42.9409V42.9409L202.309 43.824ZM208.709 50.096L207.837 50.5863L207.841 50.5921L208.709 50.096ZM198.213 56.496V57.496H199.213V56.496H198.213ZM196.677 52.912L196.018 53.6646L196.028 53.6725L196.037 53.6802L196.677 52.912ZM189.061 52.848L189.698 53.619L189.708 53.6109L189.717 53.6026L189.061 52.848ZM187.141 56.496L186.158 56.3148L185.94 57.496H187.141V56.496ZM211.013 59.632H210.013C210.013 60.5697 209.952 61.5079 209.829 62.4467L210.821 62.576L211.813 62.7053C211.946 61.6815 212.013 60.6569 212.013 59.632H211.013ZM210.821 62.576V61.576H187.077V62.576V63.576H210.821V62.576ZM187.077 62.576L186.079 62.6411C186.216 64.7356 186.794 66.4701 187.954 67.6832L188.677 66.992L189.4 66.3008C188.683 65.5513 188.194 64.3418 188.075 62.5109L187.077 62.576ZM188.677 66.992L187.986 67.7146C189.173 68.8498 190.666 69.4 192.389 69.4V68.4V67.4C191.125 67.4 190.144 67.0116 189.368 66.2694L188.677 66.992ZM192.389 68.4V69.4C193.587 69.4 194.676 69.1294 195.609 68.5426C196.543 67.9556 197.257 67.0932 197.771 66.0147L196.869 65.584L195.967 65.1533C195.585 65.9521 195.104 66.4977 194.545 66.8494C193.985 67.2012 193.281 67.4 192.389 67.4V68.4ZM196.869 65.584V66.584H210.245V65.584V64.584H196.869V65.584ZM210.245 65.584L209.269 65.3653C208.749 67.6858 207.732 69.7613 206.21 71.6031L206.981 72.24L207.752 72.8769C209.473 70.7934 210.632 68.4316 211.221 65.8027L210.245 65.584ZM206.981 72.24L206.209 71.6049C204.734 73.3986 202.854 74.8232 200.55 75.8742L200.965 76.784L201.38 77.6938C203.94 76.5262 206.071 74.9214 207.753 72.8751L206.981 72.24ZM200.965 76.784L200.55 75.8742C198.261 76.9183 195.716 77.448 192.901 77.448V78.448V79.448C195.974 79.448 198.805 78.8684 201.38 77.6938L200.965 76.784ZM192.901 78.448V77.448C189.504 77.448 186.513 76.7331 183.903 75.3275L183.429 76.208L182.955 77.0885C185.891 78.6696 189.215 79.448 192.901 79.448V78.448ZM183.429 76.208L183.909 75.3306C181.345 73.9286 179.323 71.9297 177.834 69.3133L176.965 69.808L176.096 70.3027C177.764 73.2329 180.052 75.5007 182.949 77.0854L183.429 76.208ZM176.965 69.808L177.84 69.3235C176.4 66.7236 175.661 63.6325 175.661 60.016H174.661H173.661C173.661 63.9089 174.458 67.3457 176.09 70.2925L176.965 69.808ZM174.661 60.016H175.661C175.661 56.399 176.4 53.3321 177.837 50.7783L176.965 50.288L176.093 49.7977C174.458 52.7052 173.661 56.1236 173.661 60.016H174.661ZM176.965 50.288L177.84 50.7725C179.286 48.1616 181.284 46.166 183.845 44.7654L183.365 43.888L182.885 43.0106C179.985 44.5966 177.716 46.8677 176.09 49.8035L176.965 50.288ZM183.365 43.888L183.839 44.7685C186.448 43.3638 189.459 42.648 192.901 42.648V41.648V40.648C189.175 40.648 185.829 41.4255 182.891 43.0075L183.365 43.888ZM192.901 41.648V42.648C196.303 42.648 199.273 43.3437 201.84 44.7071L202.309 43.824L202.778 42.9409C199.883 41.403 196.582 40.648 192.901 40.648V41.648ZM202.309 43.824L201.84 44.7071C204.399 46.0668 206.394 48.02 207.837 50.5863L208.709 50.096L209.581 49.6057C207.952 46.7107 205.68 44.4826 202.778 42.9409L202.309 43.824ZM208.709 50.096L207.841 50.5921C209.276 53.1032 210.013 56.1043 210.013 59.632H211.013H212.013C212.013 55.821 211.214 52.4648 209.577 49.5999L208.709 50.096ZM198.213 56.496H199.213C199.213 54.7137 198.605 53.2172 197.317 52.1438L196.677 52.912L196.037 53.6802C196.797 54.3134 197.213 55.2063 197.213 56.496H198.213ZM196.677 52.912L197.336 52.1594C196.106 51.0832 194.582 50.568 192.837 50.568V51.568V52.568C194.164 52.568 195.2 52.9488 196.018 53.6646L196.677 52.912ZM192.837 51.568V50.568C191.106 50.568 189.6 51.054 188.405 52.0934L189.061 52.848L189.717 53.6026C190.485 52.9353 191.496 52.568 192.837 52.568V51.568ZM189.061 52.848L188.424 52.077C187.214 53.077 186.486 54.5317 186.158 56.3148L187.141 56.496L188.124 56.6772C188.393 55.2176 188.946 54.2403 189.698 53.619L189.061 52.848ZM187.141 56.496V57.496H198.213V56.496V55.496H187.141V56.496ZM249.491 45.936L248.739 46.5953L248.744 46.6011L249.491 45.936ZM253.139 78V79H254.139V78H253.139ZM240.594 78H239.594V79H240.594V78ZM238.994 53.936L238.249 54.602L238.255 54.6088L238.261 54.6154L238.994 53.936ZM230.29 53.936L231.024 54.6154L231.03 54.6088L231.036 54.602L230.29 53.936ZM228.69 78V79H229.69V78H228.69ZM216.146 78H215.146V79H216.146V78ZM216.146 42.096V41.096H215.146V42.096H216.146ZM228.69 42.096H229.69V41.096H228.69V42.096ZM228.69 47.216H227.69V50.4484L229.516 47.7807L228.69 47.216ZM233.171 43.312L233.634 44.1982L233.642 44.1941L233.649 44.1899L233.171 43.312ZM239.634 41.776V42.776C243.524 42.776 246.521 44.0663 248.739 46.5953L249.491 45.936L250.242 45.2767C247.596 42.259 244.022 40.776 239.634 40.776V41.776ZM249.491 45.936L248.744 46.6011C250.971 49.1014 252.139 52.5524 252.139 57.072H253.139H254.139C254.139 52.205 252.874 48.2319 250.237 45.2709L249.491 45.936ZM253.139 57.072H252.139V78H253.139H254.139V57.072H253.139ZM253.139 78V77H240.594V78V79H253.139V78ZM240.594 78H241.594V58.736H240.594H239.594V78H240.594ZM240.594 58.736H241.594C241.594 56.515 241.013 54.6442 239.728 53.2566L238.994 53.936L238.261 54.6154C239.109 55.5318 239.594 56.861 239.594 58.736H240.594ZM238.994 53.936L239.74 53.27C238.46 51.8362 236.746 51.144 234.706 51.144V52.144V53.144C236.251 53.144 237.395 53.6464 238.249 54.602L238.994 53.936ZM234.706 52.144V51.144C232.598 51.144 230.834 51.8257 229.545 53.27L230.29 53.936L231.036 54.602C231.88 53.657 233.06 53.144 234.706 53.144V52.144ZM230.29 53.936L229.557 53.2566C228.272 54.6442 227.69 56.515 227.69 58.736H228.69H229.69C229.69 56.861 230.176 55.5318 231.024 54.6154L230.29 53.936ZM228.69 58.736H227.69V78H228.69H229.69V58.736H228.69ZM228.69 78V77H216.146V78V79H228.69V78ZM216.146 78H217.146V42.096H216.146H215.146V78H216.146ZM216.146 42.096V43.096H228.69V42.096V41.096H216.146V42.096ZM228.69 42.096H227.69V47.216H228.69H229.69V42.096H228.69ZM228.69 47.216L229.516 47.7807C230.525 46.305 231.89 45.1098 233.634 44.1982L233.171 43.312L232.707 42.4258C230.696 43.4769 229.074 44.8843 227.865 46.6513L228.69 47.216ZM233.171 43.312L233.649 44.1899C235.361 43.2565 237.347 42.776 239.634 42.776V41.776V40.776C237.058 40.776 234.735 41.3195 232.692 42.4341L233.171 43.312ZM279.413 52.528V53.528H280.413V52.528H279.413ZM273.781 52.528V51.528H272.781V52.528H273.781ZM273.781 78V79H274.781V78H273.781ZM261.174 78H260.174V79H261.174V78ZM261.174 52.528H262.174V51.528H261.174V52.528ZM257.27 52.528H256.27V53.528H257.27V52.528ZM257.27 42.096V41.096H256.27V42.096H257.27ZM261.174 42.096V43.096H262.174V42.096H261.174ZM265.205 31.216L265.876 31.9575L265.877 31.957L265.205 31.216ZM279.286 27.568H280.286V26.642L279.362 26.5709L279.286 27.568ZM279.286 38.256L279.161 39.2483L280.286 39.3888V38.256H279.286ZM274.87 39.152L275.552 39.8831L275.564 39.8713L275.577 39.8591L274.87 39.152ZM273.781 42.096L272.783 42.0336L272.717 43.096H273.781V42.096ZM279.413 42.096H280.413V41.096H279.413V42.096ZM279.413 52.528V51.528H273.781V52.528V53.528H279.413V52.528ZM273.781 52.528H272.781V78H273.781H274.781V52.528H273.781ZM273.781 78V77H261.174V78V79H273.781V78ZM261.174 78H262.174V52.528H261.174H260.174V78H261.174ZM261.174 52.528V51.528H257.27V52.528V53.528H261.174V52.528ZM257.27 52.528H258.27V42.096H257.27H256.27V52.528H257.27ZM257.27 42.096V43.096H261.174V42.096V41.096H257.27V42.096ZM261.174 42.096H262.174V41.776H261.174H260.174V42.096H261.174ZM261.174 41.776H262.174C262.174 37.3688 263.452 34.1513 265.876 31.9575L265.205 31.216L264.535 30.4745C261.583 33.1447 260.174 36.9672 260.174 41.776H261.174ZM265.205 31.216L265.877 31.957C268.364 29.703 271.994 28.504 276.917 28.504V27.504V26.504C271.686 26.504 267.508 27.7796 264.534 30.475L265.205 31.216ZM276.917 27.504V28.504C277.933 28.504 278.693 28.5253 279.209 28.5651L279.286 27.568L279.362 26.5709C278.769 26.5253 277.95 26.504 276.917 26.504V27.504ZM279.286 27.568H278.286V38.256H279.286H280.286V27.568H279.286ZM279.286 38.256L279.41 37.2637C279.008 37.2135 278.491 37.192 277.878 37.192V38.192V39.192C278.459 39.192 278.88 39.2132 279.161 39.2483L279.286 38.256ZM277.878 38.192V37.192C276.38 37.192 275.067 37.5406 274.162 38.4449L274.87 39.152L275.577 39.8591C275.952 39.4834 276.644 39.192 277.878 39.192V38.192ZM274.87 39.152L274.187 38.4209C273.279 39.2685 272.876 40.5516 272.783 42.0336L273.781 42.096L274.78 42.1584C274.858 40.9098 275.18 40.2301 275.552 39.8831L274.87 39.152ZM273.781 42.096V43.096H279.413V42.096V41.096H273.781V42.096ZM279.413 42.096H278.413V52.528H279.413H280.413V42.096H279.413ZM290.936 76.208L290.468 77.0915L290.473 77.0943L290.936 76.208ZM284.281 69.808L285.144 69.3033V69.3033L284.281 69.808ZM284.281 50.288L283.423 49.7735L283.417 49.7833L284.281 50.288ZM291.001 43.888L290.537 43.0016L290.532 43.0045L291.001 43.888ZM310.264 43.888L309.796 44.7715L309.801 44.7743L310.264 43.888ZM316.984 50.288L316.121 50.7927L316.127 50.8025L316.984 50.288ZM316.984 69.808L316.124 69.2993L316.121 69.3033L316.984 69.808ZM310.264 76.208L309.801 75.3216L310.264 76.208ZM304.952 65.648L304.21 64.9777L304.209 64.979L304.952 65.648ZM304.952 54.448L304.209 55.117L304.215 55.1237L304.221 55.1303L304.952 54.448ZM296.312 65.648L295.557 66.3029V66.3029L296.312 65.648ZM300.6 78.448V77.448C297.16 77.448 294.1 76.7323 291.4 75.3216L290.936 76.208L290.473 77.0943C293.49 78.6703 296.873 79.448 300.6 79.448V78.448ZM290.936 76.208L291.405 75.3245C288.755 73.919 286.672 71.9175 285.144 69.3033L284.281 69.808L283.417 70.3127C285.132 73.2452 287.486 75.5103 290.468 77.0915L290.936 76.208ZM284.281 69.808L285.144 69.3033C283.626 66.7073 282.848 63.6235 282.848 60.016H281.848H280.848C280.848 63.9178 281.692 67.3621 283.417 70.3127L284.281 69.808ZM281.848 60.016H282.848C282.848 56.4534 283.625 53.3904 285.144 50.7927L284.281 50.288L283.417 49.7833C281.693 52.7322 280.848 56.1546 280.848 60.016H281.848ZM284.281 50.288L285.138 50.8025C286.71 48.1828 288.816 46.1782 291.469 44.7715L291.001 43.888L290.532 43.0045C287.553 44.5845 285.179 46.8465 283.423 49.7735L284.281 50.288ZM291.001 43.888L291.464 44.7743C294.164 43.3637 297.224 42.648 300.665 42.648V41.648V40.648C296.937 40.648 293.554 41.4257 290.537 43.0016L291.001 43.888ZM300.665 41.648V42.648C304.106 42.648 307.141 43.3638 309.796 44.7715L310.264 43.888L310.733 43.0045C307.756 41.4256 304.391 40.648 300.665 40.648V41.648ZM310.264 43.888L309.801 44.7743C312.494 46.181 314.595 48.1824 316.121 50.7927L316.984 50.288L317.848 49.7833C316.131 46.847 313.752 44.5817 310.728 43.0016L310.264 43.888ZM316.984 50.288L316.127 50.8025C317.685 53.3986 318.48 56.458 318.48 60.016H319.48H320.48C320.48 56.15 319.612 52.7241 317.842 49.7735L316.984 50.288ZM319.48 60.016H318.48C318.48 63.5737 317.685 66.6572 316.124 69.2993L316.984 69.808L317.845 70.3167C319.612 67.3268 320.48 63.8823 320.48 60.016H319.48ZM316.984 69.808L316.121 69.3033C314.595 71.9136 312.494 73.915 309.801 75.3216L310.264 76.208L310.728 77.0943C313.752 75.5143 316.131 73.249 317.848 70.3127L316.984 69.808ZM310.264 76.208L309.801 75.3216C307.101 76.7323 304.041 77.448 300.6 77.448V78.448V79.448C304.328 79.448 307.711 78.6703 310.728 77.0943L310.264 76.208ZM300.6 67.568V68.568C302.628 68.568 304.351 67.8115 305.696 66.317L304.952 65.648L304.209 64.979C303.25 66.0445 302.071 66.568 300.6 66.568V67.568ZM304.952 65.648L305.695 66.3183C307.108 64.7539 307.745 62.6046 307.745 60.016H306.745H305.745C305.745 62.2914 305.187 63.8968 304.21 64.9777L304.952 65.648ZM306.745 60.016H307.745C307.745 57.43 307.109 55.2925 305.684 53.7657L304.952 54.448L304.221 55.1303C305.186 56.1635 305.745 57.738 305.745 60.016H306.745ZM304.952 54.448L305.696 53.779C304.356 52.2905 302.658 51.528 300.665 51.528V52.528V53.528C302.085 53.528 303.245 54.0455 304.209 55.117L304.952 54.448ZM300.665 52.528V51.528C298.671 51.528 296.973 52.2905 295.633 53.779L296.376 54.448L297.12 55.117C298.084 54.0455 299.244 53.528 300.665 53.528V52.528ZM296.376 54.448L295.633 53.779C294.259 55.3062 293.648 57.4384 293.648 60.016H294.648H295.648C295.648 57.7296 296.19 56.1498 297.12 55.117L296.376 54.448ZM294.648 60.016H293.648C293.648 62.6228 294.231 64.7732 295.557 66.3029L296.312 65.648L297.068 64.9931C296.175 63.9628 295.648 62.3586 295.648 60.016H294.648ZM296.312 65.648L295.557 66.3029C296.863 67.8102 298.572 68.568 300.6 68.568V67.568V66.568C299.13 66.568 297.981 66.0458 297.068 64.9931L296.312 65.648ZM337.128 48.432H336.128V51.6517L337.952 48.9985L337.128 48.432ZM348.712 41.776H349.712V40.776H348.712V41.776ZM348.712 55.152V56.152H349.712V55.152H348.712ZM339.112 56.752L339.74 57.5304V57.5304L339.112 56.752ZM337.128 78V79H338.128V78H337.128ZM324.584 78H323.584V79H324.584V78ZM324.584 42.096V41.096H323.584V42.096H324.584ZM337.128 42.096H338.128V41.096H337.128V42.096ZM337.128 48.432L337.952 48.9985C339.284 47.0616 340.886 45.5432 342.76 44.4271L342.248 43.568L341.736 42.7089C339.599 43.9821 337.788 45.7064 336.304 47.8655L337.128 48.432ZM342.248 43.568L342.76 44.4271C344.612 43.3234 346.591 42.776 348.712 42.776V41.776V40.776C346.225 40.776 343.894 41.4233 341.736 42.7089L342.248 43.568ZM348.712 41.776H347.712V55.152H348.712H349.712V41.776H348.712ZM348.712 55.152V54.152H345.192V55.152V56.152H348.712V55.152ZM345.192 55.152V54.152C342.362 54.152 340.064 54.6993 338.484 55.9736L339.112 56.752L339.74 57.5304C340.805 56.6714 342.56 56.152 345.192 56.152V55.152ZM339.112 56.752L338.484 55.9736C336.82 57.3158 336.128 59.542 336.128 62.32H337.128H338.128C338.128 59.8074 338.759 58.3216 339.74 57.5304L339.112 56.752ZM337.128 62.32H336.128V78H337.128H338.128V62.32H337.128ZM337.128 78V77H324.584V78V79H337.128V78ZM324.584 78H325.584V42.096H324.584H323.584V78H324.584ZM324.584 42.096V43.096H337.128V42.096V41.096H324.584V42.096ZM337.128 42.096H336.128V48.432H337.128H338.128V42.096H337.128ZM353.145 50.288L352.248 49.8463L352.242 49.8575L353.145 50.288ZM358.713 43.888L358.176 43.0443H358.176L358.713 43.888ZM372.665 43.12L372.185 43.9971L372.197 44.0038L372.21 44.0102L372.665 43.12ZM376.953 47.024L376.101 47.5481L377.953 50.557V47.024H376.953ZM376.953 30.64V29.64H375.953V30.64H376.953ZM389.561 30.64H390.561V29.64H389.561V30.64ZM389.561 78V79H390.561V78H389.561ZM376.953 78H375.953V79H376.953V78ZM376.953 73.008H377.953V69.3438L376.092 72.5L376.953 73.008ZM372.793 76.976L372.313 76.0989L372.793 76.976ZM358.649 76.208L358.105 77.0472L358.112 77.0517L358.649 76.208ZM353.145 69.808L352.24 70.2331L352.244 70.2414L352.248 70.2497L353.145 69.808ZM375.097 54.576L374.367 55.2592L374.373 55.2653L374.378 55.2714L375.097 54.576ZM365.817 54.576L366.536 55.271L366.542 55.2651L366.547 55.2592L365.817 54.576ZM365.817 65.52L365.076 66.1915L365.081 66.1974L365.087 66.2032L365.817 65.52ZM375.097 65.52L374.378 64.8246L374.373 64.8307L374.367 64.8368L375.097 65.52ZM351.161 60.016H352.161C352.161 56.4224 352.801 53.3323 354.048 50.7185L353.145 50.288L352.242 49.8575C350.844 52.7904 350.161 56.1856 350.161 60.016H351.161ZM353.145 50.288L354.042 50.7297C355.336 48.102 357.075 46.1159 359.25 44.7317L358.713 43.888L358.176 43.0443C355.658 44.6468 353.685 46.9273 352.248 49.8463L353.145 50.288ZM358.713 43.888L359.25 44.7317C361.431 43.3434 363.847 42.648 366.521 42.648V41.648V40.648C363.478 40.648 360.688 41.4459 358.176 43.0443L358.713 43.888ZM366.521 41.648V42.648C368.679 42.648 370.558 43.1062 372.185 43.9971L372.665 43.12L373.145 42.2429C371.188 41.1711 368.971 40.648 366.521 40.648V41.648ZM372.665 43.12L372.21 44.0102C373.89 44.8702 375.179 46.0488 376.101 47.5481L376.953 47.024L377.805 46.4999C376.679 44.6712 375.109 43.2471 373.12 42.2298L372.665 43.12ZM376.953 47.024H377.953V30.64H376.953H375.953V47.024H376.953ZM376.953 30.64V31.64H389.561V30.64V29.64H376.953V30.64ZM389.561 30.64H388.561V78H389.561H390.561V30.64H389.561ZM389.561 78V77H376.953V78V79H389.561V78ZM376.953 78H377.953V73.008H376.953H375.953V78H376.953ZM376.953 73.008L376.092 72.5C375.207 73.9999 373.956 75.1989 372.313 76.0989L372.793 76.976L373.273 77.8531C375.214 76.7905 376.736 75.3441 377.814 73.516L376.953 73.008ZM372.793 76.976L372.313 76.0989C370.694 76.9855 368.753 77.448 366.457 77.448V78.448V79.448C369.025 79.448 371.308 78.9291 373.273 77.8531L372.793 76.976ZM366.457 78.448V77.448C363.783 77.448 361.367 76.7526 359.186 75.3643L358.649 76.208L358.112 77.0517C360.624 78.65 363.414 79.448 366.457 79.448V78.448ZM358.649 76.208L359.193 75.3689C357.059 73.9856 355.338 71.9986 354.042 69.3663L353.145 69.808L352.248 70.2497C353.683 73.1641 355.631 75.4437 358.105 77.0471L358.649 76.208ZM353.145 69.808L354.05 69.3829C352.801 66.7231 352.161 63.6091 352.161 60.016H351.161H350.161C350.161 63.8469 350.844 67.2609 352.24 70.2331L353.145 69.808ZM377.017 60.016H378.017C378.017 57.5211 377.319 55.4339 375.816 53.8806L375.097 54.576L374.378 55.2714C375.435 56.3635 376.017 57.9029 376.017 60.016H377.017ZM375.097 54.576L375.827 53.8928C374.398 52.3651 372.596 51.592 370.489 51.592V52.592V53.592C372.051 53.592 373.321 54.1416 374.367 55.2592L375.097 54.576ZM370.489 52.592V51.592C368.346 51.592 366.521 52.3599 365.087 53.8928L365.817 54.576L366.547 55.2592C367.588 54.1468 368.877 53.592 370.489 53.592V52.592ZM365.817 54.576L365.098 53.881C363.629 55.4008 362.961 57.4951 362.961 60.016H363.961H364.961C364.961 57.8435 365.53 56.3112 366.536 55.271L365.817 54.576ZM363.961 60.016H362.961C362.961 62.5035 363.633 64.5994 365.076 66.1915L365.817 65.52L366.558 64.8485C365.526 63.71 364.961 62.1365 364.961 60.016H363.961ZM365.817 65.52L365.087 66.2032C366.521 67.7361 368.346 68.504 370.489 68.504V67.504V66.504C368.877 66.504 367.588 65.9492 366.547 64.8368L365.817 65.52ZM370.489 67.504V68.504C372.596 68.504 374.398 67.7309 375.827 66.2032L375.097 65.52L374.367 64.8368C373.321 65.9544 372.051 66.504 370.489 66.504V67.504ZM375.097 65.52L375.816 66.2154C377.322 64.6588 378.017 62.5477 378.017 60.016H377.017H376.017C376.017 62.1776 375.432 63.7359 374.378 64.8246L375.097 65.52Z" fill="#232E65" mask="url(#path-5-outside-1_47_269)"/>
</svg>
